<svg width="439" height="354" viewBox="0 0 439 354" fill="none" xmlns="http://www.w3.org/2000/svg">
<g clip-path="url(#clip0_179_8623)">
<path d="M299.278 196.021L216.625 79.3207C215.784 78.1065 214.66 77.1141 213.35 76.4286C212.04 75.7431 210.583 75.385 209.104 75.385C207.625 75.385 206.168 75.7431 204.858 76.4286C203.548 77.1141 202.425 78.1065 201.584 79.3207L176.81 114.272C183.819 119.13 189.546 125.61 193.501 133.157C197.455 140.704 199.52 149.094 199.519 157.611C199.519 171.643 193.934 185.099 183.992 195.021C174.05 204.942 160.566 210.516 146.506 210.516H291.758C293.445 210.514 295.099 210.049 296.54 209.173C297.981 208.297 299.153 207.043 299.929 205.548C300.705 204.052 301.054 202.373 300.94 200.693C300.825 199.013 300.25 197.397 299.278 196.021Z" fill="#65B2E4"/>
<path d="M118.93 196.021L176.809 114.272C172.664 111.357 168.12 109.052 163.316 107.429C160.713 118.777 154.329 128.907 145.208 136.165C136.088 143.422 124.77 147.377 113.105 147.384H50.1377C48.621 147.393 47.1174 147.104 45.7134 146.531C44.3094 145.959 43.0326 145.115 41.9567 144.048C40.8808 142.981 40.027 141.712 39.4444 140.315C38.8617 138.917 38.5618 137.419 38.5618 135.905V106.693C27.462 109.844 17.6933 116.519 10.7352 125.707C3.77705 134.895 0.00841705 146.095 0 157.611H0C0 164.559 1.37123 171.439 4.03539 177.857C6.69956 184.276 10.6045 190.108 15.5272 195.021C25.4691 204.943 38.9533 210.516 53.0133 210.516H74.9854C76.7844 210.516 78.5098 211.23 79.7819 212.499C81.0541 213.769 81.7687 215.491 81.7687 217.286C81.7687 222.048 83.6642 226.614 87.038 229.981C90.4119 233.348 94.9879 235.24 99.7593 235.24C104.531 235.24 109.107 233.348 112.481 229.981C115.854 226.614 117.75 222.048 117.75 217.286C117.75 215.491 118.465 213.769 119.737 212.499C121.009 211.23 122.734 210.516 124.533 210.516H126.45C124.763 210.514 123.109 210.049 121.668 209.173C120.227 208.297 119.055 207.043 118.279 205.548C117.503 204.053 117.154 202.373 117.268 200.694C117.383 199.014 117.958 197.397 118.93 196.021Z" fill="#A2C510"/>
<path d="M199.519 157.611C199.52 149.095 197.455 140.704 193.5 133.157C189.545 125.61 183.819 119.13 176.809 114.272L118.93 196.021C117.958 197.397 117.383 199.014 117.268 200.693C117.154 202.373 117.503 204.052 118.279 205.548C119.055 207.043 120.227 208.297 121.668 209.173C123.109 210.049 124.763 210.514 126.45 210.516H146.505C153.467 210.516 160.361 209.148 166.793 206.489C173.224 203.831 179.069 199.934 183.991 195.021C188.914 190.108 192.819 184.276 195.483 177.857C198.147 171.439 199.519 164.559 199.519 157.611Z" fill="#2D7ABF"/>
<path d="M74.9854 104.706C76.7718 104.706 78.486 104.003 79.7561 102.75C81.0261 101.496 81.7493 99.793 81.7687 98.0104C81.7687 93.2487 83.6642 88.6821 87.0381 85.3151C90.412 81.9481 94.9879 80.0565 99.7593 80.0565C102.122 80.0565 104.461 80.5209 106.644 81.4232C108.827 82.3255 110.81 83.6479 112.481 85.3151C114.151 86.9823 115.476 88.9615 116.38 91.1397C117.285 93.318 117.75 95.6527 117.75 98.0104C117.769 99.793 118.493 101.496 119.763 102.75C121.033 104.003 122.747 104.706 124.533 104.706H146.505C152.22 104.701 157.897 105.621 163.316 107.429C164.149 103.709 164.57 99.9089 164.57 96.0973C164.579 89.3499 163.255 82.6669 160.672 76.4313C158.089 70.1956 154.299 64.5299 149.518 59.7588C144.737 54.9877 139.059 51.2049 132.811 48.6273C126.563 46.0496 119.866 44.7278 113.105 44.7375H79.7043L143.187 10.0806C148.054 7.43171 146.137 -8.28037e-06 140.607 -8.28037e-06H50.1377C48.6211 -0.00971094 47.1174 0.280033 45.7134 0.852546C44.3094 1.42506 43.0327 2.26904 41.9568 3.3359C40.8809 4.40276 40.027 5.67144 39.4444 7.06892C38.8617 8.4664 38.5618 9.96507 38.5618 11.4787V106.693C43.2696 105.395 48.1292 104.727 53.0133 104.706H74.9854Z" fill="#E50054"/>
<path d="M50.1374 147.384H113.105C124.77 147.377 136.088 143.422 145.208 136.165C154.329 128.907 160.713 118.777 163.316 107.429C157.897 105.621 152.219 104.701 146.505 104.706H124.533C122.747 104.707 121.032 104.003 119.762 102.75C118.492 101.496 117.769 99.7931 117.75 98.0105C117.75 95.6528 117.284 93.3181 116.38 91.1399C115.476 88.9616 114.151 86.9824 112.48 85.3152C110.81 83.648 108.826 82.3256 106.644 81.4233C104.461 80.521 102.122 80.0566 99.759 80.0566C94.9876 80.0566 90.4117 81.9482 87.0378 85.3152C83.6639 88.6822 81.7684 93.2488 81.7684 98.0105C81.749 99.7931 81.0258 101.496 79.7558 102.75C78.4857 104.003 76.7715 104.707 74.9851 104.706H53.013C48.1289 104.727 43.2693 105.395 38.5615 106.693V135.905C38.5615 137.419 38.8614 138.917 39.4441 140.315C40.0267 141.712 40.8806 142.981 41.9565 144.048C43.0324 145.115 44.3091 145.959 45.7131 146.531C47.1171 147.104 48.6208 147.393 50.1374 147.384Z" fill="#A60D48"/>
<path d="M130.063 266.365V233.547H144.515V238.257H135.224V246.571H138.247C143.409 246.571 146.063 249.441 146.063 254.739V258.197C146.063 263.495 143.409 266.365 138.247 266.365H130.063ZM138.247 261.655C139.869 261.655 140.902 260.92 140.902 258.565V254.371C140.902 252.016 139.869 251.28 138.247 251.28H135.224V261.655H138.247Z" fill="white"/>
<path d="M151.003 241.421C151.003 236.123 153.731 233.179 158.819 233.179C163.906 233.179 166.634 236.123 166.634 241.421V258.491C166.634 263.716 163.906 266.733 158.819 266.733C153.731 266.733 151.003 263.716 151.003 258.491V241.421ZM156.164 258.786C156.164 261.14 157.196 262.023 158.819 262.023C160.441 262.023 161.473 261.14 161.473 258.786V241.053C161.473 238.772 160.441 237.815 158.819 237.815C157.196 237.815 156.164 238.772 156.164 241.053V258.786Z" fill="white"/>
<path d="M170.395 261.729C172.754 261.729 173.491 261.361 173.639 258.344L174.45 233.547H189.049V266.365H183.814V238.257H179.316L178.726 258.05C178.505 264.01 176.367 266.365 171.206 266.365H170.395V261.729Z" fill="white"/>
<path d="M194.874 266.365V233.547H200.035V245.835H202.468C207.629 245.835 210.21 248.705 210.21 253.929V258.197C210.21 263.495 207.629 266.365 202.468 266.365H194.874ZM202.468 261.655C204.09 261.655 204.975 260.92 204.975 258.565V253.635C204.975 251.28 204.09 250.545 202.468 250.545H200.035V261.655H202.468Z" fill="white"/>
<path d="M215.15 266.365V233.547H220.311V261.655H224.809V233.547H229.97V261.655H234.394V233.547H239.555V266.365H215.15Z" fill="white"/>
<path d="M244.79 241.421C244.79 236.123 247.518 233.179 252.606 233.179C257.693 233.179 260.421 236.123 260.421 241.421V258.491C260.421 263.716 257.693 266.733 252.606 266.733C247.518 266.733 244.79 263.716 244.79 258.491V241.421ZM249.951 258.786C249.951 261.14 250.984 262.023 252.606 262.023C254.228 262.023 255.26 261.14 255.26 258.786V241.053C255.26 238.772 254.228 237.815 252.606 237.815C250.984 237.815 249.951 238.772 249.951 241.053V258.786Z" fill="white"/>
<path d="M270.965 266.365H265.656V233.547H270.228V254.297L272.145 247.086L276.347 233.547H282.025V266.365H277.38V243.26L275.315 251.28L270.965 266.365ZM276.274 226.189C276.126 227.955 275.315 228.397 273.914 228.397C272.513 228.397 271.85 227.955 271.702 226.189H268.532C268.605 229.427 270.301 231.413 273.914 231.413C277.527 231.413 279.444 229.427 279.444 226.189H276.274Z" fill="white"/>
<path d="M311.739 270.706V266.365H300.753V270.706H295.665V261.729H297.73C298.614 260.625 298.909 259.374 298.983 257.461L300.163 233.547H314.614V261.729H316.9V270.706H311.739ZM304.071 257.388C303.923 259.889 303.481 260.92 302.596 261.729H309.379V238.257H305.029L304.071 257.388Z" fill="white"/>
<path d="M326.78 247.381H333.858V252.016H326.78V261.655H335.701V266.365H321.619V233.547H335.701V238.257H326.78V247.381Z" fill="white"/>
<path d="M339.241 233.547H355.24V238.257H349.858V266.365H344.697V238.257H339.241V233.547Z" fill="white"/>
<path d="M374.337 254.077V258.491C374.337 263.716 371.683 266.733 366.669 266.733C361.655 266.733 358.927 263.716 358.927 258.491V241.421C358.927 236.123 361.581 233.179 366.669 233.179C371.756 233.179 374.337 236.123 374.337 241.421V244.585H369.471V241.053C369.471 238.772 368.439 237.815 366.743 237.815C365.047 237.815 364.088 238.772 364.088 241.053V258.786C364.088 261.14 365.121 261.95 366.743 261.95C368.365 261.95 369.471 261.14 369.471 258.786V254.077H374.337Z" fill="white"/>
<path d="M386.134 253.267L384.512 256.284V266.365H379.351V233.547H384.512V247.822L391.295 233.547H396.457L389.231 248.116L396.457 266.365H391.148L386.134 253.267Z" fill="white"/>
<path d="M405.968 266.365H400.659V233.547H405.231V254.297L407.148 247.086L411.35 233.547H417.028V266.365H412.383V243.26L410.318 251.28L405.968 266.365Z" fill="white"/>
<path d="M427.866 266.365H422.558V233.547H427.203V254.297L429.046 247.086L433.323 233.547H439V266.365H434.355V243.26L432.217 251.28L427.866 266.365ZM433.175 226.189C433.028 227.955 432.29 228.397 430.816 228.397C429.341 228.397 428.751 227.955 428.678 226.189H425.433C425.581 229.427 427.203 231.413 430.816 231.413C434.429 231.413 436.346 229.427 436.346 226.189H433.175Z" fill="white"/>
<path d="M141.123 284.466C145.768 284.466 147.611 287.041 147.611 291.529V299.182C147.611 303.67 145.768 306.246 141.123 306.246H138.837V309.336H137.068V306.246H134.782C130.137 306.246 128.294 303.67 128.294 299.182V291.529C128.294 287.041 130.137 284.466 134.782 284.466H137.068V281.228H138.837V284.466H141.123ZM134.782 286.084C131.39 286.084 130.063 287.998 130.063 291.382V299.329C130.063 302.714 131.39 304.627 134.782 304.627H137.068V286.084H134.782ZM141.123 304.627C144.515 304.627 145.842 302.714 145.842 299.329V291.382C145.842 287.998 144.515 286.084 141.123 286.084H138.837V304.627H141.123Z" fill="white"/>
<path d="M161.915 294.178V295.871H154.247V307.644H163.464V309.336H152.404V281.228H163.464V282.92H154.247V294.178H161.915Z" fill="white"/>
<path d="M180.127 288.071V290.426H178.358V287.924C178.358 284.907 177.178 282.626 174.081 282.626C170.984 282.626 169.878 284.907 169.878 287.924V302.567C169.878 305.583 170.984 307.791 174.081 307.791C177.178 307.791 178.358 305.583 178.358 302.567V299.255H180.127V302.419C180.127 306.466 178.358 309.557 174.081 309.557C169.805 309.557 167.961 306.466 167.961 302.419V288.071C167.961 284.024 169.731 280.934 174.081 280.934C178.431 280.934 180.127 284.024 180.127 288.071Z" fill="white"/>
<path d="M190.081 309.336V282.92H184.256V281.228H197.675V282.92H191.924V309.336H190.081Z" fill="white"/>
<path d="M208.661 296.091L204.016 309.336H202.026V281.228H203.721V305.289L207.777 293.737L212.348 281.228H214.56V309.336H212.864V284.466L208.661 296.091Z" fill="white"/>
<path d="M225.251 281.228C229.454 281.228 231.002 283.288 231.002 287.188V288.807C231.002 291.824 230.191 293.737 227.316 294.326C230.339 294.914 231.518 297.195 231.518 300.359V302.787C231.518 306.834 229.675 309.336 225.399 309.336H219.353V281.228H225.251ZM224.293 293.59C227.611 293.59 229.159 292.707 229.159 289.175V287.335C229.159 284.392 228.2 282.92 225.251 282.92H221.196V293.59H224.293ZM225.399 307.644C228.495 307.644 229.675 305.878 229.675 302.787V300.212C229.675 296.607 228.053 295.282 224.661 295.282H221.196V307.644H225.399Z" fill="white"/>
<path d="M238.891 303.082L237.417 309.336H235.721L241.914 281.154H244.643L250.91 309.336H249.066L247.592 303.082H238.891ZM239.113 301.463H247.371L243.168 283.288L239.113 301.463Z" fill="white"/>
<path d="M260.937 282.92L260.2 302.419C260.053 306.246 259.389 309.263 255.26 309.336H254.891V307.644C258.062 307.644 258.283 305.289 258.357 302.493L259.168 281.228H269.711V309.336H267.794V282.92H260.937Z" fill="white"/>
<path d="M279.886 292.78C284.384 292.78 286.449 294.988 286.449 299.403V302.493C286.449 306.614 284.753 309.336 280.329 309.336H274.578V281.228H276.421V292.78H279.886ZM280.329 307.644C283.499 307.644 284.532 305.657 284.532 302.64V299.329C284.532 295.871 283.131 294.473 279.886 294.473H276.421V307.644H280.329Z" fill="white"/>
<path d="M152.551 354H152.183C151.962 353.935 151.77 353.798 151.637 353.611C151.503 353.425 151.436 353.199 151.445 352.97V330.675H130.948C130.655 330.675 130.373 330.558 130.166 330.351C129.958 330.144 129.842 329.864 129.842 329.571C129.842 329.278 129.958 328.998 130.166 328.791C130.373 328.584 130.655 328.467 130.948 328.467H152.551C152.845 328.467 153.126 328.584 153.333 328.791C153.541 328.998 153.657 329.278 153.657 329.571V349.732L170.247 328.909C170.339 328.777 170.46 328.669 170.6 328.592C170.741 328.516 170.898 328.473 171.058 328.467H214.855C215.148 328.467 215.43 328.584 215.637 328.791C215.844 328.998 215.961 329.278 215.961 329.571C215.961 329.864 215.844 330.144 215.637 330.351C215.43 330.558 215.148 330.675 214.855 330.675H171.648L153.362 353.632C153.151 353.856 152.86 353.988 152.551 354Z" fill="white"/>
</g>
<defs>
<clipPath id="clip0_179_8623">
<rect width="439" height="354" fill="white"/>
</clipPath>
</defs>
</svg>
