<svg width="335" height="69" viewBox="0 0 335 69" fill="none" xmlns="http://www.w3.org/2000/svg">
<g clip-path="url(#clip0_199_3790)">
<path d="M64.1568 42.1604L46.444 17.0523C46.2594 16.7958 46.0165 16.5869 45.7353 16.4428C45.4541 16.2987 45.1428 16.2236 44.8269 16.2236C44.5111 16.2236 44.1997 16.2987 43.9186 16.4428C43.6374 16.5869 43.3945 16.7958 43.2099 17.0523L37.9073 24.581C39.4215 25.6195 40.6588 27.0132 41.511 28.6405C42.3632 30.2678 42.8044 32.0792 42.7962 33.9165C42.7862 36.935 41.5813 39.8265 39.4455 41.9574C37.3096 44.0882 34.417 45.2848 31.4014 45.2848H62.5773C62.9404 45.2865 63.2969 45.187 63.6068 44.9974C63.9166 44.8077 64.1676 44.5355 64.3316 44.2111C64.4956 43.8868 64.5661 43.5231 64.5352 43.1609C64.5043 42.7987 64.3733 42.4522 64.1568 42.1604Z" fill="#65B2E4"/>
<path d="M25.4973 42.1605L37.9075 24.5811C37.0286 23.9372 36.0504 23.4413 35.0118 23.113C34.4636 25.5558 33.0987 27.7381 31.1429 29.2988C29.187 30.8595 26.7575 31.7051 24.2563 31.6956H10.7555C10.4313 31.7006 10.1094 31.641 9.80851 31.5203C9.50758 31.3996 9.23366 31.2201 9.00267 30.9924C8.77169 30.7647 8.58826 30.4933 8.46307 30.194C8.33788 29.8946 8.27343 29.5733 8.27347 29.2488V22.9624C5.88979 23.6356 3.79129 25.0702 2.29766 27.0478C0.804034 29.0254 -0.00282611 31.4375 7.43775e-06 33.9166C7.43775e-06 36.9316 1.19657 39.8232 3.32646 41.9552C5.45635 44.0871 8.3451 45.2848 11.3572 45.2848H16.0957C16.4747 45.2848 16.8381 45.4355 17.1061 45.7038C17.3741 45.9721 17.5247 46.3359 17.5247 46.7153C17.5247 47.7436 17.9328 48.7298 18.6592 49.4569C19.3856 50.184 20.3709 50.5925 21.3982 50.5925C22.4255 50.5925 23.4107 50.184 24.1372 49.4569C24.8636 48.7298 25.2717 47.7436 25.2717 46.7153C25.2717 46.3359 25.4222 45.9721 25.6902 45.7038C25.9582 45.4355 26.3217 45.2848 26.7007 45.2848H27.1144C26.7535 45.2801 26.4007 45.1775 26.0936 44.9878C25.7865 44.798 25.5366 44.5284 25.3706 44.2077C25.2045 43.8869 25.1287 43.5271 25.151 43.1665C25.1733 42.806 25.293 42.4582 25.4973 42.1605Z" fill="#AFCA00"/>
<path d="M42.7962 33.9165C42.8044 32.0792 42.3632 30.2678 41.511 28.6405C40.6588 27.0132 39.4216 25.6195 37.9073 24.581L25.4971 42.1604C25.2928 42.4582 25.1731 42.8059 25.1508 43.1664C25.1285 43.527 25.2044 43.8868 25.3704 44.2076C25.5364 44.5284 25.7863 44.798 26.0934 44.9877C26.4005 45.1774 26.7534 45.2801 27.1142 45.2848H31.4014C34.417 45.2848 37.3096 44.0883 39.4455 41.9574C41.5813 39.8265 42.7862 36.935 42.7962 33.9165Z" fill="#2D7ABF"/>
<path d="M16.0954 22.5106C16.2831 22.5106 16.4689 22.4736 16.6423 22.4017C16.8157 22.3299 16.9732 22.2245 17.1059 22.0917C17.2386 21.9588 17.3439 21.8011 17.4157 21.6276C17.4875 21.454 17.5245 21.268 17.5245 21.0802C17.5245 20.0519 17.9326 19.0657 18.659 18.3386C19.3854 17.6114 20.3707 17.2029 21.398 17.2029C22.4253 17.2029 23.4105 17.6114 24.1369 18.3386C24.8633 19.0657 25.2714 20.0519 25.2714 21.0802C25.2714 21.4596 25.422 21.8234 25.69 22.0917C25.958 22.3599 26.3215 22.5106 26.7005 22.5106H31.4013C32.6294 22.5147 33.8486 22.7181 35.0116 23.1129C35.1941 22.3103 35.2825 21.4892 35.2748 20.6661C35.2748 17.7409 34.1139 14.9355 32.0475 12.8671C29.9811 10.7987 27.1784 9.63665 24.2561 9.63665H17.1108L30.6868 2.1833C30.9082 2.05873 31.0828 1.86523 31.1843 1.6322C31.2857 1.39916 31.3084 1.13935 31.2488 0.892256C31.1892 0.64516 31.0506 0.424297 30.8542 0.263244C30.6577 0.10219 30.4141 0.00975412 30.1603 -1.10292e-05H10.7553C10.4279 -0.00509204 10.1029 0.0556994 9.79947 0.178756C9.49605 0.301812 9.2204 0.484626 8.98891 0.716348C8.75741 0.948071 8.57477 1.22398 8.45184 1.5277C8.3289 1.83143 8.26817 2.15677 8.27324 2.48444V22.9623C9.2732 22.66 10.3124 22.5078 11.357 22.5106H16.0954Z" fill="#E50054"/>
<path d="M10.7555 31.6955H24.2563C26.7575 31.705 29.187 30.8594 31.1428 29.2987C33.0986 27.738 34.4636 25.5557 35.0118 23.1129C33.8488 22.7181 32.6296 22.5147 31.4015 22.5106H26.7007C26.3217 22.5106 25.9582 22.3599 25.6902 22.0916C25.4222 21.8234 25.2716 21.4595 25.2716 21.0801C25.2716 20.0518 24.8635 19.0656 24.1371 18.3385C23.4107 17.6114 22.4255 17.2029 21.3982 17.2029C20.3708 17.2029 19.3856 17.6114 18.6592 18.3385C17.9328 19.0656 17.5247 20.0518 17.5247 21.0801C17.5247 21.4595 17.3741 21.8234 17.1061 22.0916C16.8381 22.3599 16.4746 22.5106 16.0956 22.5106H11.3572C10.3126 22.5078 9.2734 22.66 8.27344 22.9623V29.2487C8.2734 29.5732 8.33785 29.8945 8.46304 30.1939C8.58823 30.4932 8.77165 30.7646 9.00264 30.9923C9.23362 31.22 9.50755 31.3995 9.80848 31.5202C10.1094 31.6409 10.4313 31.7005 10.7555 31.6955Z" fill="#A90B48"/>
<path d="M75.8901 45.2847V28.4959H83.261V30.905H78.5226V35.1964H80.0645C82.6969 35.1964 84.0132 36.6644 84.0132 39.3371V41.144C84.0132 43.8167 82.6969 45.2847 80.0645 45.2847H75.8901ZM80.0645 42.8756C80.8918 42.8756 81.3807 42.4991 81.3807 41.2946V39.1865C81.3807 37.982 80.8918 37.6055 80.0645 37.6055H78.5226V42.8756H80.0645Z" fill="white"/>
<path d="M86.5327 32.5237C86.5327 29.851 87.9618 28.3076 90.519 28.3076C93.0763 28.3076 94.5429 29.851 94.5429 32.5237V41.2569C94.5429 43.9296 93.1139 45.473 90.519 45.473C87.9242 45.473 86.5327 43.9296 86.5327 41.2569V32.5237ZM89.1652 41.4075C89.1652 42.6121 89.6917 43.0638 90.519 43.0638C91.3464 43.0638 91.9105 42.6121 91.9105 41.4075V32.3731C91.9105 31.1685 91.384 30.7168 90.519 30.7168C89.6541 30.7168 89.1652 31.1685 89.1652 32.3731V41.4075Z" fill="white"/>
<path d="M96.4609 42.9132C97.6644 42.9132 98.0404 42.725 98.078 41.1816L98.4917 28.4959H105.938V45.2847H103.268V30.905H100.974L100.673 41.0311C100.598 44.1178 99.5071 45.3224 96.837 45.3224H96.4609V42.9132Z" fill="white"/>
<path d="M108.909 45.2847V28.4959H111.541V34.8199H112.82C115.452 34.8199 116.731 36.2504 116.731 38.9607V41.144C116.731 43.8167 115.452 45.2847 112.82 45.2847H108.909ZM112.82 42.8756C113.647 42.8756 114.098 42.4991 114.098 41.2946V38.7725C114.098 37.6055 113.647 37.1914 112.82 37.1914H111.541V42.8756H112.82Z" fill="white"/>
<path d="M119.25 45.2847V28.4959H121.883V42.8756H124.177V28.4959H126.809V42.8756H129.066V28.4959H131.736V45.2847H119.25Z" fill="white"/>
<path d="M134.369 32.5237C134.369 29.851 135.798 28.3076 138.355 28.3076C140.912 28.3076 142.379 29.851 142.379 32.5237V41.2569C142.379 43.9296 140.95 45.473 138.355 45.473C135.76 45.473 134.369 43.9296 134.369 41.2569V32.5237ZM137.001 41.4075C137.001 42.6121 137.528 43.0638 138.355 43.0638C139.182 43.0638 139.746 42.6121 139.746 41.4075V32.3731C139.746 31.1685 139.22 30.7168 138.355 30.7168C137.49 30.7168 137.001 31.1685 137.001 32.3731V41.4075Z" fill="white"/>
<path d="M147.719 45.2848H145.011V28.4959H147.38V39.1113L148.321 35.4223L150.502 28.4959H153.398V45.2848H151.028V33.4648L149.938 37.6056L147.719 45.2848ZM150.427 24.7692C150.351 25.635 149.975 25.8609 149.261 25.8609C148.546 25.8609 148.208 25.635 148.133 24.7692H146.478C146.553 26.3879 147.418 27.4419 149.261 27.4419C151.104 27.4419 152.044 26.3879 152.044 24.7692H150.427Z" fill="white"/>
<path d="M168.553 47.5433V45.2847H162.912V47.5433H160.355V42.9132H161.37C161.822 42.3486 161.972 41.7463 162.047 40.7676L162.611 28.4959H170.02V42.9132H171.148V47.5433H168.553ZM164.605 40.6923C164.529 41.9721 164.304 42.5368 163.89 42.9132H167.312V30.905H165.093L164.605 40.6923Z" fill="white"/>
<path d="M176.187 35.5728H179.835V37.982H176.187V42.8756H180.738V45.2847H173.555V28.4959H180.738V30.905H176.187V35.5728Z" fill="white"/>
<path d="M182.58 28.4959H190.703V30.905H187.958V45.2847H185.325V30.905H182.58V28.4959Z" fill="white"/>
<path d="M200.443 39.036V41.2569C200.443 43.9296 199.127 45.473 196.532 45.473C193.937 45.473 192.621 43.9296 192.621 41.2569V32.5237C192.621 29.851 193.937 28.3076 196.532 28.3076C199.127 28.3076 200.443 29.851 200.443 32.5237V34.1423H197.961V32.3731C197.961 31.1685 197.435 30.7168 196.607 30.7168C195.78 30.7168 195.254 31.1685 195.254 32.3731V41.4075C195.254 42.6121 195.78 43.0638 196.607 43.0638C197.435 43.0638 197.961 42.6121 197.961 41.4075V39.036H200.443Z" fill="white"/>
<path d="M206.46 38.5842L205.671 40.1276V45.2847H203V28.4959H205.671V35.7986L209.093 28.4959H211.725L208.077 35.9869L211.725 45.2847H209.018L206.46 38.5842Z" fill="white"/>
<path d="M216.577 45.2847H213.907V28.4959H216.238V39.1113L217.179 35.4222L219.36 28.4959H222.255V45.2847H219.886V33.4648L218.796 37.6055L216.577 45.2847Z" fill="white"/>
<path d="M227.783 45.2848H225.076V28.4959H227.407V39.1113L228.385 35.4223L230.529 28.4959H233.424V45.2848H231.055V33.4648L229.965 37.6056L227.783 45.2848ZM230.491 24.7692C230.416 25.635 230.002 25.8609 229.288 25.8609C228.573 25.8609 228.235 25.635 228.159 24.7692H226.542C226.58 26.3879 227.445 27.4419 229.288 27.4419C231.13 27.4419 232.071 26.3879 232.071 24.7692H230.491Z" fill="white"/>
<path d="M248.542 30.4533C251.288 30.4533 252.416 31.9967 252.416 34.6694V39.2242C252.416 41.8968 251.288 43.4779 248.542 43.4779H247.189V45.2847H246.098V43.4779H244.744C241.999 43.4779 240.908 41.8968 240.908 39.2242V34.6694C240.908 31.9967 241.999 30.4533 244.744 30.4533H246.098V28.4959H247.189V30.4533H248.542ZM244.744 31.432C242.751 31.432 241.961 32.5613 241.961 34.5941V39.2995C241.961 41.3322 242.751 42.4615 244.744 42.4615H246.098V31.432H244.744ZM248.542 42.4615C250.536 42.4615 251.325 41.3322 251.325 39.2995V34.5941C251.325 32.5613 250.573 31.432 248.542 31.432H247.189V42.4615H248.542Z" fill="white"/>
<path d="M260.915 36.2504V37.2667H256.327V44.2684H261.855V45.2847H255.236V28.4959H261.855V29.5122H256.327V36.2504H260.915Z" fill="white"/>
<path d="M271.746 32.599V33.9918H270.693V32.5237C270.693 30.7168 270.016 29.3617 268.173 29.3617C266.33 29.3617 265.616 30.7168 265.616 32.5237V41.2569C265.616 43.0638 266.33 44.3813 268.173 44.3813C270.016 44.3813 270.693 43.0638 270.693 41.2569V39.2619H271.746V41.1817C271.746 43.5908 270.693 45.4353 268.136 45.4353C265.578 45.4353 264.525 43.5908 264.525 41.1817V32.599C264.525 30.1898 265.578 28.3453 268.136 28.3453C270.693 28.3453 271.746 30.1898 271.746 32.599Z" fill="white"/>
<path d="M277.65 45.2847V29.5122H274.228V28.4959H282.163V29.5122H278.74V45.2847H277.65Z" fill="white"/>
<path d="M288.668 37.4926L285.961 45.2847H284.757V28.4959H285.773V42.8756L287.691 37.342L290.925 28.4959H292.241V45.2847H291.226V30.4533L288.668 37.4926Z" fill="white"/>
<path d="M298.597 28.4959C301.116 28.4959 302.019 29.7381 302.019 32.072V33.0507C302.019 34.8576 301.53 35.9869 299.838 36.3257C301.643 36.7021 302.32 38.0572 302.32 39.9394V41.4075C302.32 43.8167 301.229 45.2847 298.672 45.2847H295.062V28.4959H298.597ZM298.032 35.9116C300.026 35.9116 300.928 35.3846 300.928 33.2389V32.1849C300.928 30.4157 300.364 29.5122 298.559 29.5122H296.19V35.9116H298.032ZM298.672 44.2684C300.515 44.2684 301.229 43.252 301.229 41.3698V39.8641C301.229 37.6808 300.251 36.9279 298.258 36.9279H296.19V44.2684H298.672Z" fill="white"/>
<path d="M306.682 41.5581L305.855 45.2847H304.839L308.525 28.4959H310.104L313.865 45.2847H312.737L311.909 41.5581H306.682ZM306.87 40.617H311.759L309.277 29.7381L306.87 40.617Z" fill="white"/>
<path d="M319.807 29.5122L319.393 41.1816C319.28 43.4779 318.904 45.2471 316.422 45.3224H316.234V44.306C318.115 44.306 318.228 42.8756 318.265 41.2193L318.792 28.4959H325.034V45.2847H323.906V29.5122H319.807Z" fill="white"/>
<path d="M331.089 35.4222C333.759 35.4222 335 36.7397 335 39.3748V41.2193C335 43.6661 333.985 45.2847 331.39 45.2847H327.93V28.4959H329.021V35.4222H331.089ZM331.39 44.2684C333.233 44.2684 333.91 43.1014 333.91 41.2946V39.2995C333.91 37.2667 333.045 36.4009 331.089 36.4009H329.021V44.2684H331.39Z" fill="white"/>
<path d="M87.3226 69.0001H87.1346C87.0254 68.9615 86.9308 68.8902 86.8635 68.7959C86.7963 68.7016 86.7596 68.5889 86.7585 68.4731V57.0295H76.3414C76.1918 57.0295 76.0484 56.97 75.9426 56.8642C75.8368 56.7583 75.7773 56.6146 75.7773 56.4649C75.7773 56.3151 75.8368 56.1715 75.9426 56.0656C76.0484 55.9597 76.1918 55.9002 76.3414 55.9002H87.3226C87.4722 55.9002 87.6157 55.9597 87.7215 56.0656C87.8273 56.1715 87.8867 56.3151 87.8867 56.4649V66.8168L96.3482 56.1261C96.4042 56.0598 96.473 56.0056 96.5506 55.9667C96.6282 55.9279 96.7129 55.9053 96.7995 55.9002H119.1C119.25 55.9002 119.393 55.9597 119.499 56.0656C119.605 56.1715 119.664 56.3151 119.664 56.4649C119.664 56.6146 119.605 56.7583 119.499 56.8642C119.393 56.97 119.25 57.0295 119.1 57.0295H97.0627L87.7739 68.7742C87.7195 68.8423 87.6509 68.8978 87.573 68.9368C87.4951 68.9758 87.4097 68.9974 87.3226 69.0001Z" fill="white"/>
</g>
<defs>
<clipPath id="clip0_199_3790">
<rect width="335" height="69" fill="white"/>
</clipPath>
</defs>
</svg>
