<svg width="208" height="41" viewBox="0 0 208 41" fill="none" xmlns="http://www.w3.org/2000/svg">
<path d="M39.8347 25.0517L28.837 10.1326C28.7223 9.98016 28.5715 9.85603 28.3969 9.77041C28.2224 9.68479 28.0291 9.64014 27.8329 9.64014C27.6368 9.64014 27.4435 9.68479 27.2689 9.77041C27.0944 9.85603 26.9436 9.98016 26.8289 10.1326L23.5366 14.6061C24.4768 15.2232 25.2449 16.0513 25.7741 17.0183C26.3032 17.9852 26.5772 19.0615 26.5721 20.1532C26.5659 21.9468 25.8178 23.6649 24.4916 24.9311C23.1655 26.1973 21.3694 26.9083 19.4971 26.9082H38.854C39.0795 26.9093 39.3009 26.8502 39.4933 26.7375C39.6856 26.6248 39.8415 26.463 39.9433 26.2703C40.0451 26.0776 40.0889 25.8615 40.0697 25.6462C40.0505 25.431 39.9692 25.2252 39.8347 25.0517Z" fill="#65B2E4"/>
<path d="M15.8312 25.0519L23.5366 14.6062C22.9908 14.2236 22.3835 13.929 21.7386 13.7339C21.3983 15.1854 20.5508 16.4821 19.3364 17.4095C18.1221 18.3368 16.6136 18.8393 15.0606 18.8337H6.67804C6.47677 18.8366 6.2769 18.8012 6.09006 18.7295C5.90321 18.6578 5.73313 18.5511 5.58971 18.4158C5.4463 18.2805 5.33241 18.1193 5.25468 17.9414C5.17695 17.7635 5.13693 17.5726 5.13696 17.3798V13.6444C3.65694 14.0444 2.35399 14.8969 1.42661 16.0719C0.499221 17.247 -0.00175472 18.6803 4.61806e-06 20.1534C4.61806e-06 21.9449 0.742943 23.6631 2.06538 24.9299C3.38782 26.1967 5.18143 26.9084 7.05164 26.9084H9.99371C10.229 26.9084 10.4547 26.9979 10.6211 27.1573C10.7875 27.3167 10.881 27.5329 10.881 27.7583C10.881 28.3694 11.1344 28.9553 11.5854 29.3874C12.0364 29.8195 12.6482 30.0622 13.286 30.0622C13.9239 30.0622 14.5356 29.8195 14.9866 29.3874C15.4377 28.9553 15.6911 28.3694 15.6911 27.7583C15.6911 27.5329 15.7845 27.3167 15.9509 27.1573C16.1173 26.9979 16.343 26.9084 16.5783 26.9084H16.8352C16.6111 26.9056 16.3921 26.8446 16.2014 26.7318C16.0107 26.6191 15.8555 26.4589 15.7525 26.2683C15.6494 26.0777 15.6023 25.8639 15.6161 25.6497C15.63 25.4354 15.7043 25.2288 15.8312 25.0519Z" fill="#AFCA00"/>
<path d="M26.5726 20.1534C26.5777 19.0616 26.3037 17.9853 25.7746 17.0184C25.2455 16.0514 24.4773 15.2233 23.5371 14.6062L15.8317 25.0518C15.7048 25.2288 15.6305 25.4354 15.6166 25.6496C15.6028 25.8639 15.6499 26.0777 15.753 26.2683C15.856 26.4589 16.0112 26.6191 16.2019 26.7318C16.3926 26.8446 16.6116 26.9056 16.8357 26.9084H19.4976C21.3699 26.9084 23.166 26.1974 24.4921 24.9312C25.8183 23.6651 26.5664 21.9469 26.5726 20.1534Z" fill="#2D7ABF"/>
<path d="M9.99366 13.376C10.1102 13.376 10.2256 13.354 10.3332 13.3113C10.4409 13.2686 10.5387 13.2059 10.6211 13.127C10.7035 13.0481 10.7688 12.9544 10.8134 12.8513C10.858 12.7481 10.8809 12.6376 10.8809 12.526C10.8809 11.915 11.1343 11.329 11.5854 10.8969C12.0364 10.4649 12.6481 10.2221 13.286 10.2221C13.9238 10.2221 14.5356 10.4649 14.9866 10.8969C15.4376 11.329 15.691 11.915 15.691 12.526C15.691 12.7514 15.7845 12.9676 15.9509 13.127C16.1173 13.2864 16.343 13.376 16.5783 13.376H19.497C20.2595 13.3784 21.0165 13.4993 21.7386 13.7339C21.8519 13.257 21.9068 12.769 21.902 12.28C21.902 10.5418 21.1812 8.87486 19.8982 7.6458C18.6152 6.41674 16.875 5.72627 15.0606 5.72627H10.6241L19.0534 1.29749C19.1908 1.22348 19.2993 1.1085 19.3623 0.97003C19.4252 0.831563 19.4393 0.677182 19.4023 0.530359C19.3653 0.383535 19.2793 0.252298 19.1573 0.1566C19.0353 0.0609024 18.884 0.00597722 18.7265 0.000174782H6.67799C6.47474 -0.00284435 6.27293 0.0332779 6.08453 0.106398C5.89613 0.179518 5.72499 0.288145 5.58125 0.425835C5.43752 0.563524 5.32412 0.727469 5.24779 0.907941C5.17146 1.08841 5.13375 1.28173 5.1369 1.47643V13.6444C5.75777 13.4648 6.40302 13.3743 7.05158 13.376H9.99366Z" fill="#E50054"/>
<path d="M6.6778 18.8338H15.0604C16.6134 18.8394 18.1218 18.337 19.3362 17.4096C20.5506 16.4822 21.398 15.1855 21.7384 13.734C21.0163 13.4994 20.2593 13.3785 19.4968 13.3761H16.5781C16.3428 13.3761 16.1171 13.2866 15.9507 13.1272C15.7843 12.9678 15.6908 12.7516 15.6908 12.5261C15.6908 11.9151 15.4374 11.3291 14.9864 10.8971C14.5354 10.465 13.9236 10.2223 13.2858 10.2223C12.6479 10.2223 12.0362 10.465 11.5852 10.8971C11.1342 11.3291 10.8808 11.9151 10.8808 12.5261C10.8808 12.7516 10.7873 12.9678 10.6209 13.1272C10.4545 13.2866 10.2288 13.3761 9.99347 13.3761H7.0514C6.40283 13.3744 5.75759 13.4649 5.13672 13.6445V17.3799C5.13669 17.5727 5.17671 17.7636 5.25444 17.9415C5.33217 18.1194 5.44606 18.2807 5.58948 18.416C5.73289 18.5513 5.90297 18.6579 6.08982 18.7296C6.27666 18.8013 6.47654 18.8368 6.6778 18.8338Z" fill="#A90B48"/>
<path d="M47.1201 26.9084V16.9325H51.6967V18.364H48.7546V20.9139H49.7119C51.3464 20.9139 52.1637 21.7863 52.1637 23.3744V24.448C52.1637 26.0361 51.3464 26.9084 49.7119 26.9084H47.1201ZM49.7119 25.4769C50.2256 25.4769 50.5292 25.2532 50.5292 24.5375V23.2849C50.5292 22.5691 50.2256 22.3454 49.7119 22.3454H48.7546V25.4769H49.7119Z" fill="#181716"/>
<path d="M53.7275 19.3257C53.7275 17.7376 54.6148 16.8206 56.2026 16.8206C57.7904 16.8206 58.701 17.7376 58.701 19.3257V24.515C58.701 26.1031 57.8137 27.0202 56.2026 27.0202C54.5915 27.0202 53.7275 26.1031 53.7275 24.515V19.3257ZM55.362 24.6045C55.362 25.3202 55.6889 25.5886 56.2026 25.5886C56.7163 25.5886 57.0666 25.3202 57.0666 24.6045V19.2363C57.0666 18.5205 56.7397 18.2521 56.2026 18.2521C55.6656 18.2521 55.362 18.5205 55.362 19.2363V24.6045Z" fill="#181716"/>
<path d="M59.8926 25.4993C60.6398 25.4993 60.8733 25.3874 60.8966 24.4704L61.1535 16.9325H65.7767V26.9084H64.1189V18.364H62.6946L62.5078 24.3809C62.4611 26.215 61.7839 26.9308 60.1261 26.9308H59.8926V25.4993Z" fill="#181716"/>
<path d="M67.6211 26.9084V16.9325H69.2556V20.6902H70.0495C71.684 20.6902 72.4778 21.5402 72.4778 23.1507V24.448C72.4778 26.0361 71.684 26.9084 70.0495 26.9084H67.6211ZM70.0495 25.4769C70.5632 25.4769 70.8434 25.2532 70.8434 24.5375V23.0388C70.8434 22.3454 70.5632 22.0994 70.0495 22.0994H69.2556V25.4769H70.0495Z" fill="#181716"/>
<path d="M74.042 26.9084V16.9325H75.6765V25.4769H77.1008V16.9325H78.7353V25.4769H80.1363V16.9325H81.7941V26.9084H74.042Z" fill="#181716"/>
<path d="M83.4277 19.3257C83.4277 17.7376 84.315 16.8206 85.9028 16.8206C87.4906 16.8206 88.4012 17.7376 88.4012 19.3257V24.515C88.4012 26.1031 87.5139 27.0202 85.9028 27.0202C84.2917 27.0202 83.4277 26.1031 83.4277 24.515V19.3257ZM85.0622 24.6045C85.0622 25.3202 85.3891 25.5886 85.9028 25.5886C86.4165 25.5886 86.7668 25.3202 86.7668 24.6045V19.2363C86.7668 18.5205 86.4399 18.2521 85.9028 18.2521C85.3658 18.2521 85.0622 18.5205 85.0622 19.2363V24.6045Z" fill="#181716"/>
<path d="M91.7183 26.9085H90.0371V16.9325H91.5081V23.2402L92.0919 21.0482L93.4462 16.9325H95.2441V26.9085H93.7731V19.885L93.0959 22.3455L91.7183 26.9085ZM93.3995 14.7181C93.3528 15.2326 93.1193 15.3668 92.6756 15.3668C92.232 15.3668 92.0218 15.2326 91.9751 14.7181H90.9477C90.9944 15.6799 91.5315 16.3062 92.6756 16.3062C93.8198 16.3062 94.4035 15.6799 94.4035 14.7181H93.3995Z" fill="#181716"/>
<path d="M104.654 28.2505V26.9084H101.151V28.2505H99.5635V25.4993H100.194C100.474 25.1638 100.568 24.8059 100.614 24.2243L100.964 16.9325H105.564V25.4993H106.265V28.2505H104.654ZM102.202 24.1796C102.155 24.9401 102.015 25.2756 101.758 25.4993H103.883V18.364H102.506L102.202 24.1796Z" fill="#181716"/>
<path d="M109.393 21.1376H111.658V22.5691H109.393V25.4769H112.219V26.9084H107.759V16.9325H112.219V18.364H109.393V21.1376Z" fill="#181716"/>
<path d="M113.363 16.9325H118.407V18.364H116.702V26.9084H115.068V18.364H113.363V16.9325Z" fill="#181716"/>
<path d="M124.454 23.1953V24.515C124.454 26.1031 123.637 27.0202 122.026 27.0202C120.415 27.0202 119.598 26.1031 119.598 24.515V19.3257C119.598 17.7376 120.415 16.8206 122.026 16.8206C123.637 16.8206 124.454 17.7376 124.454 19.3257V20.2875H122.913V19.2363C122.913 18.5205 122.586 18.2521 122.073 18.2521C121.559 18.2521 121.232 18.5205 121.232 19.2363V24.6045C121.232 25.3202 121.559 25.5886 122.073 25.5886C122.586 25.5886 122.913 25.3202 122.913 24.6045V23.1953H124.454Z" fill="#181716"/>
<path d="M128.19 22.927L127.7 23.8441V26.9084H126.042V16.9325H127.7V21.2718L129.825 16.9325H131.459L129.194 21.3836L131.459 26.9084H129.778L128.19 22.927Z" fill="#181716"/>
<path d="M134.471 26.9084H132.813V16.9325H134.261V23.2401L134.845 21.0481L136.199 16.9325H137.997V26.9084H136.526V19.885L135.849 22.3454L134.471 26.9084Z" fill="#181716"/>
<path d="M141.43 26.9085H139.749V16.9325H141.197V23.2402L141.804 21.0482L143.135 16.9325H144.933V26.9085H143.462V19.885L142.784 22.3455L141.43 26.9085ZM143.111 14.7181C143.065 15.2326 142.808 15.3668 142.364 15.3668C141.921 15.3668 141.71 15.2326 141.664 14.7181H140.66C140.683 15.6799 141.22 16.3062 142.364 16.3062C143.508 16.3062 144.092 15.6799 144.092 14.7181H143.111Z" fill="#181716"/>
<path d="M154.319 18.0956C156.024 18.0956 156.724 19.0127 156.724 20.6008V23.3072C156.724 24.8953 156.024 25.8348 154.319 25.8348H153.479V26.9084H152.801V25.8348H151.961C150.256 25.8348 149.579 24.8953 149.579 23.3072V20.6008C149.579 19.0127 150.256 18.0956 151.961 18.0956H152.801V16.9325H153.479V18.0956H154.319ZM151.961 18.6772C150.723 18.6772 150.233 19.3482 150.233 20.556V23.352C150.233 24.5598 150.723 25.2309 151.961 25.2309H152.801V18.6772H151.961ZM154.319 25.2309C155.557 25.2309 156.047 24.5598 156.047 23.352V20.556C156.047 19.3482 155.58 18.6772 154.319 18.6772H153.479V25.2309H154.319Z" fill="#181716"/>
<path d="M162.001 21.5402V22.1441H159.153V26.3045H162.585V26.9084H158.476V16.9325H162.585V17.5364H159.153V21.5402H162.001Z" fill="#181716"/>
<path d="M168.726 19.3706V20.1982H168.073V19.3258C168.073 18.2522 167.652 17.4469 166.508 17.4469C165.364 17.4469 164.92 18.2522 164.92 19.3258V24.5151C164.92 25.5887 165.364 26.3716 166.508 26.3716C167.652 26.3716 168.073 25.5887 168.073 24.5151V23.3296H168.726V24.4704C168.726 25.9019 168.073 26.9979 166.485 26.9979C164.897 26.9979 164.243 25.9019 164.243 24.4704V19.3706C164.243 17.939 164.897 16.843 166.485 16.843C168.073 16.843 168.726 17.939 168.726 19.3706Z" fill="#181716"/>
<path d="M172.391 26.9084V17.5364H170.267V16.9325H175.193V17.5364H173.069V26.9084H172.391Z" fill="#181716"/>
<path d="M179.234 22.2783L177.553 26.9084H176.806V16.9325H177.436V25.4769L178.627 22.1889L180.635 16.9325H181.452V26.9084H180.822V18.0956L179.234 22.2783Z" fill="#181716"/>
<path d="M185.397 16.9325C186.961 16.9325 187.522 17.6706 187.522 19.0574V19.639C187.522 20.7126 187.218 21.3836 186.168 21.5849C187.288 21.8086 187.709 22.6139 187.709 23.7322V24.6046C187.709 26.0361 187.032 26.9084 185.444 26.9084H183.202V16.9325H185.397ZM185.047 21.3389C186.284 21.3389 186.845 21.0258 186.845 19.7508V19.1245C186.845 18.0732 186.494 17.5364 185.374 17.5364H183.903V21.3389H185.047ZM185.444 26.3045C186.588 26.3045 187.032 25.7006 187.032 24.5822V23.6875C187.032 22.3902 186.424 21.9428 185.187 21.9428H183.903V26.3045H185.444Z" fill="#181716"/>
<path d="M190.418 24.694L189.904 26.9084H189.273L191.562 16.9325H192.542L194.877 26.9084H194.177L193.663 24.694H190.418ZM190.534 24.1348H193.57L192.029 17.6706L190.534 24.1348Z" fill="#181716"/>
<path d="M198.566 17.5364L198.309 24.4704C198.239 25.8348 198.005 26.8861 196.464 26.9308H196.348V26.3269C197.515 26.3269 197.585 25.4769 197.609 24.4927L197.935 16.9325H201.811V26.9084H201.111V17.5364H198.566Z" fill="#181716"/>
<path d="M205.572 21.0481C207.23 21.0481 208 21.831 208 23.3967V24.4927C208 25.9466 207.37 26.9084 205.759 26.9084H203.61V16.9325H204.288V21.0481H205.572ZM205.759 26.3045C206.903 26.3045 207.323 25.6111 207.323 24.5375V23.352C207.323 22.1441 206.786 21.6297 205.572 21.6297H204.288V26.3045H205.759Z" fill="#181716"/>
<path d="M54.2172 41H54.1005C54.0327 40.977 53.974 40.9347 53.9322 40.8787C53.8904 40.8226 53.8676 40.7557 53.867 40.6868V33.8871H47.3991C47.3062 33.8871 47.2171 33.8517 47.1514 33.7888C47.0857 33.7259 47.0488 33.6406 47.0488 33.5516C47.0488 33.4626 47.0857 33.3773 47.1514 33.3143C47.2171 33.2514 47.3062 33.2161 47.3991 33.2161H54.2172C54.3101 33.2161 54.3992 33.2514 54.4649 33.3143C54.5306 33.3773 54.5675 33.4626 54.5675 33.5516V39.7027L59.8212 33.3503C59.8559 33.3109 59.8987 33.2786 59.9469 33.2556C59.995 33.2325 60.0476 33.2191 60.1014 33.2161H73.9478C74.0407 33.2161 74.1298 33.2514 74.1954 33.3143C74.2611 33.3773 74.298 33.4626 74.298 33.5516C74.298 33.6406 74.2611 33.7259 74.1954 33.7888C74.1298 33.8517 74.0407 33.8871 73.9478 33.8871H60.2648L54.4974 40.8658C54.4636 40.9062 54.4211 40.9392 54.3727 40.9624C54.3243 40.9855 54.2713 40.9984 54.2172 41Z" fill="#181716"/>
</svg>
