<svg width="117" height="160" viewBox="0 0 117 160" fill="none" xmlns="http://www.w3.org/2000/svg">
<path d="M50.6239 105.395V92.4061H56.2425V94.27H52.6305V97.5899H53.8058C55.8125 97.5899 56.8445 98.7257 56.8445 100.793V102.191C56.8445 104.259 55.8125 105.395 53.8058 105.395H50.6239ZM53.8058 103.56C54.4365 103.56 54.8378 103.269 54.8378 102.337V100.677C54.8378 99.745 54.4652 99.4538 53.8058 99.4538H52.6305V103.56H53.8058Z" fill="black"/>
<path d="M58.7364 95.5513C58.7364 93.4836 59.8257 92.2896 61.775 92.2896C63.7243 92.2896 64.8136 93.4836 64.8136 95.5513V102.308C64.8136 104.376 63.7243 105.57 61.775 105.57C59.8257 105.57 58.7364 104.376 58.7364 102.308V95.5513ZM60.743 102.424C60.743 103.356 61.1444 103.706 61.775 103.706C62.4057 103.706 62.807 103.356 62.807 102.424V95.4057C62.807 94.4738 62.4057 94.1243 61.775 94.1243C61.1444 94.1243 60.743 94.4738 60.743 95.4057V102.424Z" fill="black"/>
<path d="M66.3043 103.56C67.2216 103.56 67.5083 103.444 67.5369 102.22L67.8523 92.4061H73.5282V105.395H71.4929V94.27H69.7442L69.5149 102.104C69.4289 104.492 68.5976 105.395 66.591 105.395H66.2756V103.56H66.3043Z" fill="black"/>
<path d="M75.8215 105.395V92.4061H77.8281V97.2696H78.7741C80.7807 97.2696 81.7554 98.4054 81.7554 100.473V102.162C81.7554 104.23 80.7807 105.366 78.7741 105.366H75.8215V105.395ZM78.7741 103.56C79.4047 103.56 79.7487 103.269 79.7487 102.337V100.386C79.7487 99.4538 79.4047 99.1626 78.7741 99.1626H77.8281V103.56H78.7741Z" fill="black"/>
<path d="M83.7047 105.395V92.4352H85.7113V103.56H87.4313V92.4352H89.4379V103.56H91.1865V92.4352H93.1932V105.395H83.7047Z" fill="black"/>
<path d="M95.1998 95.5513C95.1998 93.4836 96.2891 92.2896 98.2384 92.2896C100.216 92.2896 101.277 93.4836 101.277 95.5513V102.308C101.277 104.376 100.188 105.57 98.2384 105.57C96.2604 105.57 95.1998 104.376 95.1998 102.308V95.5513ZM97.2064 102.424C97.2064 103.356 97.6078 103.706 98.2384 103.706C98.8691 103.706 99.2704 103.356 99.2704 102.424V95.4057C99.2704 94.4738 98.8691 94.1243 98.2384 94.1243C97.6078 94.1243 97.2064 94.4738 97.2064 95.4057V102.424Z" fill="black"/>
<path d="M105.405 105.395H103.341V92.4061H105.118V100.619L105.835 97.7647L107.469 92.4061H109.676V105.395H107.87V96.2503L107.039 99.4538L105.405 105.395ZM107.469 89.5229C107.412 90.2219 107.096 90.3675 106.552 90.3675C106.036 90.3675 105.749 90.1928 105.692 89.5229H104.459C104.488 90.7752 105.147 91.5907 106.552 91.5907C107.985 91.5907 108.702 90.8043 108.702 89.5229H107.469Z" fill="black"/>
<path d="M55.9558 127.237V125.344H51.2832V127.237H49.1619V123.364H50.0219C50.3946 122.868 50.5092 122.344 50.5666 121.529L51.0539 111.219H57.1598V123.364H58.1058V127.237H55.9558ZM52.7165 121.5C52.6592 122.577 52.4585 123.043 52.1145 123.364H54.9812V113.258H53.1465L52.7165 121.5Z" fill="black"/>
<path d="M62.3197 117.19H65.301V119.199H62.3197V123.334H66.075V125.344H60.1124V111.248H66.075V113.258H62.3197V117.19Z" fill="black"/>
<path d="M67.5943 111.248H74.3308V113.258H72.0375V125.344H69.8589V113.258H67.5943V111.248Z" fill="black"/>
<path d="M82.4147 120.073V121.937C82.4147 124.208 81.2967 125.489 79.1754 125.489C77.0254 125.489 75.9361 124.208 75.9361 121.937V114.598C75.9361 112.326 77.0541 111.045 79.1754 111.045C81.3254 111.045 82.4147 112.326 82.4147 114.598V115.966H80.3507V114.452C80.3507 113.433 79.9207 113.054 79.2327 113.054C78.5447 113.054 78.1148 113.433 78.1148 114.452V122.111C78.1148 123.131 78.5447 123.48 79.2327 123.48C79.9207 123.48 80.3507 123.131 80.3507 122.111V120.073H82.4147Z" fill="black"/>
<path d="M87.3739 119.723L86.7146 121.005V125.344H84.536V111.248H86.7146V117.393L89.5526 111.248H91.7312L88.7212 117.539L91.7312 125.344H89.4952L87.3739 119.723Z" fill="black"/>
<path d="M95.7731 125.344H93.5372V111.248H95.4865V120.16L96.2604 117.073L98.0664 111.248H100.446V125.344H98.4964V115.413L97.6077 118.879L95.7731 125.344Z" fill="black"/>
<path d="M105.032 125.344H102.796V111.248H104.746V120.189L105.548 117.073L107.326 111.248H109.734V125.344H107.756V115.413L106.867 118.879L105.032 125.344ZM107.268 108.103C107.211 108.86 106.867 109.035 106.265 109.035C105.692 109.035 105.405 108.86 105.319 108.103H103.972C104 109.472 104.717 110.346 106.265 110.346C107.813 110.346 108.587 109.472 108.587 108.103H107.268Z" fill="black"/>
<path d="M54.1785 132.537C55.9558 132.537 56.7011 133.556 56.7011 135.333V138.362C56.7011 140.138 55.9558 141.157 54.1785 141.157H53.2898V142.352H52.5732V141.157H51.6845C49.8786 141.157 49.1619 140.138 49.1619 138.362V135.333C49.1619 133.556 49.8786 132.537 51.6845 132.537H52.5732V131.256H53.2898V132.537H54.1785ZM51.7132 133.178C50.3946 133.178 49.9072 133.935 49.9072 135.275V138.42C49.9072 139.76 50.3946 140.517 51.7132 140.517H52.6019V133.178H51.7132ZM54.1785 140.517C55.4685 140.517 55.9845 139.76 55.9845 138.42V135.275C55.9845 133.935 55.4971 133.178 54.1785 133.178H53.2898V140.517H54.1785Z" fill="black"/>
<path d="M62.2624 136.41V137.08H59.2811V141.711H62.8644V142.381H58.5644V131.256H62.8644V131.926H59.2811V136.41H62.2624Z" fill="black"/>
<path d="M69.3429 133.964V134.896H68.6549V133.935C68.6549 132.741 68.1963 131.838 66.9923 131.838C65.7883 131.838 65.3296 132.741 65.3296 133.935V139.73C65.3296 140.925 65.7883 141.827 66.9923 141.827C68.1963 141.827 68.6549 140.925 68.6549 139.73V138.42H69.3429V139.701C69.3429 141.303 68.6549 142.526 66.9923 142.526C65.3297 142.526 64.6417 141.332 64.6417 139.701V134.022C64.6417 132.421 65.3297 131.198 66.9923 131.198C68.6549 131.168 69.3429 132.362 69.3429 133.964Z" fill="black"/>
<path d="M73.1842 142.381V131.926H70.9482V131.256H76.1655V131.926H73.9295V142.381H73.1842Z" fill="black"/>
<path d="M80.4367 137.139L78.6307 142.381H77.8568V131.256H78.4874V140.779L80.0927 136.236L81.87 131.256H82.73V142.381H82.0707V132.537L80.4367 137.139Z" fill="black"/>
<path d="M86.8866 131.256C88.5206 131.256 89.1226 132.071 89.1226 133.615V134.255C89.1226 135.449 88.8072 136.207 87.6893 136.44C88.8646 136.673 89.3232 137.575 89.3232 138.828V139.789C89.3232 141.39 88.6066 142.352 86.9153 142.352H84.5646V131.227H86.8866V131.256ZM86.5139 136.148C87.8039 136.148 88.3772 135.799 88.3772 134.372V133.644C88.3772 132.479 88.0046 131.867 86.8579 131.867H85.2813V136.119H86.5139V136.148ZM86.9439 141.711C88.1479 141.711 88.6066 141.041 88.6066 139.789V138.799C88.6066 137.342 87.9759 136.847 86.6573 136.847H85.31V141.74H86.9439V141.711Z" fill="black"/>
<path d="M92.1612 139.905L91.6165 142.381H90.9572L93.3652 131.227H94.4258L96.8624 142.381H96.1458L95.6011 139.905H92.1612ZM92.2758 139.265H95.4578L93.8525 132.071L92.2758 139.265Z" fill="black"/>
<path d="M100.761 131.926L100.474 139.672C100.417 141.187 100.159 142.381 98.5537 142.41H98.4104V141.74C99.6431 141.74 99.729 140.808 99.7577 139.701L100.073 131.285H104.144V142.41H103.398V131.955H100.761V131.926Z" fill="black"/>
<path d="M108.128 135.828C109.877 135.828 110.68 136.702 110.68 138.478V139.672C110.68 141.303 110.02 142.381 108.329 142.381H106.064V131.256H106.781V135.828H108.128ZM108.3 141.711C109.533 141.711 109.934 140.924 109.934 139.73V138.42C109.934 137.08 109.361 136.498 108.1 136.498H106.752V141.711H108.3Z" fill="black"/>
<path d="M59.2811 160C59.2237 160 59.1951 160 59.1378 159.971C58.9658 159.912 58.8511 159.738 58.8511 159.563V150.768H50.9106C50.6812 150.768 50.4806 150.564 50.4806 150.331C50.4806 150.098 50.6812 149.894 50.9106 149.894H59.2811C59.5104 149.894 59.7111 150.098 59.7111 150.331V158.311L66.161 150.069C66.247 149.953 66.3616 149.894 66.505 149.894H83.504C83.7333 149.894 83.934 150.098 83.934 150.331C83.934 150.564 83.7333 150.768 83.504 150.768H66.7056L59.6251 159.854C59.5391 159.942 59.3957 160 59.2811 160Z" fill="black"/>
<path d="M116.326 77.6118L84.2202 31.4232C82.7869 29.3846 79.8056 29.3846 78.3723 31.4232L68.7405 45.2565C74.0724 49.0425 77.5696 55.3038 77.5696 62.4389C77.5696 74.0006 68.3391 83.3781 56.9587 83.3781H113.431C116.326 83.349 118.018 80.029 116.326 77.6118Z" fill="#65B2E4"/>
<path d="M46.2385 77.6118L68.7415 45.2565C67.1362 44.1207 65.3589 43.2179 63.4669 42.5481C61.4603 51.6052 53.4911 58.3617 43.9739 58.3617H19.4643C16.999 58.3617 14.9924 56.3231 14.9924 53.8185V42.2568C6.33522 44.7323 0 52.8284 0 62.4097C0 73.9714 9.2305 83.349 20.611 83.349H29.1535C30.5868 83.349 31.7621 84.543 31.7621 85.9991C31.7621 89.9307 34.8867 93.1051 38.7567 93.1051C42.6266 93.1051 45.7512 89.9307 45.7512 85.9991C45.7512 84.543 46.9265 83.349 48.3598 83.349H49.1338C46.2672 83.349 44.5472 80.029 46.2385 77.6118Z" fill="#A2C510"/>
<path d="M77.5698 62.4099C77.5698 55.304 74.0725 49.0135 68.7406 45.2275L46.2377 77.612C44.575 80.0292 46.2663 83.3491 49.1616 83.3491H56.9588C68.3393 83.3491 77.5698 73.9716 77.5698 62.4099Z" fill="#2D7ABF"/>
<path d="M29.1544 41.4707C30.5878 41.4707 31.7631 40.2767 31.7631 38.8205C31.7631 34.889 34.8877 31.7146 38.7576 31.7146C42.6275 31.7146 45.7521 34.889 45.7521 38.8205C45.7521 40.2767 46.9275 41.4707 48.3608 41.4707H56.9033C59.1966 41.4707 61.3752 41.8493 63.4105 42.5482C63.7258 41.0921 63.8978 39.6069 63.8978 38.0342C63.8978 26.822 54.954 17.7066 43.8888 17.7066H30.9031L55.5846 3.98981C57.4766 2.94139 56.7313 0 54.5813 0H19.4653C17 0 14.9933 2.03859 14.9933 4.54314V17.7066V31.9185V42.257C16.7706 41.7328 18.6626 41.4707 20.6119 41.4707H29.1544Z" fill="#E50054"/>
<path d="M19.4641 58.3619H43.9736C53.4908 58.3619 61.46 51.6054 63.4666 42.5482C61.4313 41.8493 59.2241 41.4707 56.9594 41.4707H48.3882C46.9549 41.4707 45.7796 40.2767 45.7796 38.8205C45.7796 34.889 42.655 31.7146 38.7851 31.7146C34.9151 31.7146 31.7905 34.889 31.7905 38.8205C31.7905 40.2767 30.6152 41.4707 29.1819 41.4707H20.6394C18.6901 41.4707 16.8268 41.7619 15.0208 42.257V53.8187C14.9921 56.3524 16.9988 58.3619 19.4641 58.3619Z" fill="#A60D48"/>
</svg>
