<svg width="95" height="77" viewBox="0 0 95 77" fill="none" xmlns="http://www.w3.org/2000/svg">
<g clip-path="url(#clip0_423_4324)">
<path d="M64.7642 42.6374L46.8779 17.2535C46.6959 16.9894 46.4528 16.7736 46.1693 16.6245C45.8858 16.4754 45.5705 16.3975 45.2505 16.3975C44.9304 16.3975 44.6151 16.4754 44.3316 16.6245C44.0482 16.7736 43.805 16.9894 43.623 17.2535L38.2619 24.8559C39.7787 25.9126 41.018 27.322 41.8738 28.9637C42.7296 30.6053 43.1765 32.4303 43.1762 34.2828C43.1762 37.3348 41.9676 40.2618 39.8161 42.4199C37.6647 44.578 34.7467 45.7904 31.7041 45.7904H63.1368C63.5019 45.7899 63.8598 45.6888 64.1716 45.4983C64.4834 45.3077 64.7371 45.0349 64.905 44.7097C65.0729 44.3844 65.1485 44.0192 65.1237 43.6538C65.0989 43.2884 64.9745 42.9368 64.7642 42.6374Z" fill="#65B2E4"/>
<path d="M25.7365 42.6373L38.2617 24.8558C37.3646 24.2217 36.3812 23.7204 35.3418 23.3673C34.7784 25.8356 33.397 28.0392 31.4232 29.6178C29.4495 31.1964 27.0003 32.0567 24.476 32.058H10.8498C10.5216 32.0601 10.1962 31.9971 9.89242 31.8726C9.58858 31.7481 9.3123 31.5645 9.07948 31.3324C8.84665 31.1004 8.66188 30.8244 8.53579 30.5204C8.40971 30.2165 8.3448 29.8905 8.34481 29.5613V23.2073C5.94279 23.8927 3.82885 25.3445 2.3231 27.343C0.817356 29.3415 0.00182146 31.7777 0 34.2827H0C0 35.7939 0.296735 37.2903 0.873263 38.6865C1.44979 40.0827 2.29482 41.3512 3.36011 42.4198C5.51155 44.5779 8.42952 45.7903 11.4721 45.7903H16.2269C16.6162 45.7903 16.9896 45.9454 17.2649 46.2216C17.5402 46.4977 17.6948 46.8723 17.6948 47.2628C17.6948 48.2985 18.105 49.2918 18.8351 50.0242C19.5652 50.7565 20.5555 51.168 21.588 51.168C22.6205 51.168 23.6108 50.7565 24.3409 50.0242C25.071 49.2918 25.4812 48.2985 25.4812 47.2628C25.4812 46.8723 25.6358 46.4977 25.9111 46.2216C26.1864 45.9454 26.5598 45.7903 26.9491 45.7903H27.364C26.9988 45.7898 26.6409 45.6887 26.3291 45.4981C26.0173 45.3076 25.7636 45.0348 25.5957 44.7096C25.4278 44.3843 25.3522 44.0191 25.377 43.6537C25.4018 43.2883 25.5262 42.9367 25.7365 42.6373Z" fill="#A2C510"/>
<path d="M43.1757 34.2826C43.1759 32.4301 42.7291 30.6051 41.8733 28.9635C41.0175 27.3218 39.7782 25.9125 38.2614 24.8557L25.7362 42.6373C25.5259 42.9366 25.4015 43.2882 25.3767 43.6536C25.3519 44.019 25.4275 44.3842 25.5954 44.7095C25.7633 45.0347 26.0169 45.3075 26.3287 45.4981C26.6405 45.6886 26.9985 45.7897 27.3636 45.7902H31.7036C33.2101 45.7902 34.7019 45.4926 36.0938 44.9143C37.4856 44.336 38.7503 43.4883 39.8156 42.4197C40.8809 41.3512 41.7259 40.0826 42.3024 38.6864C42.879 37.2902 43.1757 35.7938 43.1757 34.2826Z" fill="#2D7ABF"/>
<path d="M16.2268 22.7751C16.6134 22.7752 16.9844 22.6222 17.2592 22.3496C17.534 22.0769 17.6905 21.7064 17.6947 21.3187C17.6947 20.283 18.1049 19.2897 18.835 18.5573C19.5651 17.8249 20.5554 17.4135 21.5879 17.4135C22.0992 17.4135 22.6054 17.5145 23.0778 17.7107C23.5501 17.907 23.9793 18.1947 24.3408 18.5573C24.7023 18.9199 24.9891 19.3504 25.1848 19.8242C25.3804 20.298 25.4811 20.8059 25.4811 21.3187C25.4853 21.7064 25.6418 22.0769 25.9167 22.3496C26.1915 22.6222 26.5625 22.7752 26.949 22.7751H31.7038C32.9404 22.774 34.1689 22.974 35.3417 23.3673C35.522 22.5582 35.613 21.7316 35.6129 20.9026C35.615 19.4349 35.3284 17.9813 34.7695 16.6249C34.2105 15.2686 33.3903 14.0362 32.3557 12.9984C31.3211 11.9606 30.0925 11.1378 28.7403 10.5772C27.3882 10.0165 25.939 9.72898 24.4759 9.73108H17.248L30.9858 2.19273C32.0389 1.61655 31.624 5.13029e-05 30.4274 5.13029e-05H10.8498C10.5216 -0.00205916 10.1962 0.0609642 9.89233 0.185494C9.5885 0.310023 9.31222 0.4936 9.07939 0.725658C8.84657 0.957716 8.6618 1.23367 8.53571 1.53764C8.40963 1.84161 8.34472 2.1676 8.34473 2.49683V23.2073C9.36349 22.925 10.4151 22.7797 11.472 22.7751H16.2268Z" fill="#E50054"/>
<path d="M10.8498 32.0581H24.4759C27.0002 32.0568 29.4494 31.1965 31.4232 29.6179C33.3969 28.0393 34.7783 25.8357 35.3417 23.3674C34.1689 22.9741 32.9404 22.7741 31.7038 22.7752H26.949C26.5625 22.7753 26.1915 22.6223 25.9167 22.3496C25.6418 22.077 25.4853 21.7065 25.4811 21.3188C25.4811 20.8059 25.3804 20.2981 25.1848 19.8243C24.9891 19.3505 24.7023 18.92 24.3408 18.5574C23.9793 18.1948 23.5501 17.9071 23.0778 17.7108C22.6054 17.5146 22.0992 17.4136 21.5879 17.4136C20.5554 17.4136 19.5651 17.825 18.835 18.5574C18.1049 19.2898 17.6947 20.2831 17.6947 21.3188C17.6905 21.7065 17.534 22.077 17.2592 22.3496C16.9844 22.6223 16.6134 22.7753 16.2268 22.7752H11.472C10.4151 22.7798 9.36349 22.9251 8.34473 23.2074V29.5614C8.34472 29.8906 8.40963 30.2166 8.53571 30.5205C8.6618 30.8245 8.84657 31.1005 9.07939 31.3325C9.31222 31.5646 9.5885 31.7482 9.89233 31.8727C10.1962 31.9972 10.5216 32.0602 10.8498 32.0581Z" fill="#A60D48"/>
<path d="M28.1455 57.938V50.7998H31.2728V51.8241H29.2624V53.6327H29.9166C31.0335 53.6327 31.6079 54.2569 31.6079 55.4092V56.1615C31.6079 57.3138 31.0335 57.938 29.9166 57.938H28.1455ZM29.9166 56.9137C30.2676 56.9137 30.491 56.7537 30.491 56.2415V55.3292C30.491 54.8171 30.2676 54.657 29.9166 54.657H29.2624V56.9137H29.9166Z" fill="#181716"/>
<path d="M32.6768 52.5125C32.6768 51.3602 33.2671 50.72 34.3681 50.72C35.469 50.72 36.0594 51.3602 36.0594 52.5125V56.2257C36.0594 57.362 35.469 58.0182 34.3681 58.0182C33.2671 58.0182 32.6768 57.362 32.6768 56.2257V52.5125ZM33.7937 56.2897C33.7937 56.8019 34.017 56.9939 34.3681 56.9939C34.7191 56.9939 34.9425 56.8019 34.9425 56.2897V52.4325C34.9425 51.9364 34.7191 51.7283 34.3681 51.7283C34.017 51.7283 33.7937 51.9364 33.7937 52.4325V56.2897Z" fill="#181716"/>
<path d="M36.873 56.9297C37.3836 56.9297 37.5432 56.8497 37.5751 56.1935L37.7506 50.7998H40.9098V57.938H39.777V51.8241H38.8037L38.676 56.1295C38.6282 57.4259 38.1655 57.938 37.0486 57.938H36.873V56.9297Z" fill="#181716"/>
<path d="M42.1709 57.938V50.7998H43.2878V53.4726H43.8143C44.9312 53.4726 45.4897 54.0968 45.4897 55.2332V56.1615C45.4897 57.3138 44.9312 57.938 43.8143 57.938H42.1709ZM43.8143 56.9137C44.1654 56.9137 44.3568 56.7537 44.3568 56.2415V55.1692C44.3568 54.657 44.1654 54.497 43.8143 54.497H43.2878V56.9137H43.8143Z" fill="#181716"/>
<path d="M46.5586 57.938V50.7998H47.6755V56.9137H48.6488V50.7998H49.7657V56.9137H50.723V50.7998H51.8399V57.938H46.5586Z" fill="#181716"/>
<path d="M52.9727 52.5125C52.9727 51.3602 53.563 50.72 54.664 50.72C55.7649 50.72 56.3553 51.3602 56.3553 52.5125V56.2257C56.3553 57.362 55.7649 58.0182 54.664 58.0182C53.563 58.0182 52.9727 57.362 52.9727 56.2257V52.5125ZM54.0896 56.2897C54.0896 56.8019 54.3129 56.9939 54.664 56.9939C55.015 56.9939 55.2384 56.8019 55.2384 56.2897V52.4325C55.2384 51.9364 55.015 51.7283 54.664 51.7283C54.3129 51.7283 54.0896 51.9364 54.0896 52.4325V56.2897Z" fill="#181716"/>
<path d="M58.6371 57.9382H57.4883V50.8H58.4775V55.3134L58.8924 53.7449L59.8019 50.8H61.0304V57.9382H60.0252V52.9126L59.5785 54.6572L58.6371 57.9382ZM59.7859 49.1995C59.754 49.5836 59.5785 49.6796 59.2753 49.6796C58.9722 49.6796 58.8286 49.5836 58.7966 49.1995H58.1106C58.1265 49.9037 58.4935 50.3358 59.2753 50.3358C60.0571 50.3358 60.472 49.9037 60.472 49.1995H59.7859Z" fill="#181716"/>
<path d="M67.4608 58.8823V57.938H65.0834V58.8823H63.9824V56.9297H64.4292C64.6206 56.6896 64.6845 56.4176 64.7004 56.0014L64.9557 50.7998H68.083V56.9297H68.5777V58.8823H67.4608ZM65.8014 55.9854C65.7695 56.5296 65.6737 56.7537 65.4823 56.9297H66.9502V51.8241H66.0088L65.8014 55.9854Z" fill="#181716"/>
<path d="M70.7155 53.8087H72.2473V54.8171H70.7155V56.9137H72.6462V57.938H69.5986V50.7998H72.6462V51.8241H70.7155V53.8087Z" fill="#181716"/>
<path d="M73.4121 50.7998H76.8745V51.8241H75.7097V57.938H74.5928V51.8241H73.4121V50.7998Z" fill="#181716"/>
<path d="M81.0066 55.2654V56.2257C81.0066 57.362 80.4322 58.0182 79.3472 58.0182C78.2622 58.0182 77.6719 57.362 77.6719 56.2257V52.5125C77.6719 51.3602 78.2463 50.72 79.3472 50.72C80.4482 50.72 81.0066 51.3602 81.0066 52.5125V53.2007H79.9535V52.4325C79.9535 51.9364 79.7302 51.7283 79.3632 51.7283C78.9962 51.7283 78.7888 51.9364 78.7888 52.4325V56.2897C78.7888 56.8019 79.0122 56.9779 79.3632 56.9779C79.7142 56.9779 79.9535 56.8019 79.9535 56.2897V55.2654H81.0066Z" fill="#181716"/>
<path d="M83.5597 55.0891L83.2087 55.7453V57.938H82.0918V50.7998H83.2087V53.9048L84.6766 50.7998H85.7935L84.2299 53.9688L85.7935 57.938H84.6447L83.5597 55.0891Z" fill="#181716"/>
<path d="M87.8519 57.938H86.7031V50.7998H87.6924V55.3132L88.1072 53.7447L89.0167 50.7998H90.2453V57.938H89.2401V52.9125L88.7933 54.657L87.8519 57.938Z" fill="#181716"/>
<path d="M92.5902 57.9382H91.4414V50.8H92.4466V55.3134L92.8455 53.7449L93.7709 50.8H94.9995V57.9382H93.9943V52.9126L93.5316 54.6572L92.5902 57.9382ZM93.739 49.1995C93.7071 49.5836 93.5476 49.6796 93.2284 49.6796C92.9093 49.6796 92.7817 49.5836 92.7657 49.1995H92.0637C92.0956 49.9037 92.4466 50.3358 93.2284 50.3358C94.0103 50.3358 94.4251 49.9037 94.4251 49.1995H93.739Z" fill="#181716"/>
<path d="M30.539 61.8754C31.5442 61.8754 31.9431 62.4355 31.9431 63.4118V65.0764C31.9431 66.0527 31.5442 66.6128 30.539 66.6128H30.0444V67.285H29.6614V66.6128H29.1668C28.1616 66.6128 27.7627 66.0527 27.7627 65.0764V63.4118C27.7627 62.4355 28.1616 61.8754 29.1668 61.8754H29.6614V61.1711H30.0444V61.8754H30.539ZM29.1668 62.2275C28.4328 62.2275 28.1456 62.6436 28.1456 63.3798V65.1084C28.1456 65.8446 28.4328 66.2607 29.1668 66.2607H29.6614V62.2275H29.1668ZM30.539 66.2607C31.2729 66.2607 31.5601 65.8446 31.5601 65.1084V63.3798C31.5601 62.6436 31.2729 62.2275 30.539 62.2275H30.0444V66.2607H30.539Z" fill="#181716"/>
<path d="M35.0388 63.988V64.3561H33.3794V66.9169H35.3738V67.285H32.9805V61.1711H35.3738V61.5393H33.3794V63.988H35.0388Z" fill="#181716"/>
<path d="M38.9794 62.6597V63.1718H38.5964V62.6277C38.5964 61.9714 38.3411 61.4753 37.671 61.4753C37.0009 61.4753 36.7615 61.9714 36.7615 62.6277V65.8126C36.7615 66.4689 37.0009 66.949 37.671 66.949C38.3411 66.949 38.5964 66.4689 38.5964 65.8126V65.0924H38.9794V65.7806C38.9794 66.6609 38.5964 67.3331 37.671 67.3331C36.7456 67.3331 36.3467 66.6609 36.3467 65.7806V62.6597C36.3467 61.7794 36.7296 61.1072 37.671 61.1072C38.6124 61.1072 38.9794 61.7794 38.9794 62.6597Z" fill="#181716"/>
<path d="M41.1335 67.285V61.5393H39.873V61.1711H42.777V61.5393H41.5324V67.285H41.1335Z" fill="#181716"/>
<path d="M45.1548 64.4041L44.1496 67.285H43.7188V61.1711H44.0857V66.4048L44.9633 63.892L45.9525 61.1711H46.4312V67.285H46.0642V61.8754L45.1548 64.4041Z" fill="#181716"/>
<path d="M48.7442 61.1711C49.6537 61.1711 49.9888 61.6193 49.9888 62.4675V62.8197C49.9888 63.4759 49.8133 63.892 49.191 64.02C49.8452 64.1481 50.1005 64.6442 50.1005 65.3324V65.8606C50.1005 66.7409 49.7016 67.285 48.7761 67.285H47.4678V61.1711H48.7442ZM48.5368 63.86C49.2548 63.86 49.5899 63.6679 49.5899 62.8997V62.4996C49.5899 61.8594 49.3825 61.5393 48.7442 61.5393H47.8667V63.86H48.5368ZM48.7761 66.9169C49.4463 66.9169 49.7016 66.5328 49.7016 65.8606V65.3004C49.7016 64.5162 49.3505 64.2281 48.6166 64.2281H47.8667V66.9169H48.7761Z" fill="#181716"/>
<path d="M51.6959 65.9245L51.3767 67.2849H51.0098L52.35 61.155H52.9404L54.2966 67.2849H53.8977L53.5786 65.9245H51.6959ZM51.7437 65.5724H53.5308L52.6213 61.6192L51.7437 65.5724Z" fill="#181716"/>
<path d="M56.4675 61.5393L56.308 65.7806C56.2761 66.6128 56.1325 67.269 55.239 67.285H55.1592V66.9169C55.8453 66.9169 55.8931 66.4048 55.9091 65.7966L56.0846 61.1711H58.3663V67.285H57.9514V61.5393H56.4675Z" fill="#181716"/>
<path d="M60.5678 63.6839C61.541 63.6839 61.9878 64.1641 61.9878 65.1244V65.7966C61.9878 66.6929 61.6208 67.285 60.6635 67.285H59.4189V61.1711H59.8178V63.6839H60.5678ZM60.6635 66.9169C61.3496 66.9169 61.573 66.4848 61.573 65.8286V65.1084C61.573 64.3561 61.2698 64.052 60.5678 64.052H59.8178V66.9169H60.6635Z" fill="#181716"/>
<path d="M33.012 77H32.9322C32.8846 76.9858 32.843 76.9561 32.8141 76.9155C32.7852 76.8749 32.7706 76.8258 32.7727 76.776V71.9264H28.337C28.2735 71.9264 28.2126 71.9011 28.1678 71.8561C28.1229 71.8111 28.0977 71.75 28.0977 71.6864C28.0977 71.6227 28.1229 71.5616 28.1678 71.5166C28.2126 71.4716 28.2735 71.4463 28.337 71.4463H33.012C33.0755 71.4463 33.1363 71.4716 33.1812 71.5166C33.2261 71.5616 33.2513 71.6227 33.2513 71.6864V76.0717L36.8414 71.5423C36.8612 71.5137 36.8873 71.4902 36.9178 71.4735C36.9483 71.4568 36.9822 71.4475 37.0169 71.4463H46.4945C46.558 71.4463 46.6189 71.4716 46.6638 71.5166C46.7086 71.5616 46.7339 71.6227 46.7339 71.6864C46.7339 71.75 46.7086 71.8111 46.6638 71.8561C46.6189 71.9011 46.558 71.9264 46.4945 71.9264H37.1445L33.1875 76.92C33.1417 76.9687 33.0787 76.9974 33.012 77Z" fill="#181716"/>
</g>
<defs>
<clipPath id="clip0_423_4324">
<rect width="95" height="77" fill="white"/>
</clipPath>
</defs>
</svg>
