<svg width="531" height="664" viewBox="0 0 531 664" fill="none" xmlns="http://www.w3.org/2000/svg">
<path d="M483.275 161.642L487.586 153.061C487.869 152.497 488.362 152.064 488.955 151.857C489.549 151.649 490.195 151.684 490.751 151.954C491.025 152.087 491.268 152.274 491.466 152.504C491.665 152.733 491.814 153.001 491.906 153.292C491.999 153.583 492.031 153.891 492.003 154.197C491.974 154.504 491.885 154.803 491.741 155.077L487.429 163.659C486.561 165.387 486.037 167.262 485.888 169.177C485.739 171.091 485.967 173.007 486.56 174.815C487.153 176.623 488.098 178.288 489.343 179.715C490.588 181.142 492.107 182.303 493.814 183.131C495.521 183.959 497.382 184.439 499.291 184.543C501.201 184.647 503.121 184.373 504.942 183.736C506.763 183.099 508.449 182.113 509.905 180.833C511.36 179.553 512.557 178.004 513.425 176.275L517.736 167.694C517.877 167.415 518.07 167.165 518.305 166.958C518.539 166.752 518.812 166.593 519.106 166.49C519.399 166.387 519.709 166.343 520.018 166.36C520.326 166.376 520.626 166.454 520.902 166.588C521.445 166.865 521.853 167.347 522.038 167.931C522.223 168.515 522.17 169.154 521.891 169.71L517.58 178.292C515.451 182.533 511.864 185.884 507.495 187.715C503.126 189.546 498.276 189.73 493.861 188.232L490.24 195.438L500.688 200.509C500.961 200.642 501.204 200.828 501.403 201.058C501.601 201.288 501.751 201.556 501.843 201.847C501.935 202.138 501.968 202.445 501.939 202.752C501.911 203.058 501.822 203.357 501.677 203.632C501.399 204.184 500.917 204.609 500.335 204.812C499.753 205.016 499.119 204.981 498.574 204.717L473.524 192.559C473.248 192.432 473.001 192.25 472.798 192.024C472.595 191.799 472.44 191.534 472.342 191.245C472.244 190.956 472.205 190.649 472.228 190.343C472.25 190.036 472.333 189.735 472.473 189.458C472.756 188.894 473.248 188.461 473.842 188.254C474.435 188.046 475.081 188.081 475.638 188.351L486.086 193.422L489.706 186.215C485.807 183.679 483.002 179.782 481.818 175.257C480.633 170.732 481.151 165.891 483.275 161.642Z" fill="#65B2E4" fill-opacity="0.5"/>
<path d="M495.3 180.173C492.627 178.876 490.604 176.557 489.676 173.726C488.747 170.894 488.99 167.783 490.35 165.076L498.637 148.58C499.997 145.873 502.363 143.792 505.215 142.795C508.066 141.799 511.17 141.967 513.842 143.265C516.515 144.562 518.538 146.881 519.466 149.712C520.395 152.544 520.152 155.655 518.792 158.362L510.505 174.858C509.145 177.565 506.779 179.646 503.927 180.643C501.076 181.639 497.972 181.471 495.3 180.173Z" fill="#65B2E4" fill-opacity="0.5"/>
<path d="M29.2936 630.702L29.2628 630.71C28.7645 628.982 27.9244 627.372 26.7927 625.975C25.661 624.579 24.2608 623.424 22.6757 622.582C21.0906 621.739 19.353 621.224 17.5667 621.069C15.7803 620.914 13.9817 621.121 12.2782 621.679C5.82417 623.748 1.88337 630.596 3.28275 637.252C3.66504 639.032 4.40265 640.717 5.45114 642.205C6.49962 643.693 7.83726 644.953 9.38343 645.91C10.9296 646.866 12.6523 647.499 14.4477 647.77C16.243 648.041 18.0739 647.945 19.8299 647.488C19.9861 651.22 19.5297 654.951 18.4788 658.532C18.3632 658.908 18.3748 659.312 18.5119 659.681C18.6489 660.05 18.9037 660.364 19.2365 660.573C19.5694 660.782 19.9616 660.875 20.3523 660.838C20.7429 660.801 21.1101 660.635 21.3966 660.366C25.2097 656.747 27.9771 652.161 29.4071 647.093C30.8371 642.024 30.8768 636.66 29.5219 631.565L29.2936 630.702Z" fill="#65B2E4" fill-opacity="0.5"/>
<path d="M389.522 627.77C386.601 620.619 381.869 614.356 375.792 609.597C369.715 604.839 362.503 601.751 354.868 600.638C347.234 599.524 339.44 600.424 332.257 603.248C325.073 606.072 318.748 610.723 313.906 616.742C313.214 617.599 312.765 618.627 312.606 619.717C312.447 620.808 312.584 621.921 313.002 622.94C315.923 630.091 320.655 636.354 326.732 641.112C332.81 645.871 340.021 648.959 347.656 650.072C355.291 651.186 363.084 650.286 370.268 647.462C377.451 644.637 383.776 639.986 388.618 633.968C389.31 633.111 389.759 632.083 389.918 630.993C390.077 629.902 389.94 628.789 389.522 627.77ZM346.021 609.011C347.469 609.222 348.821 609.858 349.907 610.839C350.992 611.82 351.763 613.102 352.122 614.522C352.48 615.942 352.41 617.437 351.92 618.817C351.431 620.198 350.543 621.402 349.37 622.278C348.197 623.154 346.791 623.662 345.331 623.738C343.87 623.813 342.42 623.454 341.164 622.704C339.907 621.954 338.902 620.848 338.273 619.525C337.645 618.203 337.423 616.723 337.634 615.273C337.918 613.329 338.961 611.578 340.534 610.403C342.107 609.229 344.08 608.728 346.021 609.011ZM348.781 642.155C342.712 641.259 336.969 638.842 332.083 635.129C327.197 631.417 323.327 626.528 320.831 620.917C324.447 616.711 328.963 613.376 334.042 611.159C333.22 612.935 332.659 614.821 332.375 616.758C331.915 621.85 333.42 626.924 336.581 630.937C339.741 634.949 344.318 637.596 349.369 638.333C354.42 639.069 359.561 637.84 363.737 634.897C367.913 631.954 370.805 627.522 371.819 622.511C372.1 620.573 372.1 618.606 371.82 616.669C376.055 620.244 379.429 624.73 381.693 629.793C377.688 634.461 372.572 638.041 366.818 640.202C361.065 642.363 354.861 643.035 348.781 642.155Z" fill="#65B2E4" fill-opacity="0.5"/>
<path d="M486.637 598.704L493.203 588.309C493.402 588.021 493.627 587.751 493.876 587.503C486.078 579.447 487.16 568.099 493.26 561.565C499.36 555.031 509.736 553.642 517.219 558.709C524.702 563.776 527.634 573.759 523.827 581.933C521.876 586.13 518.441 589.457 514.183 591.272C509.926 593.088 505.147 593.264 500.767 591.766L500.548 592.061C498.303 595.634 496.037 599.294 493.714 602.884C493.267 603.603 492.644 604.196 491.902 604.604C490.302 605.459 488.266 604.944 487.002 603.518C486.409 602.873 486.051 602.048 485.985 601.174C485.919 600.301 486.148 599.431 486.637 598.704ZM509.493 585.653C511.757 585.136 513.816 583.96 515.411 582.273C517.006 580.586 518.065 578.464 518.453 576.176C518.842 573.887 518.544 571.535 517.595 569.416C516.647 567.297 515.092 565.507 513.126 564.271C511.16 563.036 508.872 562.412 506.551 562.477C504.231 562.542 501.981 563.294 500.088 564.637C498.195 565.98 496.742 567.855 495.914 570.024C495.086 572.192 494.92 574.558 495.437 576.821C496.13 579.856 498 582.492 500.636 584.148C503.272 585.804 506.458 586.345 509.493 585.653Z" fill="#65B2E4" fill-opacity="0.5"/>
<path d="M504.927 565.473C507.232 564.947 509.651 565.358 511.653 566.616C513.654 567.873 515.074 569.874 515.601 572.179C515.649 572.368 515.659 572.564 515.629 572.757C515.599 572.949 515.53 573.134 515.426 573.299C515.323 573.464 515.186 573.606 515.026 573.716C514.865 573.827 514.684 573.904 514.493 573.942C514.112 574.028 513.713 573.961 513.382 573.753C513.051 573.545 512.817 573.215 512.73 572.834C512.378 571.291 511.427 569.951 510.086 569.109C508.746 568.266 507.126 567.991 505.583 568.343C505.394 568.386 505.199 568.392 505.008 568.359C504.818 568.327 504.635 568.257 504.472 568.155C504.308 568.052 504.166 567.918 504.054 567.76C503.942 567.602 503.863 567.424 503.82 567.236C503.743 566.856 503.816 566.461 504.022 566.133C504.228 565.805 504.552 565.569 504.927 565.473Z" fill="#65B2E4" fill-opacity="0.5"/>
<g clip-path="url(#clip0_179_8468)">
<path d="M491.998 362.941L482.202 355.723L473.783 349.496C473.401 349.214 472.947 349.043 472.472 349.002C471.997 348.961 471.521 349.052 471.095 349.264C470.669 349.476 470.312 349.802 470.062 350.204C469.813 350.606 469.682 351.069 469.683 351.54V359.534L464.519 355.723L456.1 349.496C455.718 349.214 455.264 349.043 454.789 349.002C454.314 348.961 453.837 349.052 453.412 349.264C452.986 349.476 452.629 349.802 452.379 350.204C452.13 350.606 451.999 351.069 452 351.54V378.432C451.999 378.904 452.13 379.367 452.379 379.769C452.629 380.171 452.986 380.496 453.412 380.709C453.837 380.921 454.314 381.012 454.789 380.971C455.264 380.93 455.718 380.759 456.1 380.477L464.519 374.25L469.683 370.439V378.432C469.682 378.904 469.813 379.367 470.062 379.769C470.312 380.171 470.669 380.496 471.095 380.709C471.521 380.921 471.997 381.012 472.472 380.971C472.947 380.93 473.401 380.759 473.783 380.477L482.202 374.25L491.998 367.031C492.311 366.787 492.564 366.477 492.737 366.123C492.911 365.768 493.001 365.38 493.001 364.986C493.001 364.592 492.911 364.204 492.737 363.85C492.564 363.496 492.311 363.185 491.998 362.941Z" fill="#65B2E4" fill-opacity="0.5"/>
</g>
<path d="M379.365 232.068L377.005 231.029C376.59 230.794 376.126 230.663 375.652 230.647C375.177 230.63 374.706 230.729 374.276 230.934C371.037 232.446 367.752 233.864 364.513 235.282L353.917 240.007L350.308 241.614L350.169 241.708C350.9 242.227 351.714 242.611 352.575 242.842C354.456 243.462 356.431 243.734 358.405 243.646C359.652 243.544 360.873 243.224 362.014 242.701L373.35 237.739L387.231 231.643L388.943 230.84C389.239 230.696 389.566 230.632 389.894 230.652C390.221 230.672 390.538 230.777 390.816 230.956C391.093 231.136 391.321 231.384 391.479 231.677C391.637 231.971 391.72 232.3 391.719 232.635V275.4C391.748 275.922 391.61 276.439 391.327 276.873C391.043 277.308 390.628 277.637 390.146 277.81L379.597 282.583L371.592 286.174L362.431 290.143C360.395 290.994 358.266 291.041 356.138 290.852C353.924 290.671 351.752 290.129 349.707 289.246C348.365 288.631 347.208 287.828 346.514 286.41C346.182 285.719 346.008 284.959 346.005 284.189V241.992C345.962 241.074 346.191 240.164 346.662 239.38C347.132 238.596 347.822 237.975 348.642 237.597C350.169 236.794 351.789 236.132 353.362 235.471L365.022 230.367L374.276 226.256L376.543 225.217C376.848 225.058 377.189 224.984 377.531 225.003C377.873 225.022 378.205 225.133 378.491 225.325C378.778 225.517 379.01 225.783 379.163 226.096C379.317 226.409 379.386 226.757 379.365 227.107V232.068ZM376.173 255.081C376.071 254.878 375.947 254.688 375.802 254.514C374.646 252.529 372.656 251.962 370.667 253.049C369.706 253.628 368.884 254.419 368.261 255.365C366.93 257.457 366.253 259.912 366.317 262.405C366.349 264.802 367.238 267.105 368.816 268.879C370.759 271.195 373.258 272.659 376.034 273.746C376.127 273.8 376.236 273.815 376.339 273.788C376.442 273.762 376.532 273.696 376.589 273.605C378.711 271.139 380.586 268.464 382.188 265.619C383.992 262.405 385.426 259.05 385.889 255.365C386.121 253.913 386.026 252.426 385.612 251.017C384.918 248.844 382.974 248.182 381.077 248.702C380.146 249.049 379.317 249.635 378.671 250.403C377.554 251.786 376.706 253.373 376.173 255.081Z" fill="#65B2E4" fill-opacity="0.5"/>
<path d="M486.551 0.92642C486.217 0.614152 485.823 0.371515 485.392 0.212942C484.961 0.054369 484.503 -0.0169004 484.044 0.00337319C483.584 0.0236468 483.134 0.135049 482.719 0.330954C482.305 0.526858 481.934 0.803262 481.63 1.14373C481.317 1.47408 481.073 1.86238 480.912 2.28628C480.752 2.71018 480.677 3.16131 480.694 3.61371C480.71 4.06611 480.817 4.51085 481.008 4.92234C481.198 5.33382 481.469 5.70393 481.805 6.01137C485.37 9.25223 488.218 13.1883 490.169 17.5716C492.12 21.9548 493.132 26.6903 493.141 31.4796C493.135 36.2693 492.124 41.0055 490.173 45.3892C488.221 49.7728 485.372 53.7086 481.805 56.9478C481.124 57.5762 480.723 58.4465 480.69 59.3673C480.657 60.2882 480.995 61.1843 481.63 61.8589C481.953 62.2079 482.347 62.4852 482.786 62.6725C483.225 62.8598 483.7 62.9528 484.178 62.9454C485.058 62.9538 485.908 62.627 486.551 62.0327C490.838 58.1522 494.263 53.4322 496.608 48.1724C498.953 42.9126 500.166 37.228 500.171 31.4796C500.161 25.7319 498.945 20.049 496.601 14.79C494.256 9.53094 490.834 4.81027 486.551 0.92642Z" fill="#65B2E4" fill-opacity="0.5"/>
<path d="M470.909 17.8327C470.571 17.5192 470.173 17.2757 469.739 17.1166C469.305 16.9575 468.843 16.8859 468.38 16.9062C467.917 16.9264 467.463 17.0381 467.045 17.2345C466.627 17.4309 466.252 17.7082 465.944 18.05C465.628 18.3803 465.383 18.7701 465.222 19.1961C465.062 19.6222 464.99 20.0757 465.011 20.5299C465.031 20.984 465.144 21.4294 465.342 21.8396C465.54 22.2498 465.819 22.6164 466.163 22.9176C467.367 24.004 468.328 25.3263 468.986 26.8004C469.644 28.2745 469.985 29.868 469.986 31.4795C469.99 33.0917 469.652 34.6869 468.994 36.1618C468.335 37.6367 467.371 38.9583 466.163 40.0413C465.634 40.5077 465.261 41.1235 465.096 41.8057C464.93 42.488 464.98 43.2039 465.239 43.8572C465.497 44.5106 465.952 45.0699 466.541 45.46C467.131 45.85 467.827 46.0521 468.536 46.0389C469.413 46.0304 470.257 45.7059 470.909 45.1263C472.823 43.3931 474.35 41.2844 475.394 38.9348C476.438 36.5851 476.976 34.046 476.972 31.4795C476.97 28.9137 476.43 26.3763 475.387 24.0274C474.343 21.6785 472.818 19.5692 470.909 17.8327Z" fill="#65B2E4" fill-opacity="0.5"/>
<path d="M478.73 9.35785C478.037 8.74629 477.13 8.42671 476.203 8.46731C475.275 8.50791 474.4 8.90547 473.765 9.57515C473.136 10.2553 472.805 11.1548 472.847 12.0757C472.888 12.9966 473.297 13.8637 473.984 14.4863C476.375 16.6413 478.286 19.2653 479.594 22.1911C480.903 25.1168 481.581 28.2802 481.586 31.4795C481.581 34.6789 480.903 37.8423 479.594 40.768C478.286 43.6938 476.375 46.3178 473.984 48.4728C473.632 48.7779 473.346 49.1495 473.141 49.5657C472.936 49.9819 472.817 50.4343 472.791 50.8966C472.766 51.3588 472.833 51.8214 472.991 52.2574C473.148 52.6934 473.392 53.0938 473.708 53.4353C474.024 53.7768 474.406 54.0524 474.831 54.246C475.256 54.4397 475.716 54.5474 476.184 54.5628C476.651 54.5783 477.118 54.5012 477.555 54.336C477.992 54.1709 478.391 53.9211 478.73 53.6012C481.824 50.7844 484.295 47.3651 485.989 43.5581C487.683 39.7512 488.562 35.6388 488.572 31.4795C488.557 27.3211 487.675 23.2104 485.982 19.4041C484.288 15.5979 481.819 12.1779 478.73 9.35785Z" fill="#65B2E4" fill-opacity="0.5"/>
<g clip-path="url(#clip1_179_8468)">
<path d="M167 579C174.804 578.99 182.511 580.728 189.551 584.086C190.285 584.446 190.903 585.004 191.336 585.696C191.769 586.388 191.999 587.187 192 588.002V609.059C192 625.132 176.031 637.949 167 637.949C157.969 637.949 142 625.132 142 609.059V588.002C142.001 587.187 142.231 586.388 142.664 585.696C143.097 585.004 143.715 584.446 144.449 584.086C151.487 580.721 159.195 578.983 167 579ZM167 617.859C162.584 617.879 158.245 616.701 154.449 614.451C154.338 614.389 154.211 614.362 154.084 614.375C153.958 614.389 153.839 614.441 153.743 614.525C153.648 614.609 153.581 614.72 153.552 614.844C153.523 614.967 153.533 615.096 153.582 615.214C154.705 617.834 156.575 620.068 158.961 621.638C161.346 623.208 164.142 624.045 167 624.045C169.858 624.045 172.654 623.208 175.039 621.638C177.425 620.068 179.295 617.834 180.418 615.214C180.467 615.096 180.477 614.967 180.448 614.844C180.419 614.72 180.352 614.609 180.257 614.525C180.161 614.441 180.042 614.389 179.916 614.375C179.789 614.362 179.662 614.389 179.551 614.451C175.755 616.701 171.416 617.879 167 617.859ZM158.633 601.125C159.644 601.123 160.653 601.225 161.643 601.43C161.788 601.472 161.942 601.468 162.084 601.417C162.226 601.366 162.348 601.272 162.433 601.148C162.518 601.023 162.561 600.876 162.557 600.725C162.552 600.575 162.5 600.43 162.408 600.311C161.743 599.427 160.88 598.709 159.888 598.215C158.896 597.72 157.803 597.463 156.694 597.463C155.196 597.457 153.736 597.927 152.525 598.805C151.314 599.683 150.415 600.924 149.959 602.346C149.914 602.486 149.913 602.637 149.958 602.777C150.002 602.918 150.089 603.041 150.206 603.13C150.324 603.219 150.466 603.27 150.614 603.275C150.761 603.281 150.907 603.24 151.031 603.159C153.342 601.83 155.964 601.128 158.633 601.125ZM182.969 603.159C183.093 603.24 183.239 603.281 183.386 603.275C183.534 603.27 183.676 603.219 183.794 603.13C183.911 603.041 183.998 602.918 184.042 602.777C184.087 602.637 184.086 602.486 184.041 602.346C183.585 600.924 182.686 599.683 181.475 598.805C180.264 597.927 178.804 597.457 177.306 597.463C176.197 597.463 175.104 597.72 174.112 598.215C173.12 598.709 172.257 599.427 171.592 600.311C171.5 600.43 171.448 600.575 171.443 600.725C171.439 600.876 171.482 601.023 171.567 601.148C171.652 601.272 171.774 601.366 171.916 601.417C172.058 601.468 172.212 601.472 172.357 601.43C173.347 601.225 174.356 601.123 175.367 601.125C178.036 601.128 180.658 601.83 182.969 603.159Z" fill="#65B2E4" fill-opacity="0.5"/>
</g>
<defs>
<clipPath id="clip0_179_8468">
<rect width="41" height="31.9725" fill="white" transform="translate(452 349)"/>
</clipPath>
<clipPath id="clip1_179_8468">
<rect width="50" height="58.9492" fill="white" transform="translate(142 579)"/>
</clipPath>
</defs>
</svg>
