<svg width="191" height="155" viewBox="0 0 191 155" fill="none" xmlns="http://www.w3.org/2000/svg">
<g clip-path="url(#clip0_430_5143)">
<path d="M130.21 85.8283L94.2491 34.7308C93.8832 34.1992 93.3943 33.7647 92.8243 33.4645C92.2544 33.1644 91.6205 33.0076 90.977 33.0076C90.3335 33.0076 89.6996 33.1644 89.1297 33.4645C88.5598 33.7647 88.0709 34.1992 87.7049 34.7308L76.9263 50.0343C79.976 52.1615 82.4676 54.9986 84.1882 58.3031C85.9088 61.6077 86.8072 65.2815 86.8067 69.0106C86.8067 75.1542 84.3766 81.0463 80.0511 85.3905C75.7256 89.7347 69.8589 92.1752 63.7417 92.1752H126.938C127.672 92.1742 128.392 91.9707 129.019 91.5871C129.645 91.2035 130.155 90.6544 130.493 89.9997C130.83 89.345 130.983 88.6098 130.933 87.8742C130.883 87.1387 130.633 86.431 130.21 85.8283Z" fill="#65B2E4"/>
<path d="M51.7439 85.8283L76.9261 50.0343C75.1225 48.7579 73.1454 47.7488 71.0556 47.038C69.9229 52.0066 67.1454 56.4423 63.1772 59.6201C59.209 62.7978 54.2848 64.5296 49.2096 64.5323H21.8139C21.154 64.5365 20.4998 64.4097 19.889 64.159C19.2781 63.9083 18.7226 63.5388 18.2545 63.0716C17.7864 62.6045 17.4149 62.049 17.1614 61.4371C16.9079 60.8252 16.7774 60.169 16.7775 59.5063V46.7158C11.9481 48.0955 7.698 51.0181 4.67066 55.041C1.64332 59.0639 0.00366209 63.968 0 69.0106H0C0 72.0526 0.596594 75.0648 1.75572 77.8753C2.91484 80.6857 4.6138 83.2394 6.75558 85.3904C11.0811 89.7346 16.9478 92.1752 23.065 92.1752H32.6246C33.4073 92.1752 34.158 92.4875 34.7115 93.0433C35.265 93.5992 35.5759 94.3531 35.5759 95.1392C35.5759 97.2241 36.4006 99.2237 37.8685 100.698C39.3364 102.172 41.3273 103 43.4033 103C45.4792 103 47.4701 102.172 48.938 100.698C50.4059 99.2237 51.2306 97.2241 51.2306 95.1392C51.2306 94.3531 51.5415 93.5992 52.095 93.0433C52.6485 92.4875 53.3992 92.1752 54.1819 92.1752H55.0159C54.2819 92.1741 53.5621 91.9707 52.9353 91.5871C52.3084 91.2034 51.7984 90.6544 51.4608 89.9996C51.1233 89.3449 50.9712 88.6097 51.0211 87.8742C51.071 87.1386 51.321 86.4309 51.7439 85.8283Z" fill="#A2C510"/>
<path d="M86.8064 69.0107C86.8069 65.2816 85.9084 61.6078 84.1878 58.3033C82.4673 54.9987 79.9757 52.1616 76.926 50.0344L51.7437 85.8284C51.3209 86.4311 51.0709 87.1388 51.021 87.8743C50.9711 88.6099 51.1232 89.3451 51.4607 89.9998C51.7982 90.6545 52.3083 91.2036 52.9351 91.5872C53.562 91.9708 54.2817 92.1743 55.0158 92.1754H63.7414C66.7703 92.1754 69.7696 91.5762 72.568 90.4121C75.3663 89.2479 77.909 87.5416 80.0508 85.3906C82.1926 83.2396 83.8915 80.6859 85.0507 77.8754C86.2098 75.065 86.8064 72.0527 86.8064 69.0107Z" fill="#2D7ABF"/>
<path d="M32.6245 45.8461C33.4017 45.8461 34.1476 45.5383 34.7001 44.9894C35.2527 44.4404 35.5674 43.6948 35.5758 42.9143C35.5758 40.8293 36.4005 38.8298 37.8684 37.3556C39.3363 35.8813 41.3272 35.0531 43.4031 35.0531C44.431 35.0531 45.4489 35.2564 46.3985 35.6515C47.3482 36.0466 48.2111 36.6256 48.9379 37.3556C49.6647 38.0856 50.2413 38.9522 50.6347 39.9059C51.028 40.8597 51.2305 41.8819 51.2305 42.9143C51.2389 43.6948 51.5536 44.4404 52.1062 44.9894C52.6587 45.5383 53.4046 45.8461 54.1818 45.8461H63.7414C66.2275 45.8438 68.6976 46.2464 71.0555 47.0381C71.4179 45.4094 71.6008 43.7455 71.6008 42.0766C71.605 39.1222 71.0288 36.1961 69.905 33.4658C68.7812 30.7355 67.132 28.2547 65.052 26.1657C62.9719 24.0766 60.5018 22.4203 57.7833 21.2917C55.0647 20.1631 52.1511 19.5843 49.2095 19.5885H34.6776L62.2978 4.41395C64.4151 3.2541 63.581 0.000103272 61.1751 0.000103272H21.8138C21.1539 -0.00414507 20.4997 0.12272 19.8888 0.373397C19.278 0.624073 18.7225 0.993611 18.2544 1.46074C17.7863 1.92787 17.4148 2.48337 17.1613 3.09525C16.9078 3.70714 16.7773 4.36334 16.7773 5.02609V46.716C18.8256 46.1477 20.9399 45.8552 23.0649 45.8461H32.6245Z" fill="#E50054"/>
<path d="M21.8138 64.5323H49.2095C54.2847 64.5296 59.2089 62.7978 63.1771 59.6201C67.1453 56.4423 69.9228 52.0066 71.0555 47.038C68.6976 46.2463 66.2275 45.8437 63.7414 45.846H54.1818C53.4046 45.846 52.6587 45.5381 52.1062 44.9892C51.5536 44.4403 51.2389 43.6946 51.2305 42.9141C51.2305 41.8818 51.028 40.8596 50.6347 39.9058C50.2413 38.952 49.6647 38.0854 48.9379 37.3555C48.2111 36.6255 47.3482 36.0464 46.3985 35.6514C45.4489 35.2563 44.431 35.053 43.4031 35.053C41.3272 35.053 39.3363 35.8812 37.8684 37.3555C36.4005 38.8297 35.5758 40.8292 35.5758 42.9141C35.5674 43.6946 35.2527 44.4403 34.7001 44.9892C34.1476 45.5381 33.4017 45.846 32.6245 45.846H23.0649C20.9399 45.855 18.8256 46.1475 16.7773 46.7158V59.5063C16.7773 60.1691 16.9078 60.8253 17.1613 61.4371C17.4148 62.049 17.7863 62.6045 18.2544 63.0717C18.7225 63.5388 19.278 63.9083 19.8888 64.159C20.4997 64.4097 21.1539 64.5365 21.8138 64.5323Z" fill="#A60D48"/>
<path d="M56.5879 116.629V102.26H62.8754V104.321H58.8334V107.962H60.1487C62.3942 107.962 63.5491 109.219 63.5491 111.538V113.052C63.5491 115.372 62.3942 116.629 60.1487 116.629H56.5879ZM60.1487 114.567C60.8544 114.567 61.3035 114.245 61.3035 113.214V111.377C61.3035 110.346 60.8544 110.024 60.1487 110.024H58.8334V114.567H60.1487Z" fill="white"/>
<path d="M65.6982 105.707C65.6982 103.387 66.8852 102.098 69.0986 102.098C71.3121 102.098 72.499 103.387 72.499 105.707V113.181C72.499 115.469 71.3121 116.79 69.0986 116.79C66.8852 116.79 65.6982 115.469 65.6982 113.181V105.707ZM67.9438 113.31C67.9438 114.341 68.3929 114.728 69.0986 114.728C69.8044 114.728 70.2535 114.341 70.2535 113.31V105.546C70.2535 104.547 69.8044 104.128 69.0986 104.128C68.3929 104.128 67.9438 104.547 67.9438 105.546V113.31Z" fill="white"/>
<path d="M74.1353 114.599C75.1618 114.599 75.4826 114.438 75.5467 113.117L75.8996 102.26H82.2513V116.629H79.9737V104.321H78.0168L77.7602 112.988C77.664 115.598 76.7337 116.629 74.4881 116.629H74.1353V114.599Z" fill="white"/>
<path d="M84.7856 116.629V102.26H87.0312V107.64H88.0898C90.3354 107.64 91.4581 108.896 91.4581 111.184V113.052C91.4581 115.372 90.3354 116.629 88.0898 116.629H84.7856ZM88.0898 114.567C88.7956 114.567 89.1805 114.245 89.1805 113.214V111.055C89.1805 110.024 88.7956 109.702 88.0898 109.702H87.0312V114.567H88.0898Z" fill="white"/>
<path d="M93.6074 116.629V102.26H95.853V114.567H97.8098V102.26H100.055V114.567H101.98V102.26H104.226V116.629H93.6074Z" fill="white"/>
<path d="M106.503 105.707C106.503 103.387 107.69 102.098 109.904 102.098C112.117 102.098 113.304 103.387 113.304 105.707V113.181C113.304 115.469 112.117 116.79 109.904 116.79C107.69 116.79 106.503 115.469 106.503 113.181V105.707ZM108.749 113.31C108.749 114.341 109.198 114.728 109.904 114.728C110.61 114.728 111.059 114.341 111.059 113.31V105.546C111.059 104.547 110.61 104.128 109.904 104.128C109.198 104.128 108.749 104.547 108.749 105.546V113.31Z" fill="white"/>
<path d="M117.891 116.629H115.582V102.259H117.57V111.345L118.405 108.187L120.233 102.259H122.703V116.629H120.682V106.512L119.784 110.024L117.891 116.629ZM120.201 99.0376C120.137 99.8108 119.784 100.004 119.174 100.004C118.565 100.004 118.276 99.8108 118.212 99.0376H116.833C116.865 100.455 117.603 101.325 119.174 101.325C120.746 101.325 121.58 100.455 121.58 99.0376H120.201Z" fill="white"/>
<path d="M135.631 118.53V116.629H130.851V118.53H128.638V114.599H129.536C129.921 114.116 130.049 113.568 130.081 112.73L130.595 102.26H136.882V114.599H137.877V118.53H135.631ZM132.295 112.698C132.231 113.794 132.038 114.245 131.653 114.599H134.604V104.321H132.712L132.295 112.698Z" fill="white"/>
<path d="M142.175 108.316H145.255V110.346H142.175V114.567H146.057V116.629H139.93V102.26H146.057V104.321H142.175V108.316Z" fill="white"/>
<path d="M147.597 102.26H154.558V104.321H152.216V116.629H149.971V104.321H147.597V102.26Z" fill="white"/>
<path d="M162.867 111.248V113.181C162.867 115.469 161.712 116.79 159.53 116.79C157.349 116.79 156.162 115.469 156.162 113.181V105.707C156.162 103.387 157.317 102.098 159.53 102.098C161.744 102.098 162.867 103.387 162.867 105.707V107.092H160.749V105.546C160.749 104.547 160.3 104.128 159.563 104.128C158.825 104.128 158.408 104.547 158.408 105.546V113.31C158.408 114.341 158.857 114.696 159.563 114.696C160.268 114.696 160.749 114.341 160.749 113.31V111.248H162.867Z" fill="white"/>
<path d="M167.999 110.894L167.293 112.215V116.629H165.048V102.26H167.293V108.51L170.245 102.26H172.49L169.346 108.639L172.49 116.629H170.181L167.999 110.894Z" fill="white"/>
<path d="M176.629 116.629H174.319V102.26H176.308V111.345L177.142 108.188L178.97 102.26H181.44V116.629H179.419V106.512L178.521 110.024L176.629 116.629Z" fill="white"/>
<path d="M186.156 116.629H183.846V102.259H185.867V111.345L186.669 108.187L188.53 102.259H191V116.629H188.979V106.512L188.049 110.024L186.156 116.629ZM188.466 99.0376C188.401 99.8108 188.081 100.004 187.439 100.004C186.797 100.004 186.541 99.8108 186.509 99.0376H185.097C185.161 100.455 185.867 101.325 187.439 101.325C189.011 101.325 189.845 100.455 189.845 99.0376H188.466Z" fill="white"/>
<path d="M61.3997 124.554C63.4207 124.554 64.2226 125.682 64.2226 127.647V130.998C64.2226 132.963 63.4207 134.091 61.3997 134.091H60.4052V135.444H59.6353V134.091H58.6408C56.6199 134.091 55.8179 132.963 55.8179 130.998V127.647C55.8179 125.682 56.6199 124.554 58.6408 124.554H59.6353V123.137H60.4052V124.554H61.3997ZM58.6408 125.263C57.1652 125.263 56.5878 126.101 56.5878 127.583V131.062C56.5878 132.544 57.1652 133.382 58.6408 133.382H59.6353V125.263H58.6408ZM61.3997 133.382C62.8753 133.382 63.4527 132.544 63.4527 131.062V127.583C63.4527 126.101 62.8753 125.263 61.3997 125.263H60.4052V133.382H61.3997Z" fill="white"/>
<path d="M70.4463 128.807V129.548H67.1101V134.703H71.12V135.444H66.3081V123.137H71.12V123.878H67.1101V128.807H70.4463Z" fill="white"/>
<path d="M78.3697 126.133V127.164H77.5998V126.069C77.5998 124.748 77.0866 123.749 75.7392 123.749C74.3919 123.749 73.9107 124.748 73.9107 126.069V132.48C73.9107 133.801 74.3919 134.767 75.7392 134.767C77.0866 134.767 77.5998 133.801 77.5998 132.48V131.03H78.3697V132.415C78.3697 134.187 77.5998 135.541 75.7392 135.541C73.8786 135.541 73.0767 134.187 73.0767 132.415V126.133C73.0767 124.361 73.8466 123.008 75.7392 123.008C77.6319 123.008 78.3697 124.361 78.3697 126.133Z" fill="white"/>
<path d="M82.7003 135.444V123.878H80.166V123.137H86.0044V123.878H83.5023V135.444H82.7003Z" fill="white"/>
<path d="M90.7846 129.645L88.7636 135.444H87.8975V123.137H88.6353V133.672L90.3996 128.614L92.3886 123.137H93.3509V135.444H92.6131V124.554L90.7846 129.645Z" fill="white"/>
<path d="M98.0024 123.137C99.8309 123.137 100.505 124.039 100.505 125.746V126.455C100.505 127.776 100.152 128.614 98.9006 128.871C100.216 129.129 100.729 130.128 100.729 131.513V132.577C100.729 134.349 99.9271 135.444 98.0665 135.444H95.436V123.137H98.0024ZM97.5854 128.549C99.0289 128.549 99.7026 128.163 99.7026 126.616V125.811C99.7026 124.522 99.2855 123.878 98.0024 123.878H96.238V128.549H97.5854ZM98.0665 134.703C99.4139 134.703 99.9271 133.93 99.9271 132.577V131.449C99.9271 129.87 99.2214 129.29 97.7457 129.29H96.238V134.703H98.0665Z" fill="white"/>
<path d="M103.937 132.705L103.295 135.444H102.558L105.252 123.104H106.439L109.166 135.444H108.364L107.722 132.705H103.937ZM104.033 131.997H107.626L105.798 124.039L104.033 131.997Z" fill="white"/>
<path d="M113.528 123.878L113.208 132.415C113.143 134.091 112.855 135.412 111.058 135.444H110.898V134.703C112.277 134.703 112.374 133.672 112.406 132.448L112.759 123.137H117.346V135.444H116.512V123.878H113.528Z" fill="white"/>
<path d="M121.773 128.195C123.73 128.195 124.628 129.161 124.628 131.095V132.448C124.628 134.252 123.89 135.444 121.966 135.444H119.463V123.137H120.265V128.195H121.773ZM121.966 134.703C123.345 134.703 123.794 133.833 123.794 132.512V131.062C123.794 129.548 123.185 128.936 121.773 128.936H120.265V134.703H121.966Z" fill="white"/>
<path d="M66.3721 155H66.2117C66.1159 154.972 66.0323 154.912 65.9742 154.83C65.9161 154.748 65.8868 154.649 65.8909 154.549V144.787H56.9729C56.8453 144.787 56.7229 144.736 56.6326 144.646C56.5424 144.555 56.4917 144.432 56.4917 144.304C56.4917 144.176 56.5424 144.053 56.6326 143.962C56.7229 143.871 56.8453 143.821 56.9729 143.821H66.3721C66.4997 143.821 66.6221 143.871 66.7124 143.962C66.8026 144.053 66.8533 144.176 66.8533 144.304V153.132L74.0711 144.014C74.111 143.956 74.1636 143.909 74.2248 143.875C74.2861 143.842 74.3543 143.823 74.424 143.821H93.4791C93.6067 143.821 93.7291 143.871 93.8193 143.962C93.9096 144.053 93.9603 144.176 93.9603 144.304C93.9603 144.432 93.9096 144.555 93.8193 144.646C93.7291 144.736 93.6067 144.787 93.4791 144.787H74.6806L66.725 154.839C66.6328 154.937 66.5062 154.995 66.3721 155Z" fill="white"/>
</g>
<defs>
<clipPath id="clip0_430_5143">
<rect width="191" height="155" fill="white"/>
</clipPath>
</defs>
</svg>
