<svg width="140" height="189" viewBox="0 0 140 189" fill="none" xmlns="http://www.w3.org/2000/svg">
<g clip-path="url(#clip0_394_893)">
<path d="M139.216 91.6615L100.777 37.0751C100.378 36.5161 99.8525 36.0607 99.2431 35.7464C98.6336 35.4322 97.9582 35.2683 97.273 35.2683C96.5878 35.2683 95.9124 35.4322 95.303 35.7464C94.6935 36.0607 94.1675 36.5161 93.7687 37.0751L82.2761 53.4073C85.5316 55.6917 88.1892 58.7306 90.0233 62.2658C91.8574 65.801 92.8137 69.7281 92.8109 73.7135C92.8109 76.963 92.1722 80.1806 90.9312 83.1823C89.6903 86.1839 87.8715 88.9106 85.5789 91.2063C83.2863 93.502 80.5649 95.3217 77.5705 96.5613C74.5761 97.8009 71.3675 98.4359 68.1281 98.4302H135.69C136.479 98.4406 137.255 98.2314 137.933 97.8259C138.61 97.4204 139.162 96.8344 139.527 96.1331C139.893 95.4318 140.057 94.6426 140.002 93.8532C139.947 93.0638 139.675 92.3051 139.216 91.6615Z" fill="#65B2E4"/>
<path d="M55.3296 91.6615L82.2761 53.4073C80.3263 52.0618 78.2027 50.9894 75.9639 50.2195C74.7534 55.522 71.7875 60.2566 67.5499 63.651C63.3124 67.0453 58.0533 68.8991 52.6306 68.9099H23.2898C21.8697 68.9099 20.5078 68.344 19.5036 67.3367C18.4994 66.3294 17.9353 64.9631 17.9353 63.5386V49.9138C12.7656 51.3727 8.21394 54.4887 4.9754 58.7862C1.73686 63.0836 -0.0105641 68.3263 -1.35378e-05 73.7135C-1.35378e-05 80.2688 2.59591 86.5556 7.21667 91.1909C11.8374 95.8262 18.1045 98.4302 24.6393 98.4302H34.9129C35.7442 98.4302 36.5414 98.7615 37.1292 99.3511C37.717 99.9408 38.0472 100.741 38.0472 101.574C38.0472 103.798 38.9278 105.931 40.4953 107.503C42.0628 109.076 44.1887 109.959 46.4055 109.959C48.6222 109.959 50.7481 109.076 52.3156 107.503C53.8831 105.931 54.7637 103.798 54.7637 101.574C54.7637 100.741 55.0939 99.9408 55.6817 99.3511C56.2695 98.7615 57.0667 98.4302 57.898 98.4302H58.8122C58.0271 98.4325 57.2566 98.2174 56.5856 97.8086C55.9145 97.3999 55.369 96.8133 55.0089 96.1135C54.6488 95.4136 54.4882 94.6277 54.5448 93.8422C54.6014 93.0567 54.873 92.3021 55.3296 91.6615Z" fill="#A2C510"/>
<path d="M92.811 73.7134C92.8137 69.728 91.8574 65.8009 90.0233 62.2657C88.1892 58.7305 85.5316 55.6916 82.2761 53.4072L55.3296 91.6614C54.873 92.302 54.6014 93.0566 54.5448 93.8421C54.4883 94.6276 54.6488 95.4135 55.0089 96.1133C55.369 96.8132 55.9146 97.3997 56.5856 97.8085C57.2567 98.2173 58.0271 98.4324 58.8122 98.4301H68.1281C71.3675 98.4358 74.5761 97.8008 77.5705 96.5612C80.565 95.3216 83.2863 93.5019 85.5789 91.2062C87.8715 88.9105 89.6903 86.1838 90.9312 83.1821C92.1722 80.1805 92.811 76.9629 92.811 73.7134Z" fill="#2D7ABF"/>
<path d="M34.9129 48.9531C35.7442 48.9531 36.5414 48.6218 37.1292 48.0322C37.717 47.4425 38.0472 46.6428 38.0472 45.8089C38.0472 43.5852 38.9278 41.4526 40.4953 39.8802C42.0628 38.3078 44.1887 37.4244 46.4054 37.4244C48.6222 37.4244 50.7481 38.3078 52.3156 39.8802C53.8831 41.4526 54.7637 43.5852 54.7637 45.8089C54.7637 46.6428 55.0939 47.4425 55.6817 48.0322C56.2695 48.6218 57.0667 48.9531 57.898 48.9531H68.1281C70.7894 48.9689 73.4323 49.3961 75.9639 50.2195C76.3312 48.4821 76.5208 46.7116 76.5298 44.9355C76.5356 41.7835 75.9216 38.6613 74.7231 35.7475C73.5246 32.8338 71.7651 30.1857 69.5453 27.9549C67.3255 25.724 64.6889 23.9542 61.7865 22.7466C58.8841 21.5391 55.7727 20.9175 52.6306 20.9175H37.0895L66.6045 4.71627C67.078 4.43735 67.448 4.01117 67.6584 3.50232C67.8687 2.99347 67.908 2.4297 67.7701 1.89647C67.6323 1.36323 67.325 0.889602 66.8947 0.547374C66.4643 0.205146 65.9345 0.0129784 65.3856 0L23.2898 0C21.8697 0 20.5078 0.565904 19.5036 1.57322C18.4994 2.58053 17.9353 3.94674 17.9353 5.3713V49.9138C20.1148 49.2834 22.371 48.96 24.6393 48.9531H34.9129Z" fill="#E50054"/>
<path d="M23.2898 68.91H52.6306C58.0533 68.8992 63.3124 67.0454 67.5499 63.6511C71.7875 60.2567 74.7534 55.5221 75.9639 50.2196C73.4323 49.3962 70.7894 48.969 68.1281 48.9532H57.898C57.0667 48.9532 56.2695 48.622 55.6817 48.0323C55.0939 47.4427 54.7637 46.6429 54.7637 45.809C54.7637 43.5853 53.8831 41.4527 52.3156 39.8803C50.7481 38.3079 48.6222 37.4246 46.4054 37.4246C44.1887 37.4246 42.0628 38.3079 40.4953 39.8803C38.9278 41.4527 38.0472 43.5853 38.0472 45.809C38.0472 46.6429 37.717 47.4427 37.1292 48.0323C36.5414 48.622 35.7442 48.9532 34.9129 48.9532H24.6393C22.371 48.9602 20.1148 49.2835 17.9353 49.9139V63.5387C17.9353 64.9633 18.4994 66.3295 19.5036 67.3368C20.5078 68.3441 21.8697 68.91 23.2898 68.91Z" fill="#A60D48"/>
<path d="M60.5535 124.501V109.129H67.301V111.356H62.9913V115.243H64.3843C66.7786 115.243 67.9975 116.597 67.9975 119.042V120.701C67.9975 123.147 66.7786 124.501 64.3843 124.501H60.5535ZM64.3843 122.274C65.1244 122.274 65.6032 121.924 65.6032 120.832V118.911C65.6032 117.819 65.1244 117.426 64.3843 117.426H62.9913V122.274H64.3843Z" fill="white"/>
<path d="M70.3047 112.841C70.3047 110.352 71.5672 108.955 73.9179 108.955C76.2687 108.955 77.5746 110.352 77.5746 112.841V120.789C77.5746 123.234 76.3122 124.675 73.9179 124.675C71.5237 124.675 70.3047 123.234 70.3047 120.789V112.841ZM72.699 120.964C72.699 122.055 73.1779 122.448 73.9179 122.448C74.658 122.448 75.1804 122.055 75.1804 120.964V112.666C75.1804 111.575 74.7015 111.182 73.9179 111.182C73.1344 111.182 72.699 111.575 72.699 112.666V120.964Z" fill="white"/>
<path d="M79.3159 122.317C80.4042 122.317 80.7525 122.143 80.796 120.745L81.1878 109.129H87.9789V124.501H85.541V111.356H83.4515L83.1903 120.614C83.1032 123.409 82.102 124.501 79.7077 124.501H79.3159V122.317Z" fill="white"/>
<path d="M90.7214 124.501V109.129H93.1157V114.893H94.2475C96.6418 114.893 97.8171 116.247 97.8171 118.693V120.701C97.8171 123.147 96.6418 124.501 94.2475 124.501H90.7214ZM94.2475 122.274C94.9875 122.274 95.4229 121.924 95.4229 120.832V118.562C95.4229 117.426 94.9875 117.077 94.2475 117.077H93.1157V122.274H94.2475Z" fill="white"/>
<path d="M100.124 124.501V109.129H102.519V122.274H104.608V109.129H107.003V122.274H109.092V109.129H111.486V124.501H100.124Z" fill="white"/>
<path d="M113.924 112.841C113.924 110.352 115.187 108.955 117.581 108.955C119.975 108.955 121.194 110.352 121.194 112.841V120.789C121.194 123.234 119.932 124.675 117.581 124.675C115.23 124.675 113.924 123.234 113.924 120.789V112.841ZM116.318 120.964C116.318 122.055 116.797 122.448 117.581 122.448C118.364 122.448 118.8 122.055 118.8 120.964V112.666C118.8 111.575 118.321 111.182 117.581 111.182C116.841 111.182 116.318 111.575 116.318 112.666V120.964Z" fill="white"/>
<path d="M126.113 124.501H123.632V109.129H125.765V118.867L126.636 115.461L128.595 109.129H131.25V124.501H129.073V113.671L128.116 117.426L126.113 124.501ZM128.551 105.723C128.507 106.553 128.116 106.727 127.463 106.727C126.81 106.727 126.505 106.553 126.461 105.723H124.981C125.025 107.208 125.808 108.168 127.463 108.168C129.117 108.168 130.031 107.208 130.031 105.723H128.551Z" fill="white"/>
<path d="M66.9527 150.265V148.038H61.3806V150.265H58.8557V145.724H59.857C60.3358 145.112 60.4664 144.501 60.5099 143.54L61.1194 131.357H68.3893V145.724H69.5647V150.265H66.9527ZM63.0783 143.497C62.9913 144.763 62.7736 145.287 62.3383 145.724H65.7338V133.758H63.5572L63.0783 143.497Z" fill="white"/>
<path d="M74.5709 138.387H78.1406V140.789H74.5709V145.637H79.0548V148.038H71.959V131.357H79.0548V133.758H74.5709V138.387Z" fill="white"/>
<path d="M80.8831 131.357H88.9365V133.758H86.194V148.038H83.5821V133.758H80.8831V131.357Z" fill="white"/>
<path d="M98.6008 141.837V144.021C98.6008 146.685 97.2513 148.213 94.6828 148.213C92.1144 148.213 90.8085 146.685 90.8085 144.021V135.374C90.8085 132.711 92.158 131.182 94.6828 131.182C97.2077 131.182 98.6008 132.711 98.6008 135.374V136.99H96.1194V135.2C96.1194 134.021 95.597 133.584 94.7699 133.584C93.9428 133.584 93.4204 134.021 93.4204 135.2V144.196C93.4204 145.375 93.9428 145.811 94.7699 145.811C95.597 145.811 96.1194 145.375 96.1194 144.196V141.837H98.6008Z" fill="white"/>
<path d="M104.565 141.401L103.738 142.929V148.038H101.126V131.357H103.738V138.649L107.177 131.357H109.789L106.132 138.78L109.789 148.038H107.09L104.565 141.401Z" fill="white"/>
<path d="M114.577 148.038H111.922V131.357H114.229V141.925L115.187 138.256L117.32 131.357H120.193V148.038H117.842V136.291L116.754 140.396L114.577 148.038Z" fill="white"/>
<path d="M125.678 148.038H122.979V131.357H125.33V141.925L126.244 138.256L128.42 131.357H131.25V148.038H128.943V136.291L127.854 140.396L125.678 148.038ZM128.333 127.645C128.29 128.562 127.898 128.737 127.158 128.737C126.418 128.737 126.113 128.562 126.07 127.645H124.415C124.502 129.261 125.33 130.309 127.158 130.309C128.986 130.309 129.944 129.261 129.944 127.645H128.333Z" fill="white"/>
<path d="M64.8632 156.554C66.9963 156.554 67.8669 157.733 67.8669 159.829V163.41C67.8669 165.506 66.9963 166.729 64.8632 166.729H63.7749V168.17H62.9478V166.729H61.8594C59.7264 166.729 58.8557 165.506 58.8557 163.41V159.829C58.8557 157.733 59.7264 156.554 61.8594 156.554H62.9478V155.025H63.7749V156.554H64.8632ZM61.8594 157.296C60.2923 157.296 59.6828 158.213 59.6828 159.785V163.497C59.6828 165.069 60.2923 165.943 61.8594 165.943H62.9478V157.296H61.8594ZM64.8632 165.943C66.3868 165.943 66.9963 165.069 66.9963 163.497V159.785C66.9963 158.213 66.4303 157.296 64.8632 157.296H63.7749V165.943H64.8632Z" fill="white"/>
<path d="M74.4838 161.095V161.881H70.9142V167.384H75.2239V168.17H70.0435V155.025H75.2239V155.811H70.9142V161.095H74.4838Z" fill="white"/>
<path d="M82.9726 158.213V159.305H82.1455V158.17C82.1455 156.772 81.6231 155.681 80.1865 155.681C78.75 155.681 78.1841 156.772 78.1841 158.17V164.982C78.1841 166.423 78.75 167.471 80.1865 167.471C81.6231 167.471 82.1455 166.423 82.1455 164.982V163.454H82.9726V164.938C82.9726 166.86 82.1455 168.257 80.143 168.257C78.1405 168.257 77.3134 166.86 77.3134 164.938V158.213C77.3134 156.336 78.1405 154.895 80.143 154.895C82.1455 154.895 82.9726 156.336 82.9726 158.213Z" fill="white"/>
<path d="M87.5871 168.17V155.811H84.8881V155.025H91.1132V155.811H88.4577V168.17H87.5871Z" fill="white"/>
<path d="M96.25 161.969L94.0734 168.17H93.1592V155.025H93.9428V166.248L95.8147 160.877L97.9477 155.025H98.9925V168.17H98.2089V156.554L96.25 161.969Z" fill="white"/>
<path d="M103.955 155.025C105.914 155.025 106.654 155.986 106.654 157.82V158.563C106.654 160.004 106.262 160.877 104.913 161.139C106.35 161.445 106.872 162.493 106.872 163.978V165.113C106.872 166.991 106.001 168.17 103.999 168.17H101.213V155.025H103.955ZM103.52 160.833C105.044 160.833 105.784 160.397 105.784 158.737V157.864C105.784 156.51 105.348 155.811 103.955 155.811H102.083V160.833H103.52ZM103.999 167.384C105.435 167.384 106.001 166.554 106.001 165.113V163.89C106.001 162.187 105.261 161.619 103.694 161.619H102.083V167.384H103.999Z" fill="white"/>
<path d="M110.267 165.244L109.614 168.17H108.831L111.704 154.982H112.966L115.883 168.17H115.012L114.359 165.244H110.267ZM110.398 164.502H114.229L112.313 155.986L110.398 164.502Z" fill="white"/>
<path d="M120.541 155.811L120.193 164.938C120.149 166.729 119.845 168.126 117.886 168.17H117.755V167.384C119.192 167.384 119.322 166.292 119.322 164.982L119.757 155.025H124.633V168.17H123.762V155.811H120.541Z" fill="white"/>
<path d="M129.335 160.44C131.468 160.44 132.425 161.445 132.425 163.541V164.982C132.425 166.86 131.642 168.17 129.596 168.17H126.897V155.025H127.767V160.44H129.335ZM129.596 167.384C131.032 167.384 131.555 166.467 131.555 165.026V163.497C131.555 161.881 130.858 161.226 129.335 161.226H127.767V167.384H129.596Z" fill="white"/>
<path d="M70.9142 189H70.74C70.6485 188.958 70.571 188.89 70.517 188.805C70.4629 188.72 70.4345 188.621 70.4353 188.52V178.083H60.9017C60.7665 178.073 60.6394 178.014 60.5435 177.918C60.4477 177.822 60.3894 177.694 60.3793 177.559C60.3793 177.42 60.4344 177.286 60.5323 177.188C60.6303 177.09 60.7632 177.035 60.9017 177.035H70.9142C71.0527 177.035 71.1856 177.09 71.2835 177.188C71.3815 177.286 71.4366 177.42 71.4366 177.559V186.991L79.1853 177.209C79.288 177.102 79.4287 177.039 79.5771 177.035H99.9067C100.045 177.035 100.178 177.09 100.276 177.188C100.374 177.286 100.429 177.42 100.429 177.559C100.429 177.698 100.374 177.831 100.276 177.929C100.178 178.028 100.045 178.083 99.9067 178.083H79.8383L71.3495 188.782C71.2958 188.846 71.2294 188.899 71.1545 188.936C71.0796 188.974 70.9978 188.996 70.9142 189Z" fill="white"/>
</g>
<defs>
<clipPath id="clip0_394_893">
<rect width="140" height="189" fill="white"/>
</clipPath>
</defs>
</svg>
