<svg width="130" height="55" viewBox="0 0 130 55" fill="none" xmlns="http://www.w3.org/2000/svg">
<path d="M39.62 5.56611H39.5911L38.5498 11.419H37.3928L39.2151 2.2093L42.2811 9.18113L45.3472 2.2093L47.1695 11.419H46.0414L45.0001 5.56611H44.9712L42.2811 11.6198L39.62 5.56611Z" fill="#264984"/>
<path d="M58.0453 7.00064C58.0453 9.64018 55.9627 11.6198 53.3595 11.6198C50.7851 11.6198 48.6736 9.64018 48.6736 7.00064C48.6736 4.47586 50.7851 2.38145 53.3595 2.38145C55.9338 2.38145 58.0453 4.44717 58.0453 7.00064ZM56.9173 7.00064C56.9173 5.04968 55.4421 3.41431 53.3595 3.41431C51.2769 3.41431 49.8017 5.04968 49.8017 7.00064C49.8017 9.00899 51.4215 10.587 53.3595 10.587C55.2975 10.587 56.9173 9.00899 56.9173 7.00064Z" fill="#264984"/>
<path d="M67.0121 4.27503C66.3758 3.70122 65.508 3.41431 64.6692 3.41431C62.6734 3.41431 61.1403 5.07837 61.1403 7.02933C61.1403 8.9803 62.6444 10.6157 64.6403 10.6157C65.508 10.6157 66.3469 10.3001 67.0121 9.69757V10.9886C66.3179 11.3903 65.4502 11.6198 64.6692 11.6198C62.1238 11.6198 60.0122 9.61149 60.0122 7.05803C60.0122 4.44718 62.1238 2.41014 64.756 2.41014C65.5369 2.41014 66.3179 2.61097 67.0121 3.01264V4.27503Z" fill="#264984"/>
<path d="M74.2723 2.58228H75.7186L71.7269 6.54159L75.8054 11.419H74.3013L70.9459 7.31624L70.4831 7.71791V11.419H69.384V2.58228H70.4831V6.39814L74.2723 2.58228Z" fill="#264984"/>
<path d="M85.8135 7.00064C85.8135 9.64018 83.7309 11.6198 81.1276 11.6198C78.5533 11.6198 76.4417 9.64018 76.4417 7.00064C76.4417 4.47586 78.5533 2.38145 81.1276 2.38145C83.7019 2.38145 85.8135 4.44717 85.8135 7.00064ZM84.7143 7.00064C84.7143 5.04968 83.2391 3.41431 81.1565 3.41431C79.0739 3.41431 77.5987 5.04968 77.5987 7.00064C77.5987 9.00899 79.2185 10.587 81.1565 10.587C83.0656 10.587 84.7143 9.00899 84.7143 7.00064Z" fill="#264984"/>
<path d="M88.0696 2.58228H89.1688C90.8464 2.58228 92.4373 3.01264 92.4373 5.02099C92.4373 5.68087 92.0902 6.42683 91.4828 6.71374V6.74243C92.5241 6.94326 93.2761 7.94744 93.2761 8.9803C93.2761 10.7591 91.7431 11.4477 90.1812 11.4477H88.0985V2.58228H88.0696ZM89.1977 6.48421H89.487C90.5283 6.48421 91.396 6.28338 91.396 4.9923C91.396 3.7586 90.5572 3.52907 89.5159 3.52907H89.1977V6.48421ZM90.0365 10.4435C91.0778 10.4435 92.1481 10.1279 92.1481 8.89423C92.1481 7.66053 90.8754 7.40231 89.863 7.40231H89.1688V10.4435H90.0365Z" fill="#264984"/>
<path d="M102.214 4.27503C101.578 3.70122 100.71 3.41431 99.8711 3.41431C97.8752 3.41431 96.3422 5.07837 96.3422 7.02933C96.3422 8.9803 97.8463 10.6157 99.8422 10.6157C100.71 10.6157 101.549 10.3001 102.214 9.69757V10.9886C101.52 11.3903 100.652 11.6198 99.8711 11.6198C97.3257 11.6198 95.2141 9.61149 95.2141 7.05803C95.2141 4.44718 97.3257 2.41014 99.9579 2.41014C100.739 2.41014 101.52 2.61097 102.214 3.01264V4.27503Z" fill="#264984"/>
<path d="M109.474 2.58228H110.92L106.9 6.54159L110.978 11.419H109.474L106.119 7.31624L105.685 7.71791V11.419H104.557V2.58228H105.685V6.39814L109.474 2.58228Z" fill="#264984"/>
<path d="M118.354 11.419V5.10706L112.945 11.792V2.58228H114.073V8.72208L119.482 2.15192V11.419H118.354Z" fill="#264984"/>
<path d="M127.61 11.419V5.10706L122.201 11.7633V2.55359H123.3V8.72208L128.709 2.12323V11.3903H127.61V11.419ZM127.726 0.172266C127.524 1.0043 126.656 1.75025 125.586 1.75025C124.544 1.75025 123.705 1.09037 123.474 0.200957L124.313 0.00012207C124.573 0.573935 124.92 0.946914 125.586 0.946914C126.251 0.946914 126.627 0.602626 126.887 0.00012207L127.726 0.172266Z" fill="#264984"/>
<path d="M39.1862 18.5056V26.3382H38.087V17.4727H42.6572V18.5056H39.1862Z" fill="#264984"/>
<path d="M48.0662 26.3382H46.9381L48.529 23.2109L45.5497 17.4727H46.7645L49.1075 22.0919L51.4793 17.4727H52.6942L48.0662 26.3382Z" fill="#264984"/>
<path d="M57.033 21.2886H57.9296C59.7519 21.2886 61.1114 22.0632 61.1114 23.8708C61.1114 25.6496 59.5784 26.3382 58.0164 26.3382H55.9338V17.4727H60.2437V18.4769H57.0619V21.2886H57.033ZM57.8718 25.3627C58.9131 25.3627 59.9833 25.0471 59.9833 23.8134C59.9833 22.5797 58.7106 22.3215 57.6982 22.3215H57.004V25.3627H57.8718Z" fill="#264984"/>
<path d="M64.6403 17.4727H69.4418V18.5056H65.7683V20.973H69.3261V21.9772H65.7683V25.334H69.4418V26.3382H64.6403V17.4727Z" fill="#264984"/>
<path d="M74.2434 26.3382H73.1442V17.4727H74.417C77.1648 17.4727 78.0037 18.4195 78.0037 20.0262C78.0037 21.8911 76.5574 22.6084 74.8798 22.6084H74.2434V26.3382ZM74.2434 21.6329H74.5905C75.7186 21.6329 76.9624 21.432 76.9624 20.0262C76.9624 18.6491 75.6318 18.4769 74.5327 18.4769H74.2434V21.6329Z" fill="#264984"/>
<path d="M86.768 21.0591V17.4727H87.8961V26.3382H86.768V22.0919H82.516V26.3382H81.4168V17.4727H82.516V21.0591H86.768Z" fill="#264984"/>
<path d="M98.5116 19.1655C97.8752 18.5917 97.0075 18.3048 96.1687 18.3048C94.1728 18.3048 92.6398 19.9688 92.6398 21.9198C92.6398 23.8708 94.1439 25.5061 96.1397 25.5061C97.0075 25.5061 97.8463 25.1905 98.5116 24.588V25.8791C97.8174 26.2808 96.9496 26.5103 96.1687 26.5103C93.6232 26.5103 91.5117 24.5019 91.5117 21.9485C91.5117 19.3376 93.6232 17.3006 96.2554 17.3006C97.0364 17.3006 97.8174 17.5014 98.5116 17.9031V19.1655Z" fill="#264984"/>
<path d="M107.045 17.4727H108.491L104.47 21.4607L108.578 26.3382H107.073L103.689 22.2067L103.255 22.6371V26.3382H102.127V17.4727H103.255V21.3173L107.045 17.4727Z" fill="#264984"/>
<path d="M117.226 26.3382V20.0262L111.817 26.7111V17.4727H112.945V23.6412L118.325 17.0711V26.3382H117.226Z" fill="#264984"/>
<path d="M127.755 26.3382V20.0262L122.375 26.6824V17.4727H123.474V23.6412L128.883 17.0424V26.3095H127.755V26.3382ZM127.9 15.0914C127.697 15.9234 126.829 16.6694 125.759 16.6694C124.718 16.6694 123.879 16.0095 123.648 15.1201L124.486 14.9193C124.747 15.4931 125.094 15.8661 125.759 15.8661C126.424 15.8661 126.8 15.5218 127.061 14.9193L127.9 15.0914Z" fill="#264984"/>
<path d="M45.434 54.8854H43.9877V33.7977H38.1448V32.4493H51.2769V33.7977H45.434V54.8854Z" fill="#264984"/>
<path d="M60.0122 33.7977V41.9459H69.1526V43.2943H60.0122V53.5369H69.384V54.8854H58.5949V32.4493H69.384V33.7977H60.0122Z" fill="#264984"/>
<path d="M80.954 47.5119L77.9169 54.8854H76.4417L85.9292 31.732L95.3877 54.8854H93.9125L90.8754 47.5119H80.954ZM85.9292 35.347L81.5036 46.1634H90.3547L85.9292 35.347Z" fill="#264984"/>
<path d="M105.83 54.8854H104.383V33.7977H98.5405V32.4493H111.673V33.7977H105.83V54.8854Z" fill="#264984"/>
<path d="M120.437 54.8854H118.991V32.4493H122.982C124.747 32.4493 126.453 32.564 127.871 33.769C129.259 34.9167 129.895 36.6381 129.895 38.3882C129.895 39.9949 129.259 41.7737 128.015 42.8066C126.627 43.9829 124.747 44.2411 122.982 44.2411H120.437V54.8854ZM123.04 42.8927C124.515 42.8927 125.817 42.7205 127.003 41.659C127.986 40.7696 128.478 39.5932 128.478 38.3022C128.478 36.8963 127.9 35.5192 126.771 34.6871C125.643 33.8264 124.197 33.7977 122.809 33.7977H120.437V42.8927H123.04Z" fill="#264984"/>
<path d="M0.513257 2.23799C0.310781 2.23799 0.13723 2.35276 0.0504551 2.5249C-0.0363203 2.69704 -0.00739519 2.92657 0.108305 3.07002L4.0132 8.0622C2.74049 8.40649 1.81489 9.55411 1.81489 10.9313C1.81489 12.4519 2.97189 13.7143 4.476 13.8864C4.44707 14.0872 4.41815 14.2594 4.41815 14.4602C4.41815 15.034 4.56278 15.5792 4.8231 16.0956C3.26115 17.9605 2.21984 20.3131 2.01736 22.924C1.61241 28.203 4.64955 32.937 9.24865 34.974C8.49659 35.6339 8.00487 36.6094 8.00487 37.6996C8.00487 39.0194 8.72799 40.167 9.7693 40.7982C8.78584 41.286 8.09164 42.2902 8.09164 43.4665C8.09164 44.9297 9.16187 46.1634 10.5792 46.3929V55.0001H12.7775V48.8029C12.7775 47.8848 13.2114 47.1389 13.732 47.1389C14.2527 47.1389 14.6866 47.8848 14.6866 48.8029V55.0001H17.5791V48.8029C17.5791 47.8848 18.0997 47.1389 18.765 47.1389C19.4303 47.1389 19.9509 47.8848 19.9509 48.8029V55.0001H23.6534V48.8029C23.6534 47.8848 24.4054 47.1389 25.331 47.1389C26.2566 47.1389 27.0087 47.8848 27.0087 48.8029V55.0001H30.5954V2.26668L0.513257 2.23799ZM29.1491 19.1942H29.1202C27.8764 17.0137 26.0831 15.2062 23.9137 13.9438H29.1491V19.1942ZM3.20329 4.01681H29.1491V5.13575H9.71145L10.2032 7.60315H5.95118L3.20329 4.01681ZM4.8231 11.1034C4.27352 11.1034 3.83965 10.673 3.83965 10.1279C3.83965 9.5828 4.27352 9.15244 4.8231 9.15244H29.1491V11.1321L4.8231 11.1034ZM5.66193 20.5426C7.94702 15.1201 14.2816 12.5379 19.7485 14.8045C24.0872 16.612 27.1244 19.5672 29.1491 24.1003V33.31C27.4136 22.1493 23.017 18.7925 18.7939 17.0424C14.5709 15.2922 9.68252 17.2719 7.91809 21.4607C6.55861 24.7028 8.09164 28.4326 11.3602 29.781C13.8477 30.8139 16.7113 29.6376 17.7526 27.1702C18.1287 26.2808 18.1287 25.2766 17.7526 24.3872C17.608 24.0716 17.4345 23.7847 17.232 23.5265C16.8849 22.9527 16.3064 22.5223 15.5833 22.3788C15.5543 22.3788 15.5543 22.3788 15.5254 22.3788C15.4386 22.3501 15.3518 22.3501 15.2651 22.3215C13.9056 22.2067 12.6907 23.2396 12.604 24.588C12.5461 25.3053 12.8064 25.9939 13.2982 26.4816C12.8354 26.6251 12.2858 26.4816 11.9676 26.0512C10.8974 24.6741 10.8685 22.9813 11.9098 21.6329C13.0668 20.141 15.1494 19.5098 16.7403 20.1697C18.2444 20.8009 19.4303 21.9485 20.0377 23.4691C20.6451 24.961 20.6451 26.6251 20.0088 28.117C19.2567 29.8958 17.8394 31.3016 16.0171 32.0476C14.1948 32.7935 12.199 32.7649 10.4057 32.0189C5.92226 30.1827 3.7818 25.0184 5.66193 20.5426ZM21.1947 36.5807C21.3394 37.1545 21.484 38.0439 21.1947 38.7325C20.7319 39.7941 19.1989 40.0523 18.1287 40.081H17.6948C17.2609 40.081 16.9717 40.0236 16.9717 40.0236C16.9717 40.0236 17.4634 39.9662 17.8105 39.4785C18.1287 38.962 17.8394 38.3022 18.4468 37.5275C19.0543 36.7529 20.1245 36.7816 20.2691 36.5233C20.298 36.466 20.298 36.4086 20.327 36.3799C20.1245 36.3512 19.922 36.3225 19.6906 36.3225C17.8683 36.3225 16.075 38.1874 15.1204 38.962C13.6163 40.1384 12.199 40.0523 11.3023 39.2203C10.1743 38.1874 11.0131 36.9824 11.0131 36.9824C11.2156 36.6094 11.6205 36.3512 12.0833 36.3512C12.7486 36.3512 13.3271 36.8963 13.3271 37.5849C13.3271 38.13 12.98 38.5891 12.4883 38.7325C13.1535 39.0481 14.2816 38.6178 14.889 37.9005C15.67 36.9537 17.4634 34.6584 20.0088 34.6011C22.2939 34.5437 24.6368 36.3512 25.1285 37.8718C25.6203 36.5233 25.6492 33.769 25.3021 33.769C25.0996 33.769 23.9137 34.4863 23.017 34.0846C22.0046 33.6256 20.9055 32.4493 20.9055 32.4493C20.9055 32.4493 21.484 31.7033 22.5253 31.4738C23.9426 31.1582 24.6079 31.7607 24.7525 31.6459C24.955 31.5312 23.7401 31.0147 23.2773 30.4983C22.4385 29.5802 22.6699 28.2317 22.6699 28.2317L24.4343 28.8342C24.4343 28.8342 23.6534 27.6005 23.422 26.5677C23.1906 25.5635 23.5666 24.3011 23.5666 24.3011C23.5666 24.3011 26.1988 28.5186 26.864 34.4863C27.2401 37.9292 26.7773 39.5072 26.4591 40.1384H22.265C22.5542 39.8515 22.7567 39.4498 22.7567 38.9333C22.7567 37.9579 22.236 37.0398 21.1947 36.5807ZM29.1491 43.8108H10.9263C10.3767 43.8108 9.94285 43.3804 9.94285 42.8353C9.94285 42.2902 10.3767 41.8598 10.9263 41.8598H29.1491V43.8108Z" fill="#264984"/>
</svg>
