<svg width="117" height="55" viewBox="0 0 117 55" fill="none" xmlns="http://www.w3.org/2000/svg">
<path fill-rule="evenodd" clip-rule="evenodd" d="M82.5447 21.0537C81.7295 17.7416 78.8409 12.9571 69.952 12.9571C68.1001 12.9571 63.2112 13.4725 62.3223 13.4725C62.3965 13.1777 63.2854 10.6752 63.4331 10.3072C62.8409 10.0124 61.2851 9.71819 59.0607 9.64449C53.8757 9.49764 47.5793 11.7053 43.6535 14.5763C43.2107 15.9013 42.3943 17.9621 41.8757 19.2134C45.9499 17.0788 51.949 14.8684 56.5429 14.4284C59.654 14.1341 60.839 14.7232 61.2093 14.9437C61.5795 15.0911 58.5426 16.1213 58.6168 17.2994C58.6168 18.7712 64.839 17.152 68.9115 17.2994C75.9484 17.5194 79.0595 19.9493 80.1709 23.4088C81.5784 27.6784 79.0595 31.8001 75.9484 33.3456C79.8 32.3886 83.9484 26.8683 82.5414 21.0531L82.5447 21.0537Z" fill="#EE3445"/>
<path fill-rule="evenodd" clip-rule="evenodd" d="M59.0642 9.64433C61.2864 9.71803 62.8422 10.0123 63.4367 10.3071C63.2889 10.675 62.4 13.1775 62.3258 13.4723C63.2147 13.4723 68.1036 12.957 69.9555 12.957C78.8444 12.957 81.733 17.742 82.5483 21.0535C82.7524 21.947 82.8518 22.8609 82.8444 23.7771C83.3624 21.3478 83.3624 18.4036 83.0658 16.7844C82.5477 13.4723 79.5844 8.83473 71.4361 8.68733C69.5842 8.68733 64.6953 9.20268 63.8806 9.20268C63.9547 8.90843 64.8436 6.40538 64.9178 6.03798C64.3997 5.74318 63.0658 5.22783 60.8436 5.15468C55.5856 5.08098 49.2881 7.21553 45.3623 10.086C44.9195 11.4109 44.1773 13.3249 43.6587 14.5762C47.5845 11.7052 53.8809 9.49748 59.0659 9.64433H59.0642Z" fill="#00B2E9"/>
<path fill-rule="evenodd" clip-rule="evenodd" d="M82.9134 11.5582C82.1722 8.90834 79.2836 4.63925 72.9131 4.49185C71.0612 4.49185 66.3948 4.8598 65.3576 4.93185C65.4318 4.71185 66.1723 2.5025 66.3206 2.13455C65.8779 1.54605 64.5429 1.0307 62.3207 0.956999C57.0626 0.809599 50.8393 3.16525 46.9135 6.1094C46.4707 7.43435 45.3577 10.2344 45.3577 10.0842C49.2835 7.2138 55.5798 5.07925 60.839 5.15295C63.0612 5.2261 64.3951 5.74145 64.9131 6.03625C64.839 6.40365 63.9501 8.90669 63.8759 9.20094C64.6906 9.20094 69.5795 8.6856 71.4315 8.6856C79.5798 8.83299 82.5431 13.4706 83.0611 16.7827C83.2095 17.5923 83.2825 18.8435 83.2095 20.1685C83.6522 17.3717 83.5797 14.2802 82.9134 11.5566V11.5582Z" fill="white"/>
<path fill-rule="evenodd" clip-rule="evenodd" d="M66.3216 2.13635C66.4699 1.7684 66.543 1.40045 66.6177 1.25305C66.0991 0.813055 64.6916 0.0755057 62.6177 0.00180571C57.4327 -0.0718943 51.2105 2.28375 47.2864 5.15475C47.2122 5.449 47.065 5.74325 46.9161 6.1112C50.8403 3.24075 57.1366 0.811405 62.3216 0.958805C64.4697 1.03251 65.803 1.54785 66.3216 2.13635ZM82.766 10.3803C82.1732 7.9515 79.3582 3.535 72.9882 3.535C70.8396 3.535 66.8402 3.82925 65.6552 3.975C65.5069 4.49035 65.3586 4.8583 65.3586 4.932C66.3958 4.8583 71.0621 4.492 72.9141 4.492C79.2846 4.6394 82.1732 8.9085 82.9143 11.5584C83.0621 12.2184 83.1357 12.8096 83.284 13.4724C83.1363 12.2206 82.9879 11.1167 82.766 10.3803Z" fill="#0062A1"/>
<path d="M0 54.2026H34.7634V50.9621H0V54.2026Z" fill="#0062A1"/>
<path d="M33.0139 32.569H29.7528V41.8238H33.0139V32.569Z" fill="#0062A1"/>
<path d="M23.8333 32.569H20.5722V41.8238H23.8333V32.569Z" fill="#0062A1"/>
<path d="M14.4131 32.569H11.152V41.8238H14.4131V32.569Z" fill="#0062A1"/>
<path d="M5.23257 32.569H1.97147V41.8238H5.23257V32.569Z" fill="#0062A1"/>
<path d="M2.02407 48.2472H33.0664V45.0066H2.02407V48.2472Z" fill="#0062A1"/>
<path d="M17.2032 18.0754H17.1982L0.11067 26.5239L1.38367 29.3586H33.3952L34.6682 26.5239L17.2032 18.0754ZM17.2004 21.5293L26.7368 26.2318H7.87541L17.2004 21.5293Z" fill="#0062A1"/>
<path d="M45.2015 33.3219V27.3934H42.8287V33.3219H41.8917V26.6366H46.139V33.3219H45.2015Z" fill="#0062A1"/>
<path d="M51.2658 30.2947C50.9243 30.557 50.5629 30.7022 49.85 30.7022H48.737V33.3219H47.7994V26.6366H49.596C50.4649 26.6366 50.8363 26.7241 51.1972 26.9474C51.7734 27.306 52.0861 27.8692 52.0861 28.577C52.0861 29.3338 51.8608 29.8387 51.2658 30.2947ZM50.6985 27.7234C50.4644 27.5001 50.1323 27.3934 49.6054 27.3934H48.7364V29.9454H49.7808C50.2402 29.9454 50.533 29.8387 50.7478 29.567C50.9332 29.3338 51.0306 29.0627 51.0306 28.6744C51.0306 28.2476 50.9243 27.9368 50.6985 27.7234Z" fill="#0062A1"/>
<path d="M55.5919 33.4192C53.7367 33.4192 52.8184 31.954 52.8184 29.9647C52.8184 27.7718 53.8927 26.5393 55.5432 26.5393C57.5252 26.5393 58.3067 28.1794 58.3067 30.0329C58.3067 32.0607 57.3005 33.4192 55.5919 33.4192ZM55.5626 27.2592C54.3516 27.2592 53.8734 28.142 53.8734 29.8404C53.8734 31.5388 54.2735 32.7004 55.6113 32.7004C56.6562 32.7004 57.2518 31.9535 57.2518 30.1C57.2518 28.3059 56.8317 27.2576 55.5626 27.2576V27.2592Z" fill="#0062A1"/>
<path d="M59.0649 33.3219V26.6366H62.7267L62.5983 27.4127H60.0025V29.4504H62.1799V30.2072H60.0025V32.5458H62.8341V33.3219H59.0649Z" fill="#0062A1"/>
<path d="M68.6252 27.1993L68.3025 27.2768C68.1725 27.3051 68.0516 27.3652 67.951 27.4517C67.8243 27.5683 67.785 27.7036 67.7462 27.8494L67.5116 28.6936C67.4335 28.9653 67.3749 29.2662 67.0821 29.5379C66.9718 29.6396 66.8424 29.7187 66.7013 29.7705V29.7805C66.8431 29.8309 66.9728 29.9101 67.0821 30.0131C67.3261 30.2463 67.4142 30.557 67.4822 30.7897L67.8442 32.0415C67.873 32.1575 67.9117 32.3225 68.039 32.449C68.1464 32.5557 68.3224 32.614 68.4979 32.669L68.7419 32.7466L68.5759 33.3972L68.0877 33.3488C67.8237 33.3191 67.4789 33.2614 67.2476 33.0282C67.0328 32.8247 66.9448 32.5139 66.8861 32.223L66.6421 31.0586C66.5934 30.8254 66.486 30.5246 66.3199 30.3695C66.1245 30.1759 65.8511 30.1462 65.6657 30.1462H64.9041V33.3191H63.9571V26.6367H64.9041V29.3921H65.6657C65.8611 29.3921 66.2031 29.3822 66.4373 29.1595C66.6127 28.9846 66.6714 28.7519 66.7201 28.5187L66.9061 27.6552C66.9647 27.4033 67.0228 27.1415 67.2282 26.9375C67.4723 26.685 67.8237 26.6268 68.0091 26.6075L68.4392 26.5591L68.6252 27.1993Z" fill="#0062A1"/>
<path d="M73.4587 27.4127H71.7208V33.3219H70.7832V27.4127H69.0353V26.6366H73.5572L73.4587 27.4127Z" fill="#0062A1"/>
<path d="M43.6423 39.4192H44.0242C44.2295 39.4192 44.467 39.3999 44.6402 39.225C44.7969 39.0793 44.8456 38.8554 44.8849 38.6805L45.0509 37.9809C45.129 37.6509 45.2369 37.3974 45.4909 37.2032C45.7843 36.9794 46.1462 36.9211 46.4872 36.8826L46.9665 36.8342L47.3672 37.9342L46.9765 38.0442C46.8751 38.0642 46.7786 38.1038 46.6925 38.1608C46.5752 38.2581 46.5265 38.4132 46.4872 38.5298L46.3012 39.1348C46.1645 39.5748 46.0472 39.7475 45.9691 39.8251C45.8211 39.9688 45.6342 40.0666 45.4311 40.1067V40.1457C45.655 40.2169 45.8547 40.348 46.0084 40.5247C46.1551 40.6996 46.2331 40.9036 46.3018 41.0983L46.6339 42.0702C46.6925 42.255 46.7711 42.3815 46.8979 42.4689C47.0058 42.5465 47.1525 42.5855 47.2698 42.624L47.5438 42.712L47.1912 43.839L46.6732 43.8005C46.2304 43.7713 45.6653 43.713 45.3332 43.3242C45.0985 43.0492 45.0199 42.6532 44.9806 42.4689L44.8046 41.6522C44.7559 41.4481 44.6873 41.1957 44.5212 41.0499C44.3452 40.8943 44.1006 40.8651 43.9246 40.8651H43.6406V43.713H41.8917V36.931H43.6423V39.4192Z" fill="#0062A1"/>
<path d="M51.4972 41.8199C51.1552 42.695 50.9493 43.278 50.6166 43.6085C50.3039 43.9291 49.8733 44.0656 49.4233 44.1332L48.8754 44.2212L48.2793 43.0547L48.6701 42.9865C48.9147 42.948 49.218 42.8308 49.404 42.6757C49.5213 42.5784 49.668 42.4035 49.8147 41.9948L49.8539 41.8881L49.3149 41.9464C49.2368 41.6164 49.1388 41.3051 48.8842 40.6539L47.4369 36.931H49.3647L50.2159 39.5556C50.3225 39.8919 50.401 40.2365 50.4506 40.5857H50.4899C50.558 40.1875 50.7146 39.4384 50.8519 39.0303L51.5465 36.931H53.3951L51.4972 41.8199Z" fill="#0062A1"/>
<path d="M56.7696 43.7059V38.2917H55.7031L55.6738 39.1084C55.6644 39.3224 55.6057 40.7898 55.4684 41.8034C55.4098 42.2434 55.3123 42.7934 54.9404 43.174C54.5391 43.5821 53.9619 43.6795 53.5711 43.7378L53.0525 43.8153L52.6911 42.5976L52.9457 42.53C53.1135 42.4823 53.2745 42.4138 53.425 42.3259C53.5923 42.2189 53.7168 42.0573 53.777 41.8689C53.8844 41.5675 53.9624 41.0136 53.9823 40.8189C54.0803 39.9939 54.129 38.9335 54.1484 38.1652L54.1777 36.931H58.5209V43.7059H56.7696Z" fill="#0062A1"/>
<path d="M62.1395 39.4192C62.6481 39.4192 63.4994 39.4384 64.0567 39.8762C64.6656 40.3525 64.7314 41.1011 64.7314 41.4712C64.7314 42.3556 64.4287 42.871 64.1348 43.1531C63.6068 43.6679 62.9725 43.707 62.5297 43.707H59.7922V36.931H61.5428V39.4192H62.1395ZM61.4941 42.2577H62.0908C62.1882 42.2577 62.4035 42.2478 62.5601 42.0828C62.6481 41.9855 62.7361 41.8199 62.7361 41.5477C62.7361 41.2661 62.6681 41.1011 62.5895 41.0037C62.5305 40.9356 62.4567 40.8819 62.3736 40.8465C62.2905 40.8111 62.2004 40.7951 62.1102 40.7997H61.4941V42.2577Z" fill="#0062A1"/>
<path d="M69.3978 38.3692H67.8126V43.7042H66.0415V38.3692H64.458V36.931H69.6053L69.3978 38.3692Z" fill="#0062A1"/>
<path d="M73.545 41.8199C73.2024 42.695 72.9971 43.278 72.6645 43.6085C72.3517 43.9291 71.9211 44.0656 71.4712 44.1332L70.9238 44.2212L70.3271 43.0547L70.7184 42.9865C70.9625 42.948 71.2658 42.8308 71.4518 42.6757C71.5691 42.5784 71.7158 42.4035 71.8625 41.9948L71.9018 41.8881L71.3638 41.9464C71.2857 41.6164 71.1878 41.3051 70.9332 40.6539L69.4858 36.931H71.4125L72.2637 39.5556C72.3701 39.892 72.4486 40.2365 72.4984 40.5857H72.5377C72.6063 40.1875 72.7624 39.4384 72.8991 39.0303L73.5938 36.931H75.4424L73.545 41.8199Z" fill="#0062A1"/>
<path d="M77.9955 36.931C78.5922 36.931 79.4346 36.97 80.0301 37.4172C80.6173 37.8572 80.7441 38.4666 80.7441 39.0402C80.7441 39.5352 80.6367 40.2843 79.9814 40.7898C79.4235 41.2298 78.6315 41.2952 78.0741 41.2952H77.5262V43.7059H75.7755V36.931H77.9955ZM78.0348 39.9147C78.1715 39.9147 78.4355 39.9147 78.6021 39.7888C78.8268 39.6139 78.8368 39.2344 78.8368 39.0694C78.8368 38.8945 78.8268 38.6805 78.7095 38.5447C78.5628 38.3692 78.2988 38.35 78.1328 38.35H77.524V39.9147H78.0348Z" fill="#0062A1"/>
<path d="M84.256 43.7059L83.9039 42.4051H82.29L81.9181 43.7075H80.0794L82.2706 36.9326H84.0894L86.1533 43.7075L84.256 43.7059ZM83.2597 39.8278C83.1882 39.5148 83.1458 39.1959 83.1329 38.8752C83.0964 39.2386 83.0343 39.599 82.947 39.9538L82.673 41.062H83.5536L83.2597 39.8278Z" fill="#0062A1"/>
<path d="M47.5548 54.0101L47.3888 51.0841C47.3689 50.7541 47.3595 50.8999 47.3401 49.9181H47.3301C47.1442 50.841 47.2128 50.5693 47.0955 50.9967L46.2652 54.0101H44.7764L44.053 51.0748C43.9556 50.6905 43.8803 50.301 43.8277 49.9082H43.8178C43.8277 50.3455 43.8083 50.6568 43.7884 51.1138L43.6523 54.0101H41.8917L42.5558 47.2352H44.6978L45.362 50.1123C45.4893 50.6859 45.5385 50.9191 45.5872 51.2007H45.5972C45.7533 50.4038 45.7632 50.4137 45.8612 50.0149L46.5558 47.2352H48.6291L49.2596 54.0101H47.5548Z" fill="#0062A1"/>
<path d="M53.8058 54.0101L53.4538 52.7072H51.8393L51.4679 54.0101H49.6287L51.8199 47.2352H53.6392L55.7031 54.0101H53.8058ZM52.8095 50.1321C52.7378 49.8191 52.6952 49.5002 52.6822 49.1795C52.6462 49.5429 52.5841 49.9034 52.4962 50.258L52.2212 51.3701H53.1012L52.8095 50.1321Z" fill="#0062A1"/>
<path d="M59.5669 54.0101V48.5981H58.5026L58.4732 49.4149C58.4633 49.6288 58.4046 51.0962 58.2679 52.1071C58.2087 52.5471 58.1113 53.0971 57.7393 53.4777C57.3381 53.8858 56.7613 53.9832 56.37 54.0415L55.8514 54.119L55.49 52.9041L55.744 52.8364C55.9119 52.7888 56.073 52.7201 56.2234 52.6318C56.3907 52.5252 56.5153 52.3637 56.5754 52.1753C56.6827 51.8739 56.7613 51.3201 56.7807 51.1254C56.8787 50.3004 56.9274 49.24 56.9467 48.4716L56.9761 47.2374H61.3187V54.0101H59.5669Z" fill="#0062A1"/>
<path d="M67.7247 53.079C67.4407 53.4678 66.8347 54.1289 65.3674 54.1289C64.2427 54.1289 63.4795 53.7203 62.9874 53.0889C62.6554 52.661 62.2934 51.9421 62.2934 50.7948C62.2934 49.609 62.5867 48.6564 63.2896 47.9568C63.837 47.4123 64.5316 47.1208 65.4216 47.1208C66.2142 47.1208 67.1823 47.3348 67.8282 48.2577C68.3169 48.9578 68.4148 49.6772 68.4148 50.3669C68.4193 51.3701 68.2826 52.3013 67.7247 53.079ZM66.0814 48.734C65.995 48.6501 65.8924 48.5844 65.7797 48.541C65.6671 48.4977 65.5468 48.4774 65.4261 48.4815C65.2014 48.4815 64.82 48.5398 64.5754 48.9287C64.5067 49.0359 64.2521 49.4633 64.2521 50.6001C64.2521 51.9201 64.4968 52.3211 64.6828 52.496C64.7907 52.6032 65.0254 52.7583 65.3967 52.7583C65.6021 52.7583 65.8761 52.7193 66.0914 52.496C66.3681 52.2138 66.4627 51.6891 66.4627 50.5809C66.4627 49.4341 66.326 48.9771 66.0814 48.734Z" fill="#0062A1"/>
<path d="M72.8017 54.0101V51.2051C72.8017 50.9043 72.831 50.3114 72.8603 49.9319C72.7037 50.3719 72.5764 50.6804 72.4004 51.0869L71.1484 54.0101H69.2998V47.2374H71.0505V50.0468C71.0505 50.3576 71.0211 50.9411 70.9918 51.3201C71.0997 51.028 71.2558 50.6298 71.4512 50.1651L72.7037 47.2396H74.5534V54.0101H72.8017ZM73.7232 45.6045C73.6459 45.9674 73.4369 46.2892 73.136 46.5087C72.7352 46.7996 72.2172 46.8293 71.9233 46.8293C71.6294 46.8293 71.1113 46.7996 70.7106 46.5087C70.4097 46.2892 70.2007 45.9674 70.1234 45.6045L70.9846 45.2646C71.1019 45.4494 71.2093 45.5753 71.3853 45.6628C71.5558 45.7332 71.7386 45.7695 71.9233 45.7695C72.1079 45.7695 72.2908 45.7332 72.4613 45.6628C72.6373 45.5753 72.7446 45.4494 72.8625 45.2646L73.7232 45.6045Z" fill="#0062A1"/>
<path d="M80.1474 47.2374C80.7441 47.2374 81.5865 47.2765 82.182 47.7236C82.7693 48.1609 82.896 48.773 82.896 49.3467C82.896 49.8417 82.7886 50.5908 82.1333 51.0962C81.5754 51.5362 80.7834 51.6017 80.226 51.6017H79.6781V54.0101H77.9297V47.2374H80.1474ZM80.1867 50.2212C80.3234 50.2212 80.5875 50.2212 80.7541 50.0952C80.9788 49.9203 80.9887 49.5408 80.9887 49.3758C80.9887 49.2009 80.9788 48.987 80.8614 48.8511C80.7148 48.6757 80.4508 48.6564 80.2842 48.6564H79.6753V50.2212H80.1867Z" fill="#0062A1"/>
<path d="M88.6478 53.079C88.3644 53.4678 87.7578 54.1289 86.2906 54.1289C85.1659 54.1289 84.4026 53.7203 83.9139 53.0889C83.5818 52.661 83.2193 51.9421 83.2193 50.7948C83.2193 49.609 83.5126 48.6564 84.2156 47.9568C84.7629 47.4123 85.4576 47.1208 86.3476 47.1208C87.1401 47.1208 88.1082 47.3348 88.7535 48.2577C89.2428 48.9578 89.3408 49.6772 89.3408 50.3669C89.3424 51.3701 89.2052 52.3013 88.6478 53.079ZM87.0045 48.734C86.9181 48.6501 86.8155 48.5844 86.7029 48.541C86.5903 48.4977 86.4699 48.4774 86.3492 48.4815C86.1245 48.4815 85.7404 48.5398 85.498 48.9287C85.4299 49.0359 85.1758 49.4633 85.1758 50.6001C85.1758 51.9201 85.4205 52.3211 85.6059 52.496C85.7133 52.6032 85.9479 52.7583 86.3199 52.7583C86.5252 52.7583 86.7992 52.7193 87.0145 52.496C87.2885 52.2138 87.3859 51.6891 87.3859 50.5809C87.3859 49.4341 87.2492 48.9771 87.0067 48.734H87.0045Z" fill="#0062A1"/>
<path d="M95.1721 52.5735H95.8761V55.0001H94.2711V54.0101H91.0919V55.0001H89.4868V52.5735H90.0148C90.1794 52.1998 90.3136 51.8136 90.4161 51.4185C90.5514 50.8933 90.656 50.3607 90.7294 49.8235C90.7681 49.4935 90.8461 48.6861 90.8561 48.2973L90.8954 47.238H95.1699L95.1721 52.5735ZM92.3256 48.5789L92.2962 49.2977C92.2763 49.6871 92.2083 50.2509 92.1496 50.6392C92.0954 51.0181 92.0103 51.3921 91.895 51.7573C91.8008 52.0715 91.6799 52.3771 91.5336 52.6709H93.4209V48.5789H92.3256Z" fill="#0062A1"/>
<path d="M100.053 54.0101V51.2051C100.053 50.9043 100.083 50.3114 100.112 49.9319C99.9553 50.3719 99.828 50.6804 99.652 51.0869L98.4001 54.0101H96.5514V47.2374H98.3026V50.0468C98.3026 50.3576 98.2733 50.9411 98.2434 51.3201C98.3541 51.028 98.508 50.6298 98.7034 50.1651L99.9581 47.2374H101.807V54.0101H100.053Z" fill="#0062A1"/>
<path d="M106.128 54.0101V51.1644H104.729V54.0101H102.978V47.2374H104.729V49.7256H106.128V47.2374H107.878V54.0101H106.128Z" fill="#0062A1"/>
<path d="M111.4 49.7256C111.909 49.7256 112.76 49.7449 113.317 50.1827C113.926 50.659 113.992 51.407 113.992 51.7777C113.992 52.6621 113.689 53.1774 113.395 53.4596C112.867 53.9744 112.233 54.0134 111.79 54.0134H109.051V47.2374H110.806V49.7256H111.4ZM110.754 52.5642H111.351C111.449 52.5642 111.664 52.5543 111.821 52.3893C111.909 52.2919 111.997 52.1264 111.997 51.8541C111.997 51.5725 111.928 51.407 111.85 51.3102C111.791 51.242 111.717 51.1881 111.634 51.1528C111.551 51.1174 111.461 51.1014 111.371 51.1061H110.754V52.5642ZM116.467 47.2374V54.0101H114.716V47.2374H116.467Z" fill="#0062A1"/>
</svg>
