<svg width="191" height="55" viewBox="0 0 191 55" fill="none" xmlns="http://www.w3.org/2000/svg">
<path d="M10.7366 26.2582H12.7428C13.5351 26.2584 14.3085 26.0157 14.9593 25.5627C15.6101 25.1096 16.1069 24.468 16.3834 23.7238L20.9957 11.3102V4.48552C20.9976 3.9221 20.8888 3.36382 20.6755 2.84255C20.4621 2.32128 20.1484 1.84723 19.7522 1.44745C19.3561 1.04769 18.8852 0.730038 18.3666 0.512642C17.8479 0.295243 17.2916 0.182355 16.7293 0.18042H0.164551V0.316912C1.08193 0.556252 1.8941 1.09396 2.47369 1.84572C3.05328 2.59747 3.3675 3.52076 3.36708 4.47076V50.5431C3.36731 51.4926 3.05295 52.4153 2.47333 53.1665C1.89371 53.9176 1.08163 54.4546 0.164551 54.6932V54.8519H16.7293C17.8648 54.8519 18.9537 54.3998 19.7566 53.5952C20.5594 52.7907 21.0105 51.6994 21.0105 50.5615V43.7368L16.3797 31.2937C16.1072 30.5473 15.612 29.9032 14.9612 29.4491C14.3104 28.9949 13.5358 28.7528 12.7428 28.7556H10.7366C10.4065 28.7537 10.0907 28.6212 9.85766 28.387C9.6246 28.1528 9.49334 27.8358 9.4924 27.5051C9.4924 27.1744 9.62349 26.8572 9.85678 26.6234C10.0901 26.3895 10.4066 26.2582 10.7366 26.2582Z" fill="white"/>
<path d="M16.7305 55.0001H0.165654C0.121721 55.0001 0.0795875 54.9826 0.0485223 54.9515C0.0174572 54.9203 5.45303e-06 54.8781 5.45303e-06 54.8341V54.6939C-0.00029561 54.6567 0.0118775 54.6204 0.0345727 54.591C0.0572678 54.5616 0.08917 54.5406 0.125162 54.5315C1.00588 54.3019 1.78559 53.7857 2.3419 53.0639C2.89821 52.3422 3.19963 51.4557 3.19885 50.5437V4.47139C3.19982 3.55891 2.89853 2.67192 2.34226 1.94953C1.78598 1.22714 1.00618 0.710226 0.125162 0.479861C0.08917 0.47077 0.0572678 0.449827 0.0345727 0.420393C0.0118775 0.390959 -0.00029561 0.354739 5.45303e-06 0.317543V0.181051C-5.09005e-06 0.136676 0.0173283 0.0940628 0.0482922 0.0623429C0.0792554 0.0306228 0.121386 0.0123171 0.165654 0.0113525H16.7305C17.9105 0.0123295 19.0419 0.48254 19.8763 1.31874C20.7107 2.15496 21.1799 3.28882 21.1809 4.47139V11.2961C21.1844 11.3156 21.1844 11.3356 21.1809 11.3551L16.5574 23.7687C16.2678 24.5483 15.7473 25.2204 15.0656 25.6951C14.384 26.1699 13.5739 26.4245 12.7439 26.4248H10.7377C10.4516 26.4248 10.1773 26.5387 9.97504 26.7414C9.77279 26.9441 9.65916 27.219 9.65916 27.5057C9.65869 27.6477 9.68645 27.7883 9.74081 27.9194C9.79516 28.0505 9.875 28.1695 9.97569 28.2693C10.0748 28.3709 10.1935 28.4514 10.3244 28.5059C10.4553 28.5604 10.5959 28.5878 10.7377 28.5866H12.7439C13.5709 28.5883 14.3775 28.8438 15.0554 29.3186C15.7332 29.7935 16.2497 30.4649 16.5354 31.2427L21.1699 43.6858C21.1737 43.7053 21.1737 43.7253 21.1699 43.7448V50.5511C21.166 51.7298 20.697 52.8592 19.8653 53.6927C19.0336 54.5262 17.9067 54.9962 16.7305 55.0001ZM0.784073 54.6644H16.7305C17.8204 54.6624 18.8651 54.2276 19.6358 53.4553C20.4065 52.6829 20.8403 51.6359 20.8423 50.5437V43.7854L16.2225 31.3496C15.9598 30.6372 15.4856 30.0226 14.8636 29.5885C14.2416 29.1545 13.5018 28.922 12.7439 28.9223H10.7377C10.3634 28.9204 10.005 28.7705 9.74028 28.5052C9.47565 28.24 9.32611 27.8808 9.32418 27.5057C9.32318 27.3189 9.35903 27.1337 9.42955 26.9608C9.50013 26.7878 9.60404 26.6306 9.73536 26.498C9.86662 26.3653 10.0228 26.26 10.1947 26.1879C10.3668 26.1159 10.5513 26.0785 10.7377 26.078H12.7439C13.5012 26.0763 14.2401 25.8434 14.8622 25.4104C15.4843 24.9775 15.96 24.365 16.2261 23.6543L20.8423 11.2666V4.47139C20.8403 3.37878 20.4066 2.33144 19.636 1.5585C18.8654 0.785561 17.8207 0.349981 16.7305 0.347056H0.784073C1.59942 0.683765 2.29669 1.25545 2.78752 1.98968C3.27835 2.72391 3.54065 3.58763 3.54119 4.47139V50.5437C3.5409 51.4271 3.27865 52.2904 2.78774 53.0241C2.29683 53.7578 1.59942 54.3287 0.784073 54.6644Z" fill="#3C3C3B"/>
<path d="M28.318 0.18042C27.3852 0.179955 26.4746 0.465687 25.7086 0.999209C24.9426 1.53273 24.358 2.28848 24.0333 3.16484L21.0111 11.2807L16.3988 23.7091C16.1239 24.4584 15.6258 25.1048 14.9719 25.5609C14.318 26.0168 13.54 26.2603 12.7434 26.2582H31.6641C32.506 26.258 33.3277 25.9999 34.0192 25.5186C34.7106 25.0373 35.2388 24.3557 35.5329 23.5652L43.2963 2.71847C43.4881 2.18282 43.7968 1.69684 44.2 1.29603C44.6031 0.895224 45.0904 0.5897 45.6264 0.401762V0.18042H28.318Z" fill="url(#paint0_linear_390_6103)"/>
<path d="M31.6656 26.4245H12.7449C12.7009 26.4245 12.6588 26.4071 12.6277 26.3759C12.5967 26.3448 12.5792 26.3026 12.5792 26.2585C12.5777 26.2357 12.5808 26.2127 12.5885 26.191C12.5961 26.1694 12.608 26.1495 12.6235 26.1326C12.639 26.1157 12.6577 26.1022 12.6785 26.0927C12.6994 26.0833 12.722 26.0782 12.7449 26.0778C13.5023 26.076 14.2411 25.8431 14.8632 25.4102C15.4852 24.9772 15.961 24.3647 16.2272 23.6541L23.8691 3.0951C24.2073 2.18809 24.8134 1.40597 25.6066 0.853001C26.3997 0.300023 27.3422 0.00246713 28.3084 0H45.6094C45.6544 0 45.6975 0.0178802 45.7292 0.0497042C45.761 0.081528 45.7788 0.124689 45.7788 0.169695V0.391039C45.7792 0.425728 45.7688 0.459682 45.749 0.488134C45.7292 0.516586 45.701 0.538107 45.6684 0.549668C45.1553 0.729163 44.6886 1.02094 44.302 1.40381C43.9155 1.78667 43.619 2.25101 43.4339 2.76309L35.6742 23.6135C35.3682 24.4334 34.8212 25.141 34.1055 25.6429C33.3898 26.1448 32.5391 26.4173 31.6656 26.4245ZM14.3646 26.0888H31.6656C32.4725 26.0866 33.2596 25.8384 33.9224 25.3772C34.5851 24.9159 35.0922 24.2635 35.3761 23.5065L43.1395 2.65979C43.3246 2.14659 43.6125 1.6767 43.9853 1.27896C44.3581 0.881217 44.8081 0.564 45.3076 0.34677H28.3195C27.4235 0.347682 26.549 0.621632 25.8119 1.13226C25.075 1.64288 24.5103 2.36605 24.193 3.20577L16.5585 23.7537C16.3673 24.2695 16.0741 24.7412 15.6964 25.1406C15.3188 25.5399 14.8645 25.8587 14.3609 26.0778L14.3646 26.0888Z" fill="#3C3C3B"/>
<path d="M43.2963 52.2995L35.6397 31.7369C35.3113 30.8632 34.7256 30.1104 33.9604 29.578C33.1951 29.0457 32.2865 28.759 31.3549 28.7561H12.7434C13.5345 28.7556 14.3067 28.9987 14.9553 29.4527C15.6039 29.9067 16.0975 30.5496 16.3693 31.2942L21 43.7373L24.129 52.1409C24.424 52.9308 24.9524 53.6118 25.6436 54.093C26.3349 54.5742 27.1561 54.8326 27.9978 54.8339H45.6154V54.6089C45.0842 54.4167 44.6014 54.1104 44.2007 53.7115C43.8001 53.3125 43.4915 52.8306 43.2963 52.2995Z" fill="url(#paint1_linear_390_6103)"/>
<path d="M45.6278 54.9999H28.0102C27.1353 54.9975 26.2817 54.7284 25.5631 54.2283C24.8444 53.7282 24.2946 53.0207 23.9868 52.1999L16.2234 31.3495C15.9607 30.637 15.4865 30.0224 14.8645 29.5884C14.2425 29.1543 13.5027 28.9218 12.7448 28.9221C12.7047 28.9161 12.668 28.8959 12.6415 28.8651C12.6149 28.8343 12.6003 28.7949 12.6003 28.7542C12.6003 28.7136 12.6149 28.6742 12.6415 28.6434C12.668 28.6127 12.7047 28.5924 12.7448 28.5864H31.3452C32.3113 28.5894 33.2536 28.8867 34.0471 29.4388C34.8406 29.9909 35.4479 30.7718 35.7883 31.6778L43.4265 52.2405C43.6158 52.7525 43.9156 53.2164 44.3044 53.599C44.6931 53.9816 45.1613 54.2735 45.6757 54.4539C45.7083 54.4655 45.7365 54.487 45.7563 54.5154C45.7761 54.5439 45.7865 54.5778 45.7861 54.6125V54.8523C45.7817 54.8918 45.7634 54.9284 45.7343 54.9556C45.7052 54.9826 45.6675 54.9984 45.6278 54.9999ZM14.3608 28.9221C14.8616 29.1407 15.3127 29.459 15.6868 29.858C16.0608 30.2569 16.3498 30.728 16.5363 31.2425L24.2997 52.0892C24.5836 52.8462 25.0906 53.4986 25.7534 53.9599C26.4162 54.4212 27.2033 54.6693 28.0102 54.6716H45.3112C44.8106 54.4546 44.3589 54.1386 43.9832 53.7424C43.6074 53.3462 43.3154 52.878 43.1247 52.3659L35.4864 31.7959C35.1713 30.9528 34.6071 30.2261 33.8692 29.7126C33.1312 29.1992 32.2546 28.9234 31.3563 28.9221H14.3608Z" fill="#3C3C3B"/>
<path d="M63.1342 9.35545V17.4086H61.2938V10.8754H57.6533V17.4086H55.8127V9.35545H63.1342Z" fill="black"/>
<path d="M72.4109 12.2772C72.4109 14.0737 71.0673 15.1878 68.9212 15.1878H67.301V17.4012H65.4425V9.35545H68.9212C71.0673 9.35545 72.4109 10.4732 72.4109 12.2772ZM70.5261 12.2772C70.5261 11.3918 69.9556 10.8754 68.8181 10.8754H67.301V13.6716H68.8181C69.9556 13.6716 70.5372 13.1662 70.5372 12.2772H70.5261Z" fill="black"/>
<path d="M80.248 15.9146V17.4086H74.0264V9.35545H80.108V10.8532H75.8744V12.6018H79.6072V14.0516H75.8744V15.8961L80.248 15.9146Z" fill="black"/>
<path d="M88.379 15.1546C88.379 16.6745 86.7267 17.5488 84.7973 17.5488C83.6751 17.5511 82.5715 17.2613 81.5951 16.7077L82.1656 15.3722C82.8966 15.8024 83.7289 16.0291 84.5765 16.0289C85.6331 16.0289 86.4947 15.6379 86.4947 14.889C86.4947 14.2803 85.9459 13.9815 85.1066 13.9815H83.145V12.576H84.9666C85.7251 12.576 86.1632 12.244 86.1632 11.7164C86.1632 11.0598 85.4492 10.713 84.5437 10.713C83.7875 10.7203 83.046 10.9182 82.3865 11.2885L81.823 9.84611C82.6764 9.41232 83.62 9.18727 84.5765 9.18944C86.4391 9.18944 88.044 10.0416 88.044 11.5025C88.0446 11.8719 87.9345 12.2329 87.7277 12.5388C87.5209 12.8446 87.2269 13.0811 86.8848 13.2179C87.3101 13.3341 87.6861 13.586 87.9555 13.9355C88.225 14.2849 88.3737 14.7129 88.379 15.1546Z" fill="black"/>
<path d="M90.2123 9.35545H92.0527V14.6012L95.8886 9.35545H97.6335V17.4086H95.7931V12.1739L91.9683 17.4086H90.2123V9.35545Z" fill="black"/>
<path d="M108.294 15.8925V19.0687H106.571V17.4086H100.898V19.0687H99.1792V15.8814H99.4996C100.545 15.8445 100.81 14.118 100.887 11.864L100.98 9.34439H107.156V15.8814L108.294 15.8925ZM101.738 15.8925H105.331V10.8754H102.562L102.525 12.0485C102.474 13.7639 102.29 15.2358 101.738 15.8925Z" fill="black"/>
<path d="M116.149 15.9146V17.4086H109.924V9.35545H115.998V10.8532H111.765V12.6018H115.498V14.0516H111.765V15.8961L116.149 15.9146Z" fill="black"/>
<path d="M125.433 9.35545V17.4086H123.574V14.1069H119.922V17.4086H118.063V9.35545H119.922V12.5317H123.574V9.35545H125.433Z" fill="black"/>
<path d="M133.947 10.8754H131.37V17.4086H129.53V10.8754H126.971V9.35545H133.94L133.947 10.8754Z" fill="black"/>
<path d="M134.845 13.3839C134.845 10.9565 136.704 9.21899 139.207 9.21899C139.831 9.19157 140.452 9.30533 141.026 9.55187C141.6 9.79841 142.111 10.1713 142.521 10.643L141.328 11.7497C141.083 11.4506 140.774 11.2105 140.424 11.0471C140.075 10.8836 139.693 10.801 139.307 10.8053C138.623 10.8053 137.968 11.0773 137.485 11.5616C137.001 12.0459 136.73 12.7027 136.73 13.3876C136.73 14.0725 137.001 14.7293 137.485 15.2136C137.968 15.6979 138.623 15.9699 139.307 15.9699C139.693 15.9729 140.076 15.8885 140.426 15.7232C140.776 15.5577 141.084 15.3155 141.328 15.0144L142.521 16.1211C142.113 16.597 141.603 16.9737 141.029 17.2229C140.455 17.4722 139.832 17.5874 139.207 17.5599C136.704 17.5488 134.845 15.8113 134.845 13.3839Z" fill="black"/>
<path d="M147.199 14.166H145.911V17.4086H144.07V9.35545H145.911V12.6129H147.243L149.356 9.35545H151.318L148.69 13.2437L151.399 17.4086H149.286L147.199 14.166Z" fill="black"/>
<path d="M152.916 9.35545H154.756V14.6012L158.592 9.35545H160.355V17.4086H158.514V12.1739L154.672 17.4086H152.916V9.35545Z" fill="black"/>
<path d="M162.652 9.35547H164.492V14.6013L168.328 9.35547H170.073V17.4086H168.233V12.1739L164.405 17.4086H162.649L162.652 9.35547ZM164.125 7.07935H165.398C165.398 7.62901 165.718 7.91675 166.351 7.91675C166.985 7.91675 167.29 7.62901 167.305 7.07935H168.578C168.578 8.18606 167.842 8.83898 166.351 8.83898C164.861 8.83898 164.147 8.20449 164.136 7.07935H164.125Z" fill="black"/>
<path d="M61.1246 30.7039V31.5782H59.4131V30.6891C56.6925 30.5305 55.198 29.2763 55.198 27.1698C55.198 25.0634 56.6925 23.8091 59.4131 23.6505V22.8204H61.1246V23.6394C63.8336 23.798 65.3249 25.0634 65.3249 27.1698C65.3249 29.2763 63.8447 30.5637 61.1246 30.7039ZM59.4131 25.1114C57.7821 25.2589 57.0017 25.9155 57.0017 27.1698C57.0017 28.4241 57.8631 29.0807 59.4131 29.2394V25.1114ZM63.5355 27.1477C63.5355 25.9045 62.7184 25.2367 61.1246 25.1003V29.2283C62.7441 29.0918 63.5431 28.413 63.5431 27.1587L63.5355 27.1477Z" fill="black"/>
<path d="M66.7048 27.1846C66.7048 24.7941 68.5457 23.0197 71.1001 23.0197C73.655 23.0197 75.4989 24.7793 75.4989 27.1846C75.4989 29.5898 73.6252 31.3494 71.1001 31.3494C68.575 31.3494 66.7048 29.5861 66.7048 27.1846ZM73.6146 27.1846C73.6023 26.6891 73.4442 26.2083 73.1607 25.8022C72.8772 25.3962 72.4801 25.0831 72.0197 24.9019C71.5593 24.7208 71.0562 24.6798 70.5724 24.784C70.0891 24.8881 69.6469 25.133 69.3013 25.4877C68.9563 25.8424 68.7226 26.2914 68.6307 26.7784C68.5387 27.2653 68.592 27.7687 68.7841 28.2254C68.9762 28.6821 69.2984 29.072 69.7102 29.3462C70.1219 29.6204 70.6057 29.7667 71.1001 29.7669C71.4381 29.7765 71.7748 29.7158 72.0882 29.5886C72.4022 29.4614 72.6857 29.2706 72.9223 29.0279C73.1583 28.7853 73.3417 28.4962 73.4612 28.1789C73.5801 27.8617 73.6322 27.5231 73.6146 27.1846Z" fill="black"/>
<path d="M84.6468 23.1672V31.2203H82.7842V27.9223H79.1322V31.224H77.2737V23.1672H79.1322V26.3398H82.7842V23.1672H84.6468Z" fill="black"/>
<path d="M95.3035 29.7005V32.8878H93.5844V31.2204H87.9116V32.8878H86.189V29.7005H86.5094C87.5543 29.6672 87.8196 27.9408 87.9005 25.6868L87.9924 23.1672H94.1695V29.7005H95.3035ZM88.7474 29.7005H92.3438V24.6834H89.5868L89.5534 25.8565C89.4837 27.5719 89.3103 29.0291 88.7474 29.7005Z" fill="black"/>
<path d="M104.068 27.974H102.783V31.2203H100.943V23.1672H102.783V26.4209H104.112L106.225 23.1672H108.191L105.559 27.0554L108.268 31.2203H106.159L104.068 27.974Z" fill="black"/>
<path d="M117.463 23.1672L114.04 29.5418C113.374 30.7814 112.42 31.4048 111.342 31.4048C110.892 31.3996 110.448 31.3056 110.035 31.1281L110.48 29.7115C110.74 29.8014 111.012 29.8523 111.286 29.8628C111.519 29.8617 111.746 29.7967 111.944 29.6751C112.142 29.5535 112.303 29.3798 112.409 29.1729L112.479 29.0807L109.31 23.1783H111.297L113.432 27.5018L115.641 23.1783L117.463 23.1672Z" fill="black"/>
<path d="M125.602 23.1672V31.2203H123.762V24.6834H121.008L120.95 26.3656C120.846 29.5271 120.401 31.3457 118.516 31.3457C118.207 31.3396 117.899 31.2975 117.6 31.2203L117.713 29.6451C117.821 29.6761 117.933 29.691 118.045 29.6894C118.987 29.6894 119.226 28.4941 119.308 26.432L119.421 23.1672H125.602Z" fill="black"/>
<path d="M134.849 28.413C134.849 30.2575 133.608 31.2203 131.536 31.2203H127.907V23.1672H129.747V25.8122H131.794C133.748 25.8122 134.849 26.6754 134.849 28.413ZM132.979 28.4462C132.979 27.5608 132.405 27.1919 131.44 27.1919H129.762V29.8406H131.44C132.379 29.8406 132.979 29.3574 132.979 28.4462Z" fill="black"/>
<path d="M141.979 24.6834H139.403V31.2203H137.562V24.6834H134.985V23.1672H141.954L141.979 24.6834Z" fill="black"/>
<path d="M151.23 23.1672L147.81 29.5418C147.144 30.7814 146.19 31.4048 145.112 31.4048C144.661 31.3992 144.216 31.3052 143.802 31.1281L144.25 29.7115C144.509 29.8011 144.78 29.852 145.053 29.8628C145.286 29.8619 145.514 29.7971 145.712 29.6755C145.911 29.5539 146.072 29.3801 146.179 29.1729L146.249 29.0807L143.08 23.1783H145.064L147.203 27.5018L149.411 23.1783L151.23 23.1672Z" fill="black"/>
<path d="M159.682 26.0778C159.682 27.8707 158.342 28.9884 156.192 28.9884H154.576V31.2019H152.713V23.1672H156.192C158.342 23.1672 159.682 24.2813 159.682 26.0778ZM157.8 26.0778C157.8 25.1925 157.226 24.6723 156.089 24.6723H154.576V27.4686H156.089C157.226 27.4796 157.8 26.9632 157.8 26.0778Z" fill="black"/>
<path d="M168.67 23.1672V31.2203H166.83V27.9223H163.179V31.224H161.316V23.1672H163.179V26.3398H166.83V23.1672H168.67Z" fill="black"/>
<path d="M177.917 28.413C177.917 30.2575 176.677 31.2203 174.604 31.2203H170.979V23.1672H172.819V25.8122H174.862C176.817 25.8122 177.917 26.6754 177.917 28.413ZM176.048 28.4462C176.048 27.5608 175.473 27.1919 174.509 27.1919H172.834V29.8406H174.509C175.447 29.8406 176.048 29.3574 176.048 28.4462ZM178.941 23.1672H180.781V31.2203H178.941V23.1672Z" fill="black"/>
<path d="M184.65 23.1672L186.318 25.6056L187.982 23.1672H190.161L187.489 27.0222L190.381 31.2203H188.173L186.303 28.5495L184.463 31.2203H182.317L185.188 27.0997L182.501 23.1672H184.65Z" fill="black"/>
<path d="M55.8127 36.9752H57.6533V42.221L61.4889 36.9752H63.2338V45.0284H61.3934V39.7936L57.5576 45.0284H55.8127V36.9752Z" fill="black"/>
<path d="M72.9152 36.9752V45.0284H71.0561V41.7083H67.4041V45.0284H65.5456V36.9752H67.4041V40.1515H71.0561V36.9752H72.9152Z" fill="black"/>
<path d="M75.2307 36.9752H77.071V42.221L80.9063 36.9752H82.6512V45.0284H80.8109V39.7936L76.9755 45.0284H75.2195L75.2307 36.9752Z" fill="black"/>
<path d="M93.3928 43.5122V46.7364H91.6849V45.0321H84.9666V36.9752H86.8075V43.5122H90.415V36.9752H92.2554V43.5122H93.3928Z" fill="black"/>
<path d="M95.02 36.9752H96.8603V42.221L100.692 36.9752H102.437V45.0284H100.597V39.7936L96.7649 45.0284H95.0088L95.02 36.9752Z" fill="black"/>
<path d="M110.293 43.3056H106.563L105.853 45.0284H103.946L107.528 36.9752H109.369L112.961 45.0284H111.01L110.293 43.3056ZM109.704 41.889L108.452 38.805L107.178 41.889H109.704Z" fill="black"/>
<path d="M119.687 38.4951H117.11V45.0284H115.269V38.4951H112.693V36.9752H119.661L119.687 38.4951Z" fill="black"/>
<path d="M121.218 36.9752H123.059V42.221L126.891 36.9752H128.635V45.0284H126.795V39.7936L122.963 45.0284H121.203L121.218 36.9752Z" fill="black"/>
<path d="M138.04 42.7633C138.04 44.1651 136.936 45.0284 134.919 45.0284H130.958V36.9752H134.698C136.561 36.9752 137.661 37.713 137.661 39.0595C137.668 39.4345 137.564 39.8031 137.362 40.1185C137.159 40.4339 136.867 40.6816 136.524 40.8303C136.963 40.9221 137.356 41.1662 137.633 41.5199C137.911 41.8735 138.055 42.3138 138.04 42.7633ZM132.806 40.3138H134.54C135.342 40.3138 135.765 39.9781 135.765 39.3362C135.765 38.6943 135.342 38.3549 134.54 38.3549H132.806V40.3138ZM136.156 42.6121C136.156 41.9333 135.71 41.6124 134.849 41.6124H132.806V43.6487H134.849C135.71 43.6487 136.156 43.3167 136.156 42.6121Z" fill="black"/>
<defs>
<linearGradient id="paint0_linear_390_6103" x1="29.1904" y1="-1.23617" x2="29.1904" y2="26.1217" gradientUnits="userSpaceOnUse">
<stop offset="0.04" stop-color="#3A61A9"/>
<stop offset="0.06" stop-color="#3879BA"/>
<stop offset="0.1" stop-color="#3691CB"/>
<stop offset="0.14" stop-color="#34A2D7"/>
<stop offset="0.18" stop-color="#33ACDF"/>
<stop offset="0.23" stop-color="#33AFE1"/>
<stop offset="0.37" stop-color="#3599D1"/>
<stop offset="0.61" stop-color="#387ABB"/>
<stop offset="0.82" stop-color="#3968AE"/>
<stop offset="0.96" stop-color="#3A61A9"/>
</linearGradient>
<linearGradient id="paint1_linear_390_6103" x1="29.1904" y1="55.8853" x2="29.1904" y2="28.7856" gradientUnits="userSpaceOnUse">
<stop offset="0.09" stop-color="#E94B4C"/>
<stop offset="0.14" stop-color="#DA4243"/>
<stop offset="0.21" stop-color="#CA3839"/>
<stop offset="0.29" stop-color="#C13334"/>
<stop offset="0.4" stop-color="#BE3132"/>
<stop offset="0.63" stop-color="#D5373B"/>
<stop offset="0.84" stop-color="#E73C42"/>
<stop offset="0.88" stop-color="#E23B41"/>
<stop offset="0.92" stop-color="#D5383D"/>
<stop offset="0.97" stop-color="#BF3436"/>
<stop offset="1" stop-color="#A72F2F"/>
</linearGradient>
</defs>
</svg>
