<svg width="166" height="55" viewBox="0 0 166 55" fill="none" xmlns="http://www.w3.org/2000/svg">
<path d="M50.3985 8.47131H46.4531H41.6168H27.1077C24.6896 8.47131 22.6532 9.98856 21.7623 12.138L12.726 36.7933C11.9623 38.9428 9.79871 40.46 7.50781 40.46H11.4533H15.6532H30.9259C33.3441 40.46 35.3804 38.9428 36.2713 36.7933L45.3077 12.138C45.944 9.86213 48.1076 8.47131 50.3985 8.47131Z" fill="#D5AE75"/>
<path d="M20.109 11.5058C21.1272 8.59776 23.9272 6.70119 27.109 6.70119H29.3999L30.7999 3.0345C31.4362 1.13794 33.218 0 35.1271 0H31.8181H27.8726H16.0363C14.1272 0 12.3454 1.13794 11.709 3.0345L4.32725 23.2645C3.69089 25.0346 1.90908 26.299 0 26.299H3.18181H6.61815H14.7636L20.109 11.5058Z" fill="#E6D4B6"/>
<path d="M56.8867 19.4715H57.523C58.0321 19.4715 58.4139 19.5979 58.7958 19.7243C59.1776 19.8508 59.5594 20.1036 59.8139 20.3565C60.0685 20.6094 60.323 20.8623 60.4503 21.2416C60.5776 21.6209 60.7048 22.0002 60.7048 22.506C60.7048 23.0117 60.5776 23.391 60.4503 23.7703C60.323 24.1497 60.0685 24.4025 59.6867 24.6554C59.4321 24.9083 59.0503 25.1612 58.6685 25.2876C58.2867 25.414 57.9048 25.5405 57.3958 25.5405H56.7594V26.552H54.9776V25.5405H54.3412C53.8321 25.5405 53.4503 25.414 53.0685 25.2876C52.6867 25.1612 52.3049 24.9083 52.0503 24.6554C51.7958 24.4025 51.5412 24.1497 51.414 23.7703C51.2867 23.391 51.1594 23.0117 51.1594 22.506C51.1594 22.0002 51.2867 21.6209 51.414 21.2416C51.5412 20.8623 51.7958 20.6094 52.1776 20.3565C52.4321 20.1036 52.814 19.8508 53.1958 19.7243C53.5776 19.5979 53.9594 19.4715 54.4685 19.4715H55.1049V18.46H56.8867V19.4715ZM54.4685 20.9887C53.9594 20.9887 53.5776 21.1151 53.3231 21.368C53.0685 21.6209 52.9412 22.0002 52.9412 22.506C52.9412 23.0117 53.0685 23.2646 53.3231 23.5175C53.5776 23.7703 53.9594 23.8968 54.4685 23.8968H55.1049V20.9887H54.4685ZM57.523 24.0232C58.0321 24.0232 58.4139 23.8968 58.6685 23.6439C58.923 23.391 59.0503 23.0117 59.0503 22.506C59.0503 22.0002 58.923 21.7473 58.6685 21.4945C58.4139 21.2416 58.0321 21.1152 57.523 21.1152H56.8867V24.0232H57.523Z" fill="#3C3C3B"/>
<path d="M68.2158 18.7125C68.7249 18.9653 69.234 19.2182 69.4885 19.5975C69.8703 19.9768 70.1249 20.3562 70.3794 20.8619C70.6339 21.3677 70.6339 21.8734 70.6339 22.5056C70.6339 23.0113 70.5067 23.6435 70.3794 24.1493C70.1249 24.655 69.8703 25.0343 69.4885 25.4137C69.1067 25.793 68.7249 26.0458 68.2158 26.2987C67.7067 26.5516 67.0703 26.678 66.5612 26.678C65.9249 26.678 65.4158 26.5516 64.9067 26.4252C64.3976 26.1723 63.8885 25.9194 63.634 25.5401C63.2522 25.1608 62.9976 24.7815 62.7431 24.2757C62.4885 23.77 62.4885 23.2642 62.4885 22.632C62.4885 22.1263 62.6158 21.4941 62.7431 20.9883C62.9976 20.4826 63.2522 20.1033 63.634 19.724C64.0158 19.3447 64.3976 19.0918 64.9067 18.8389C65.4158 18.586 65.9249 18.4596 66.5612 18.4596C67.1976 18.4596 67.7067 18.586 68.2158 18.7125ZM65.5431 20.2297C65.2885 20.3562 65.034 20.4826 64.7794 20.7355C64.5249 20.9883 64.3976 21.2412 64.2703 21.4941C64.1431 21.747 64.1431 22.1263 64.1431 22.5056C64.1431 22.8849 64.1431 23.1378 64.2703 23.5171C64.3976 23.77 64.5249 24.1493 64.7794 24.2757C65.034 24.5286 65.2885 24.655 65.5431 24.7815C65.7976 24.9079 66.1794 25.0343 66.5612 25.0343C66.9431 25.0343 67.3249 24.9079 67.5794 24.7815C67.834 24.655 68.0885 24.5286 68.343 24.2757C68.5976 24.0228 68.7249 23.77 68.8521 23.5171C68.9794 23.2642 68.9794 22.8849 68.9794 22.5056C68.9794 22.1263 68.9794 21.747 68.8521 21.4941C68.7249 21.2412 68.5976 20.8619 68.343 20.7355C68.0885 20.4826 67.834 20.3562 67.5794 20.2297C67.3249 20.1033 66.9431 20.1033 66.5612 20.1033C66.1794 19.9768 65.7976 20.1033 65.5431 20.2297Z" fill="#3C3C3B"/>
<path d="M74.324 21.7475H77.7604V18.713H79.5422V26.5521H77.7604V23.3912H74.324V26.5521H72.5422V18.713H74.324V21.7475Z" fill="#3C3C3B"/>
<path d="M89.0903 24.9082H90.2358V25.414L90.1085 28.1956H88.454V26.5519H83.1086L82.9813 28.1956H81.3267L81.1995 25.414V24.9082H81.5813C81.7086 24.9082 81.9631 24.9082 82.0904 24.7818C82.2176 24.6553 82.3449 24.5289 82.4722 24.276C82.7267 23.7703 82.854 23.1381 82.9813 22.5059C83.1085 21.7473 83.1086 20.9886 83.1086 19.9771V18.7128H89.0903V24.9082ZM84.6358 23.0116C84.5085 23.7703 84.3813 24.4025 84.1267 24.9082H87.3085V20.23H84.8904C84.8904 21.368 84.7631 22.253 84.6358 23.0116Z" fill="#3C3C3B"/>
<path d="M58.5446 40.5863H56.7628V34.3909H53.4537V40.5863H51.6719V32.7472H58.5446V40.5863Z" fill="#3C3C3B"/>
<path d="M65.5416 33.0002C65.9234 33.1267 66.3052 33.3795 66.5598 33.6324C66.8143 33.8853 67.0689 34.1382 67.1961 34.5175C67.3234 34.8968 67.4507 35.2761 67.4507 35.6554C67.4507 36.1612 67.3234 36.5405 67.1961 36.9198C67.0689 37.2991 66.8143 37.552 66.5598 37.8048C66.3052 38.0577 65.9234 38.1842 65.5416 38.3106C65.1598 38.437 64.6507 38.5635 64.2689 38.5635H62.6143V40.7129H60.8325V32.8738H64.3961C64.778 32.7473 65.1598 32.8738 65.5416 33.0002ZM64.1416 36.9198C64.6507 36.9198 65.0325 36.7933 65.287 36.5405C65.5416 36.2876 65.6689 36.0347 65.6689 35.529C65.6689 35.1497 65.5416 34.7703 65.287 34.6439C65.0325 34.391 64.6507 34.2646 64.1416 34.2646H62.4871V36.7933H64.1416V36.9198Z" fill="#3C3C3B"/>
<path d="M75.0892 34.3909H70.8892V35.9082H74.5801V37.4254H70.8892V39.0691H75.2165V40.7128H69.1074V32.8737H75.0892V34.3909Z" fill="#3C3C3B"/>
<path d="M81.1964 35.6553C81.3237 35.5289 81.4509 35.276 81.4509 35.1496C81.4509 34.8967 81.3237 34.6438 81.1964 34.5174C80.9418 34.2645 80.56 34.1381 80.1782 34.1381C79.4146 34.1381 78.7782 34.3909 78.1419 34.8967L77.251 33.6323C77.6328 33.253 78.1419 33.0001 78.6509 32.7473C79.16 32.6208 79.6691 32.4944 80.3055 32.4944C80.8146 32.4944 81.1964 32.4944 81.5782 32.6208C81.96 32.7473 82.2146 32.8737 82.4691 33.1266C82.7237 33.3794 82.9782 33.5059 83.1055 33.8852C83.2328 34.1381 83.36 34.5174 83.36 34.7703C83.36 35.1496 83.2328 35.4024 83.1055 35.6553C82.9782 35.9082 82.7237 36.1611 82.4691 36.2875V36.4139C82.8509 36.5404 83.1055 36.7933 83.36 37.0461C83.6146 37.299 83.7418 37.6783 83.7418 38.1841C83.7418 38.5634 83.6146 38.9427 83.4873 39.1956C83.36 39.4485 83.1055 39.8278 82.8509 39.9542C82.5964 40.2071 82.2146 40.3335 81.8328 40.46C81.4509 40.5864 80.9418 40.7128 80.3055 40.7128C79.9237 40.7128 79.6691 40.7128 79.2873 40.5864C79.0328 40.5864 78.6509 40.4599 78.3964 40.3335C78.1419 40.2071 77.8873 40.0806 77.6328 39.9542C77.3782 39.8278 77.1237 39.5749 76.8691 39.4485L77.76 38.1841C78.1419 38.5634 78.5237 38.6898 79.0328 38.8163C79.4146 38.9427 79.9237 39.0691 80.4328 39.0691C80.9419 39.0691 81.3237 38.9427 81.5782 38.8163C81.8328 38.5634 81.96 38.3105 81.96 38.0576C81.96 37.5519 81.5782 37.1726 80.9418 37.1726H78.9055V35.6553H80.6873C80.8146 35.7818 81.0691 35.7818 81.1964 35.6553Z" fill="#3C3C3B"/>
<path d="M87.1815 38.0578L90.9997 32.7474H92.527V40.5866H90.7452V35.6555L87.0543 40.5866H85.2725V32.7474H87.0543V38.0578H87.1815Z" fill="#3C3C3B"/>
<path d="M102.07 39.069H103.215V39.5747L103.088 42.3564H101.433L101.306 40.7127H95.9605L95.8333 42.3564H94.1787V39.5747V39.069H94.5605C94.6878 39.069 94.9423 39.069 95.0696 38.9425C95.1969 38.8161 95.3242 38.6897 95.4514 38.4368C95.706 37.931 95.8333 37.2988 95.9605 36.6667C96.0878 35.908 96.0878 35.1494 96.0878 34.1379V32.8735H102.07V39.069ZM97.6151 37.1724C97.4878 37.931 97.3605 38.5632 97.106 39.069H100.288V34.3908H97.8696C97.7423 35.4023 97.7423 36.4138 97.6151 37.1724Z" fill="#3C3C3B"/>
<path d="M110.852 34.3908H106.652V35.908H110.343V37.4253H106.652V39.069H110.979V40.7127H104.87V32.8735H110.852V34.3908Z" fill="#3C3C3B"/>
<path d="M114.675 35.7819H118.111V32.7474H119.893V40.5866H118.111V37.4256H114.675V40.5866H112.893V32.7474H114.675V35.7819Z" fill="#3C3C3B"/>
<path d="M128.797 34.3911H126.125V40.713H124.343V34.3911H121.67V32.7474H128.925V34.3911H128.797Z" fill="#3C3C3B"/>
<path d="M135.416 34.3913C135.034 34.2649 134.652 34.1384 134.27 34.1384C133.888 34.1384 133.507 34.1384 133.252 34.2648C132.998 34.3913 132.616 34.5177 132.488 34.7706C132.234 35.0235 132.107 35.2764 131.979 35.5292C131.852 35.7821 131.852 36.1614 131.852 36.5407C131.852 36.92 131.852 37.2994 131.979 37.5522C132.107 37.8051 132.234 38.058 132.488 38.3108C132.743 38.5637 132.998 38.6902 133.252 38.8166C133.507 38.943 133.888 38.943 134.27 38.943C134.779 38.943 135.161 38.8166 135.543 38.6902C135.925 38.5637 136.307 38.3109 136.561 38.058L137.579 39.3224C136.688 40.2074 135.543 40.5867 134.143 40.5867C133.507 40.5867 132.998 40.4603 132.488 40.3339C131.979 40.081 131.598 39.8281 131.216 39.4488C130.834 39.0695 130.579 38.6902 130.325 38.1844C130.07 37.6787 130.07 37.1729 130.07 36.5407C130.07 36.035 130.198 35.4028 130.325 34.897C130.579 34.3913 130.834 34.012 131.216 33.6327C131.598 33.2533 132.107 33.0005 132.616 32.7476C133.125 32.4947 133.761 32.3683 134.398 32.3683C135.034 32.3683 135.543 32.4947 136.052 32.6212C136.561 32.7476 137.07 33.1269 137.452 33.3798L136.434 34.6442C136.179 34.7706 135.798 34.5177 135.416 34.3913Z" fill="#3C3C3B"/>
<path d="M141.016 35.7819L141.907 35.6555L144.198 32.7474H146.361L143.434 36.4141L146.616 40.5866H144.325L141.907 37.1728H141.016V40.5866H139.234V32.7474H141.016V35.7819Z" fill="#3C3C3B"/>
<path d="M149.924 38.0578L153.742 32.7474H155.269V40.5866H153.487V35.6555L149.796 40.5866H148.015V32.7474H149.796V38.0578H149.924Z" fill="#3C3C3B"/>
<path d="M160.999 35.5291L162.653 32.7474H164.817L162.271 36.667L165.071 40.713H162.78L160.999 37.6785H160.871L159.089 40.713H156.799L159.599 36.667L157.053 32.8739H159.217L160.999 35.5291Z" fill="#3C3C3B"/>
<path d="M57.6537 48.5522H53.4537V54.874H51.6719V47.0349H57.6537V48.5522Z" fill="#3C3C3B"/>
<path d="M64.0208 47.1608C64.4027 47.2872 64.7845 47.5401 65.039 47.793C65.2936 48.0458 65.5481 48.2987 65.6754 48.678C65.8026 49.0573 65.9299 49.4367 65.9299 49.816C65.9299 50.3217 65.8026 50.701 65.6754 51.0803C65.5481 51.4597 65.2936 51.7125 65.039 51.9654C64.7845 52.2183 64.4027 52.3447 64.0208 52.4712C63.639 52.5976 63.1299 52.724 62.7481 52.724H61.0936V54.8735H59.3118V47.0343H62.8754C63.2572 46.9079 63.639 46.9079 64.0208 47.1608ZM62.6208 51.0803C63.1299 51.0803 63.5117 50.9539 63.7663 50.701C64.0208 50.4482 64.1481 50.1953 64.1481 49.6895C64.1481 49.3102 64.0208 48.9309 63.7663 48.8045C63.5117 48.5516 63.1299 48.4252 62.6208 48.4252H60.9663V50.9539H62.6208V51.0803Z" fill="#3C3C3B"/>
<path d="M74.9603 54.7475H73.0513L72.4149 53.2302H68.9785L68.3422 54.7475H66.4331L69.7422 46.9083H71.6513L74.9603 54.7475ZM71.7785 51.713L70.7604 48.6785H70.6331L69.6149 51.713H71.7785Z" fill="#3C3C3B"/>
<path d="M78.397 49.943H81.8334V46.9084H83.6152V54.7476H81.8334V51.5866H78.397V54.7476H76.6152V46.9084H78.397V49.943Z" fill="#3C3C3B"/>
<path d="M92.527 48.552H89.8543V54.8739H88.0724V48.552H85.2725V46.9083H92.527V48.552Z" fill="#3C3C3B"/>
<path d="M99.5256 47.0347C100.035 47.2876 100.544 47.5405 100.798 47.9198C101.18 48.2991 101.435 48.6784 101.689 49.1842C101.944 49.6899 101.944 50.1957 101.944 50.8279C101.944 51.3336 101.816 51.9658 101.689 52.4716C101.435 52.9773 101.18 53.3566 100.798 53.7359C100.416 54.1152 100.035 54.3681 99.5256 54.621C99.0165 54.8739 98.3801 55.0003 97.8711 55.0003C97.2347 55.0003 96.7256 54.8739 96.2165 54.7474C95.7074 54.4946 95.1983 54.2417 94.9438 53.8624C94.562 53.483 94.3074 53.1037 94.0529 52.598C93.7983 52.0922 93.7983 51.5865 93.7983 50.9543C93.7983 50.4485 93.9256 49.8164 94.0529 49.3106C94.3074 48.8049 94.562 48.4255 94.9438 48.0462C95.3256 47.6669 95.7074 47.414 96.2165 47.1612C96.7256 46.7819 97.2347 46.7819 97.8711 46.7819C98.5074 46.7819 99.0165 46.7819 99.5256 47.0347ZM96.8529 48.552C96.5983 48.6784 96.3438 48.8049 96.0892 49.0577C95.8347 49.3106 95.7074 49.5635 95.5802 49.8164C95.4529 50.1957 95.4529 50.4486 95.4529 50.8279C95.4529 51.2072 95.4529 51.4601 95.5802 51.8394C95.7074 52.0922 95.8347 52.4715 96.0892 52.598C96.3438 52.8509 96.5983 52.9773 96.8529 53.1037C97.1074 53.2302 97.4892 53.3566 97.8711 53.3566C98.2529 53.3566 98.6347 53.2302 98.8892 53.1037C99.1438 52.9773 99.3983 52.7244 99.6529 52.598C99.9074 52.3451 100.035 52.0922 100.162 51.8394C100.289 51.5865 100.289 51.2072 100.289 50.8279C100.289 50.4486 100.289 50.0692 100.162 49.8164C100.035 49.5635 99.9074 49.1842 99.6529 49.0577C99.3983 48.8049 99.1438 48.6784 98.8892 48.552C98.6347 48.4256 98.2529 48.4255 97.8711 48.4255C97.4892 48.2991 97.1074 48.4256 96.8529 48.552Z" fill="#3C3C3B"/>
<path d="M109.458 47.414C109.967 47.7934 110.222 48.2991 110.222 48.9313C110.222 49.3106 110.095 49.5635 109.967 49.8164C109.84 50.0692 109.585 50.3221 109.458 50.4486V50.575C109.84 50.7014 110.095 50.9543 110.349 51.2072C110.604 51.5865 110.731 51.9658 110.731 52.3451C110.731 52.7244 110.731 52.9773 110.604 53.2302C110.476 53.483 110.349 53.7359 110.095 53.9888C109.84 54.2417 109.585 54.3681 109.204 54.4946C108.822 54.621 108.44 54.621 107.931 54.621H104.113V46.7819H107.676C108.313 46.9083 108.949 47.0347 109.458 47.414ZM107.422 49.9428C107.676 49.9428 107.931 49.8164 108.185 49.6899C108.313 49.5635 108.44 49.3106 108.44 49.0577C108.44 48.552 108.058 48.2991 107.422 48.2991H105.64V49.9428H107.422ZM107.676 53.2302C108.44 53.2302 108.822 52.9773 108.822 52.3451C108.822 52.0922 108.695 51.8394 108.567 51.7129C108.313 51.5865 108.058 51.4601 107.676 51.4601H105.64V53.3566H107.676V53.2302Z" fill="#3C3C3B"/>
</svg>
